firamono-regular.sfdir
StartChar: numbersign
Encoding: 35 35 986
Width: 600
Flags: W
LayerCount: 2
Fore
SplineSet
429 234 m 1,0,-1
 510 234 l 1,1,-1
 510 170 l 1,2,-1
 419 170 l 1,3,-1
 398 0 l 1,4,-1
 327 0 l 1,5,-1
 349 170 l 1,6,-1
 204 170 l 1,7,-1
 181 0 l 1,8,-1
 110 0 l 1,9,-1
 132 170 l 1,10,-1
 53 170 l 1,11,-1
 53 234 l 1,12,-1
 140 234 l 1,13,-1
 171 456 l 1,14,-1
 90 456 l 1,15,-1
 90 522 l 1,16,-1
 179 522 l 1,17,-1
 202 689 l 1,18,-1
 273 689 l 1,19,-1
 250 522 l 1,20,-1
 396 522 l 1,21,-1
 419 689 l 1,22,-1
 490 689 l 1,23,-1
 467 522 l 1,24,-1
 547 522 l 1,25,-1
 547 456 l 1,26,-1
 458 456 l 1,27,-1
 429 234 l 1,0,-1
357 234 m 1,28,-1
 388 456 l 1,29,-1
 241 456 l 1,30,-1
 212 234 l 1,31,-1
 357 234 l 1,28,-1
EndSplineSet
EndChar
StartChar: dollar
Encoding: 36 36 1057
Width: 600
Flags: W
LayerCount: 2
Fore
SplineSet
346 698 m 1,0,1
 401 692 401 692 448 670.5 c 128,-1,2
 495 649 495 649 529 618 c 1,3,-1
 478 565 l 1,4,5
 419 619 419 619 346 628 c 1,6,-1
 346 401 l 1,7,8
 434 372 434 372 486 323 c 128,-1,9
 538 274 538 274 538 189 c 0,10,11
 538 114 538 114 488 59.5 c 128,-1,12
 438 5 438 5 346 -7 c 1,13,-1
 346 -153 l 1,14,-1
 278 -153 l 1,15,-1
 278 -10 l 1,16,17
 213 -7 213 -7 160 19.5 c 128,-1,18
 107 46 107 46 69 83 c 1,19,-1
 119 139 l 1,20,21
 190 68 190 68 278 61 c 1,22,-1
 278 337 l 1,23,24
 188 367 188 367 141.5 413.5 c 128,-1,25
 95 460 95 460 95 528 c 0,26,27
 95 569 95 569 115.5 606 c 128,-1,28
 136 643 136 643 177.5 667.5 c 128,-1,29
 219 692 219 692 278 698 c 1,30,-1
 278 848 l 1,31,-1
 346 848 l 1,32,-1
 346 698 l 1,0,1
209.5 594.5 m 128,-1,34
 184 570 184 570 184 529 c 0,35,36
 184 492 184 492 204.5 468 c 128,-1,37
 225 444 225 444 278 423 c 1,38,-1
 278 626 l 1,39,33
 235 619 235 619 209.5 594.5 c 128,-1,34
346 65 m 1,40,41
 447 85 447 85 447 188 c 0,42,43
 447 231 447 231 424 261 c 128,-1,44
 401 291 401 291 346 314 c 1,45,-1
 346 65 l 1,40,41
EndSplineSet
EndChar
StartChar: percent
Encoding: 37 37 1102
Width: 600
Flags: W
LayerCount: 2
Fore
SplineSet
558 672 m 1,0,-1
 85 -20 l 1,1,-1
 32 15 l 1,2,-1
 505 707 l 1,3,-1
 558 672 l 1,0,-1
273.5 653.5 m 128,-1,5
 313 607 313 607 313 539 c 0,6,7
 313 496 313 496 295.5 459 c 128,-1,8
 278 422 278 422 244.5 400 c 128,-1,9
 211 378 211 378 166 378 c 256,10,11
 121 378 121 378 87.5 400.5 c 128,-1,12
 54 423 54 423 36.5 459.5 c 128,-1,13
 19 496 19 496 19 539 c 0,14,15
 19 607 19 607 59 653.5 c 128,-1,16
 99 700 99 700 166 700 c 0,17,4
 234 700 234 700 273.5 653.5 c 128,-1,5
115.5 614 m 128,-1,19
 96 588 96 588 96 539 c 0,20,21
 96 492 96 492 115.5 464.5 c 128,-1,22
 135 437 135 437 166 437 c 0,23,24
 198 437 198 437 216.5 462.5 c 128,-1,25
 235 488 235 488 235 539 c 0,26,27
 235 591 235 591 216.5 615.5 c 128,-1,28
 198 640 198 640 166 640 c 0,29,18
 135 640 135 640 115.5 614 c 128,-1,19
543.5 269.5 m 128,-1,31
 583 223 583 223 583 156 c 0,32,33
 583 113 583 113 565.5 76 c 128,-1,34
 548 39 548 39 514.5 16.5 c 128,-1,35
 481 -6 481 -6 436 -6 c 256,36,37
 391 -6 391 -6 357.5 16.5 c 128,-1,38
 324 39 324 39 306.5 76 c 128,-1,39
 289 113 289 113 289 156 c 0,40,41
 289 223 289 223 329 269.5 c 128,-1,42
 369 316 369 316 436 316 c 0,43,30
 504 316 504 316 543.5 269.5 c 128,-1,31
385 231 m 128,-1,45
 366 206 366 206 366 156 c 0,46,47
 366 108 366 108 385.5 80.5 c 128,-1,48
 405 53 405 53 436 53 c 0,49,50
 468 53 468 53 486.5 78.5 c 128,-1,51
 505 104 505 104 505 156 c 256,52,53
 505 208 505 208 486.5 232 c 128,-1,54
 468 256 468 256 436 256 c 256,55,44
 404 256 404 256 385 231 c 128,-1,45
EndSplineSet
EndChar
StartChar: ampersand
Encoding: 38 38 1378
Width: 600
Flags: W
LayerCount: 2
Fore
SplineSet
367.5 683 m 128,-1,1
 407 667 407 667 446 624 c 1,2,-1
 396 578 l 1,3,4
 369 608 369 608 341.5 622 c 128,-1,5
 314 636 314 636 278 636 c 0,6,7
 226 636 226 636 199 608 c 128,-1,8
 172 580 172 580 172 534 c 0,9,10
 172 504 172 504 188.5 477.5 c 128,-1,11
 205 451 205 451 233.5 435.5 c 128,-1,12
 262 420 262 420 296 420 c 2,13,-1
 574 420 l 1,14,-1
 574 353 l 1,15,-1
 484 353 l 1,16,-1
 484 81 l 1,17,18
 454 44 454 44 404 16.5 c 128,-1,19
 354 -11 354 -11 277 -11 c 0,20,21
 203 -11 203 -11 152.5 18 c 128,-1,22
 102 47 102 47 78 94 c 128,-1,23
 54 141 54 141 54 195 c 0,24,25
 54 272 54 272 94.5 321.5 c 128,-1,26
 135 371 135 371 210 387 c 1,27,-1
 210 390 l 1,28,29
 147 405 147 405 118.5 444 c 128,-1,30
 90 483 90 483 90 534 c 0,31,32
 90 578 90 578 113 616 c 128,-1,33
 136 654 136 654 179 676.5 c 128,-1,34
 222 699 222 699 279 699 c 0,35,0
 328 699 328 699 367.5 683 c 128,-1,1
283 353 m 2,36,37
 234 353 234 353 201 330 c 128,-1,38
 168 307 168 307 152 271.5 c 128,-1,39
 136 236 136 236 136 198 c 0,40,41
 136 138 136 138 172 97.5 c 128,-1,42
 208 57 208 57 279 57 c 0,43,44
 321 57 321 57 354 70.5 c 128,-1,45
 387 84 387 84 407 109 c 1,46,-1
 407 353 l 1,47,-1
 283 353 l 2,36,37
EndSplineSet
EndChar
StartChar: quotesingle
Encoding: 39 39 991
Width: 600
Flags: W
LayerCount: 2
Fore
SplineSet
247 739 m 1,0,-1
 353 739 l 1,1,-1
 337 479 l 1,2,-1
 263 479 l 1,3,-1
 247 739 l 1,0,-1
EndSplineSet
EndChar
StartChar: parenleft
Encoding: 40 40 1006
Width: 600
Flags: W
LayerCount: 2
Fore
SplineSet
236 172.5 m 128,-1,1
 259 97 259 97 304.5 35.5 c 128,-1,2
 350 -26 350 -26 426 -94 c 1,3,-1
 383 -140 l 1,4,5
 295 -69 295 -69 239.5 0 c 128,-1,6
 184 69 184 69 154.5 154 c 128,-1,7
 125 239 125 239 125 350 c 256,8,9
 125 461 125 461 154.5 546 c 128,-1,10
 184 631 184 631 239.5 700 c 128,-1,11
 295 769 295 769 383 840 c 1,12,-1
 426 794 l 1,13,14
 349 726 349 726 303.5 665 c 128,-1,15
 258 604 258 604 235.5 528.5 c 128,-1,16
 213 453 213 453 213 350 c 0,17,0
 213 248 213 248 236 172.5 c 128,-1,1
EndSplineSet
EndChar
StartChar: plus
Encoding: 43 43 1104
Width: 600
Flags: W
LayerCount: 2
Fore
SplineSet
338 346 m 1,0,-1
 484 346 l 1,1,-1
 484 276 l 1,2,-1
 338 276 l 1,3,-1
 338 127 l 1,4,-1
 260 127 l 1,5,-1
 260 276 l 1,6,-1
 116 276 l 1,7,-1
 116 346 l 1,8,-1
 260 346 l 1,9,-1
 260 495 l 1,10,-1
 338 495 l 1,11,-1
 338 346 l 1,0,-1
EndSplineSet
EndChar
StartChar: hyphen
Encoding: 45 45 1024
Width: 600
Flags: W
LayerCount: 2
Fore
SplineSet
125 349 m 1,0,-1
 475 349 l 1,1,-1
 475 277 l 1,2,-1
 125 277 l 1,3,-1
 125 349 l 1,0,-1
EndSplineSet
EndChar
StartChar: slash
Encoding: 47 47 993
Width: 600
Flags: W
LayerCount: 2
Fore
SplineSet
53 -73 m 1,0,-1
 480 809 l 1,1,-1
 547 777 l 1,2,-1
 121 -103 l 1,3,-1
 53 -73 l 1,0,-1
EndSplineSet
EndChar
StartChar: zero
Encoding: 48 48 898
Width: 600
Flags: W
LayerCount: 2
Fore
SplineSet
467.5 608.5 m 128,-1,1
 525 517 525 517 525 345 c 0,2,3
 525 172 525 172 467.5 80.5 c 128,-1,4
 410 -11 410 -11 300 -11 c 256,5,6
 190 -11 190 -11 132.5 80.5 c 128,-1,7
 75 172 75 172 75 345 c 0,8,9
 75 517 75 517 132.5 608.5 c 128,-1,10
 190 700 190 700 300 700 c 256,11,0
 410 700 410 700 467.5 608.5 c 128,-1,1
163 345 m 0,13,14
 163 57 163 57 300 57 c 256,15,16
 437 57 437 57 437 345 c 0,17,18
 437 632 437 632 300 632 c 256,19,12
 163 632 163 632 163 345 c 0,13,14
347 391 m 128,-1,21
 366 372 366 372 366 345 c 0,22,23
 366 317 366 317 347 298 c 128,-1,24
 328 279 328 279 300 279 c 256,25,26
 272 279 272 279 253.5 298 c 128,-1,27
 235 317 235 317 235 345 c 0,28,29
 235 372 235 372 253.5 391 c 128,-1,30
 272 410 272 410 300 410 c 256,31,20
 328 410 328 410 347 391 c 128,-1,21
EndSplineSet
EndChar
StartChar: one
Encoding: 49 49 899
Width: 600
Flags: W
LayerCount: 2
Fore
SplineSet
517 68 m 1,0,-1
 517 0 l 1,1,-1
 120 0 l 1,2,-1
 120 68 l 1,3,-1
 289 68 l 1,4,-1
 289 597 l 1,5,-1
 132 502 l 1,6,-1
 95 561 l 1,7,-1
 300 689 l 1,8,-1
 374 689 l 1,9,-1
 374 68 l 1,10,-1
 517 68 l 1,0,-1
EndSplineSet
EndChar
StartChar: two
Encoding: 50 50 900
Width: 600
Flags: W
LayerCount: 2
Fore
SplineSet
379.5 675 m 128,-1,1
 427 650 427 650 452 606.5 c 128,-1,2
 477 563 477 563 477 508 c 0,3,4
 477 444 477 444 447.5 384 c 128,-1,5
 418 324 418 324 353 252.5 c 128,-1,6
 288 181 288 181 169 72 c 1,7,-1
 493 72 l 1,8,-1
 483 0 l 1,9,-1
 73 0 l 1,10,-1
 73 68 l 1,11,12
 208 197 208 197 273.5 270 c 128,-1,13
 339 343 339 343 364 395 c 128,-1,14
 389 447 389 447 389 505 c 256,15,16
 389 563 389 563 356 596 c 128,-1,17
 323 629 323 629 265 629 c 0,18,19
 216 629 216 629 183.5 612.5 c 128,-1,20
 151 596 151 596 117 556 c 1,21,-1
 59 601 l 1,22,23
 100 652 100 652 150.5 676 c 128,-1,24
 201 700 201 700 269 700 c 0,25,0
 332 700 332 700 379.5 675 c 128,-1,1
EndSplineSet
EndChar
StartChar: three
Encoding: 51 51 901
Width: 600
Flags: W
LayerCount: 2
Fore
SplineSet
380 676.5 m 128,-1,1
 428 653 428 653 454 613.5 c 128,-1,2
 480 574 480 574 480 527 c 0,3,4
 480 467 480 467 441 422.5 c 128,-1,5
 402 378 402 378 346 367 c 1,6,7
 411 362 411 362 456.5 318 c 128,-1,8
 502 274 502 274 502 198 c 0,9,10
 502 139 502 139 472 91 c 128,-1,11
 442 43 442 43 387.5 16 c 128,-1,12
 333 -11 333 -11 263 -11 c 0,13,14
 202 -11 202 -11 145.5 12 c 128,-1,15
 89 35 89 35 52 80 c 1,16,-1
 108 126 l 1,17,18
 136 93 136 93 176.5 75.5 c 128,-1,19
 217 58 217 58 261 58 c 0,20,21
 333 58 333 58 373.5 95.5 c 128,-1,22
 414 133 414 133 414 198 c 0,23,24
 414 329 414 329 271 329 c 2,25,-1
 214 329 l 1,26,-1
 224 396 l 1,27,-1
 265 396 l 2,28,29
 319 396 319 396 357 426.5 c 128,-1,30
 395 457 395 457 395 516 c 0,31,32
 395 571 395 571 358.5 601.5 c 128,-1,33
 322 632 322 632 265 632 c 0,34,35
 222 632 222 632 188.5 617 c 128,-1,36
 155 602 155 602 119 569 c 1,37,-1
 73 620 l 1,38,39
 157 700 157 700 269 700 c 0,40,0
 332 700 332 700 380 676.5 c 128,-1,1
EndSplineSet
EndChar
StartChar: six
Encoding: 54 54 904
Width: 600
Flags: W
LayerCount: 2
Fore
SplineSet
428.5 424 m 128,-1,1
 473 400 473 400 499 351.5 c 128,-1,2
 525 303 525 303 525 232 c 0,3,4
 525 158 525 158 496 102.5 c 128,-1,5
 467 47 467 47 418 18 c 128,-1,6
 369 -11 369 -11 308 -11 c 0,7,8
 188 -11 188 -11 133.5 76 c 128,-1,9
 79 163 79 163 79 325 c 0,10,11
 79 439 79 439 109.5 523.5 c 128,-1,12
 140 608 140 608 197.5 654 c 128,-1,13
 255 700 255 700 335 700 c 0,14,15
 410 700 410 700 472 659 c 1,16,-1
 439 603 l 1,17,18
 390 632 390 632 334 632 c 0,19,20
 255 632 255 632 210.5 558 c 128,-1,21
 166 484 166 484 164 356 c 1,22,23
 196 404 196 404 237 426 c 128,-1,24
 278 448 278 448 330 448 c 0,25,0
 384 448 384 448 428.5 424 c 128,-1,1
405.5 102.5 m 128,-1,27
 439 148 439 148 439 229 c 0,28,29
 439 380 439 380 317 380 c 0,30,31
 269 380 269 380 230.5 353.5 c 128,-1,32
 192 327 192 327 165 282 c 1,33,34
 167 165 167 165 201 111 c 128,-1,35
 235 57 235 57 308 57 c 0,36,26
 372 57 372 57 405.5 102.5 c 128,-1,27
EndSplineSet
EndChar
StartChar: seven
Encoding: 55 55 905
Width: 600
Flags: W
LayerCount: 2
Fore
SplineSet
152 14 m 1,0,-1
 420 619 l 1,1,-1
 97 619 l 1,2,-1
 97 689 l 1,3,-1
 505 689 l 1,4,-1
 505 624 l 1,5,-1
 230 -9 l 1,6,-1
 152 14 l 1,0,-1
EndSplineSet
EndChar
StartChar: less
Encoding: 60 60 1092
Width: 600
Flags: W
LayerCount: 2
Fore
SplineSet
513 530 m 1,0,-1
 160 313 l 1,1,-1
 513 94 l 1,2,-1
 468 33 l 1,3,-1
 88 270 l 1,4,-1
 88 357 l 1,5,-1
 472 594 l 1,6,-1
 513 530 l 1,0,-1
EndSplineSet
EndChar
StartChar: equal
Encoding: 61 61 1081
Width: 600
Flags: W
LayerCount: 2
Fore
SplineSet
494 370 m 1,0,-1
 106 370 l 1,1,-1
 106 442 l 1,2,-1
 494 442 l 1,3,-1
 494 370 l 1,0,-1
494 180 m 1,4,-1
 106 180 l 1,5,-1
 106 252 l 1,6,-1
 494 252 l 1,7,-1
 494 180 l 1,4,-1
EndSplineSet
EndChar
StartChar: greater
Encoding: 62 62 1085
Width: 600
Flags: W
LayerCount: 2
Fore
SplineSet
513 356 m 1,0,-1
 513 270 l 1,1,-1
 133 33 l 1,2,-1
 88 95 l 1,3,-1
 441 313 l 1,4,-1
 88 530 l 1,5,-1
 129 594 l 1,6,-1
 513 356 l 1,0,-1
EndSplineSet
EndChar
StartChar: question
Encoding: 63 63 988
Width: 600
Flags: W
LayerCount: 2
Fore
SplineSet
403 678 m 128,-1,1
 448 656 448 656 472.5 620.5 c 128,-1,2
 497 585 497 585 497 545 c 0,3,4
 497 507 497 507 484.5 480 c 128,-1,5
 472 453 472 453 453.5 435.5 c 128,-1,6
 435 418 435 418 404 396 c 0,7,8
 374 375 374 375 357 359 c 128,-1,9
 340 343 340 343 328 319 c 128,-1,10
 316 295 316 295 316 261 c 2,11,-1
 316 227 l 1,12,-1
 232 227 l 1,13,-1
 232 266 l 2,14,15
 232 307 232 307 246 337 c 128,-1,16
 260 367 260 367 280 386 c 128,-1,17
 300 405 300 405 332 430 c 0,18,19
 372 461 372 461 390.5 483.5 c 128,-1,20
 409 506 409 506 409 540 c 0,21,22
 409 582 409 582 376 606 c 128,-1,23
 343 630 343 630 291 630 c 0,24,25
 254 630 254 630 216.5 611.5 c 128,-1,26
 179 593 179 593 149 556 c 1,27,-1
 90 601 l 1,28,29
 174 700 174 700 299 700 c 0,30,0
 358 700 358 700 403 678 c 128,-1,1
325 103.5 m 128,-1,32
 344 84 344 84 344 56 c 0,33,34
 344 27 344 27 325 8 c 128,-1,35
 306 -11 306 -11 277 -11 c 0,36,37
 249 -11 249 -11 229.5 8.5 c 128,-1,38
 210 28 210 28 210 56 c 256,39,40
 210 84 210 84 229.5 103.5 c 128,-1,41
 249 123 249 123 277 123 c 0,42,31
 306 123 306 123 325 103.5 c 128,-1,32
EndSplineSet
EndChar
StartChar: B
Encoding: 66 66 16
Width: 600
Flags: W
LayerCount: 2
Fore
SplineSet
465.5 46 m 128,-1,1
 391 0 391 0 282 0 c 2,2,-1
 96 0 l 1,3,-1
 96 689 l 1,4,-1
 266 689 l 2,5,6
 371 689 371 689 440.5 648.5 c 128,-1,7
 510 608 510 608 510 515 c 0,8,9
 510 453 510 453 473 415.5 c 128,-1,10
 436 378 436 378 381 365 c 1,11,12
 540 338 540 338 540 196 c 0,13,0
 540 92 540 92 465.5 46 c 128,-1,1
386 592.5 m 128,-1,15
 351 618 351 618 286 618 c 2,16,-1
 183 618 l 1,17,-1
 183 396 l 1,18,-1
 294 396 l 2,19,20
 421 396 421 396 421 510 c 0,21,14
 421 567 421 567 386 592.5 c 128,-1,15
408.5 295 m 128,-1,23
 369 324 369 324 300 324 c 2,24,-1
 183 324 l 1,25,-1
 183 72 l 1,26,-1
 297 72 l 2,27,28
 360 72 360 72 404 98 c 128,-1,29
 448 124 448 124 448 193 c 0,30,22
 448 266 448 266 408.5 295 c 128,-1,23
EndSplineSet
EndChar
StartChar: F
Encoding: 70 70 37
Width: 600
Flags: W
LayerCount: 2
Fore
SplineSet
225 376 m 1,0,-1
 495 376 l 1,1,-1
 495 306 l 1,2,-1
 225 306 l 1,3,-1
 225 0 l 1,4,-1
 138 0 l 1,5,-1
 138 689 l 1,6,-1
 544 689 l 1,7,-1
 534 617 l 1,8,-1
 225 617 l 1,9,-1
 225 376 l 1,0,-1
EndSplineSet
EndChar
StartChar: G
Encoding: 71 71 38
Width: 600
Flags: W
LayerCount: 2
Fore
SplineSet
116.5 79.5 m 128,-1,1
 45 170 45 170 45 345 c 0,2,3
 45 459 45 459 85 539 c 128,-1,4
 125 619 125 619 191 659.5 c 128,-1,5
 257 700 257 700 334 700 c 0,6,7
 399 700 399 700 443 682 c 128,-1,8
 487 664 487 664 530 624 c 1,9,-1
 478 570 l 1,10,11
 446 599 446 599 411.5 613 c 128,-1,12
 377 627 377 627 334 627 c 0,13,14
 250 627 250 627 194 560 c 128,-1,15
 138 493 138 493 138 345 c 0,16,17
 138 198 138 198 183.5 130 c 128,-1,18
 229 62 229 62 321 62 c 0,19,20
 394 62 394 62 452 95 c 1,21,-1
 452 304 l 1,22,-1
 317 304 l 1,23,-1
 307 377 l 1,24,-1
 539 377 l 1,25,-1
 539 49 l 1,26,27
 487 20 487 20 434.5 4.5 c 128,-1,28
 382 -11 382 -11 314 -11 c 0,29,0
 188 -11 188 -11 116.5 79.5 c 128,-1,1
EndSplineSet
EndChar
StartChar: H
Encoding: 72 72 43
Width: 600
Flags: W
LayerCount: 2
Fore
SplineSet
430 327 m 1,0,-1
 170 327 l 1,1,-1
 170 0 l 1,2,-1
 83 0 l 1,3,-1
 83 689 l 1,4,-1
 170 689 l 1,5,-1
 170 398 l 1,6,-1
 430 398 l 1,7,-1
 430 689 l 1,8,-1
 517 689 l 1,9,-1
 517 0 l 1,10,-1
 430 0 l 1,11,-1
 430 327 l 1,0,-1
EndSplineSet
EndChar
StartChar: J
Encoding: 74 74 57
Width: 600
Flags: W
LayerCount: 2
Fore
SplineSet
497 229 m 2,0,1
 497 128 497 128 441.5 58 c 128,-1,2
 386 -12 386 -12 261 -12 c 0,3,4
 210 -12 210 -12 161.5 4 c 128,-1,5
 113 20 113 20 73 51 c 1,6,-1
 111 108 l 1,7,8
 186 61 186 61 260 61 c 0,9,10
 332 61 332 61 371 106.5 c 128,-1,11
 410 152 410 152 410 233 c 2,12,-1
 410 618 l 1,13,-1
 206 618 l 1,14,-1
 206 689 l 1,15,-1
 497 689 l 1,16,-1
 497 229 l 2,0,1
EndSplineSet
EndChar
StartChar: L
Encoding: 76 76 61
Width: 600
Flags: W
LayerCount: 2
Fore
SplineSet
136 689 m 1,0,-1
 222 689 l 1,1,-1
 222 77 l 1,2,-1
 537 77 l 1,3,-1
 526 0 l 1,4,-1
 136 0 l 1,5,-1
 136 689 l 1,0,-1
EndSplineSet
EndChar
StartChar: M
Encoding: 77 77 67
Width: 600
Flags: W
LayerCount: 2
Fore
SplineSet
570 0 m 1,0,-1
 486 0 l 1,1,-1
 465 360 l 2,2,3
 459 455 459 455 459 609 c 1,4,-1
 343 124 l 1,5,-1
 256 124 l 1,6,-1
 132 609 l 1,7,8
 134 573 134 573 134 513 c 0,9,10
 134 421 134 421 130 360 c 2,11,-1
 112 0 l 1,12,-1
 30 0 l 1,13,-1
 69 689 l 1,14,-1
 190 689 l 1,15,-1
 302 217 l 1,16,-1
 409 689 l 1,17,-1
 531 689 l 1,18,-1
 570 0 l 1,0,-1
EndSplineSet
EndChar
StartChar: N
Encoding: 78 78 68
Width: 600
Flags: W
LayerCount: 2
Fore
SplineSet
152 605 m 1,0,1
 152 598 152 598 158 518 c 128,-1,2
 164 438 164 438 164 345 c 2,3,-1
 164 0 l 1,4,-1
 83 0 l 1,5,-1
 83 689 l 1,6,-1
 201 689 l 1,7,-1
 448 81 l 1,8,-1
 446 117 l 1,9,10
 436 240 436 240 436 344 c 2,11,-1
 436 689 l 1,12,-1
 517 689 l 1,13,-1
 517 0 l 1,14,-1
 395 0 l 1,15,-1
 152 605 l 1,0,1
EndSplineSet
EndChar
StartChar: W
Encoding: 87 87 116
Width: 600
Flags: W
LayerCount: 2
Fore
SplineSet
491 0 m 1,0,-1
 377 0 l 1,1,-1
 298 520 l 1,2,-1
 218 0 l 1,3,-1
 101 0 l 1,4,-1
 5 689 l 1,5,-1
 92 689 l 1,6,-1
 165 95 l 1,7,-1
 248 609 l 1,8,-1
 354 609 l 1,9,-1
 433 95 l 1,10,-1
 515 689 l 1,11,-1
 595 689 l 1,12,-1
 491 0 l 1,0,-1
EndSplineSet
EndChar
StartChar: X
Encoding: 88 88 121
Width: 600
Flags: W
LayerCount: 2
Fore
SplineSet
149 689 m 1,0,-1
 300 424 l 1,1,-1
 452 689 l 1,2,-1
 545 689 l 1,3,-1
 350 372 l 1,4,-1
 569 0 l 1,5,-1
 469 0 l 1,6,-1
 298 311 l 1,7,-1
 124 0 l 1,8,-1
 31 0 l 1,9,-1
 247 367 l 1,10,-1
 49 689 l 1,11,-1
 149 689 l 1,0,-1
EndSplineSet
EndChar
StartChar: bracketright
Encoding: 93 93 1005
Width: 600
Flags: W
LayerCount: 2
Fore
SplineSet
416 -115 m 1,0,-1
 165 -115 l 1,1,-1
 165 -44 l 1,2,-1
 336 -44 l 1,3,-1
 336 743 l 1,4,-1
 165 743 l 1,5,-1
 165 815 l 1,6,-1
 416 815 l 1,7,-1
 416 -115 l 1,0,-1
EndSplineSet
EndChar
StartChar: underscore
Encoding: 95 95 995
Width: 600
Flags: W
LayerCount: 2
Fore
SplineSet
50 -108 m 1,0,-1
 550 -108 l 1,1,-1
 550 -182 l 1,2,-1
 50 -182 l 1,3,-1
 50 -108 l 1,0,-1
EndSplineSet
EndChar
StartChar: a
Encoding: 97 97 136
Width: 600
Flags: W
LayerCount: 2
Fore
SplineSet
488 69.5 m 128,-1,1
 498 55 498 55 521 48 c 1,2,-1
 500 -12 l 1,3,4
 423 -2 423 -2 404 63 c 1,5,6
 376 27 376 27 333.5 8 c 128,-1,7
 291 -11 291 -11 239 -11 c 0,8,9
 160 -11 160 -11 114.5 33 c 128,-1,10
 69 77 69 77 69 151 c 0,11,12
 69 232 69 232 132.5 276 c 128,-1,13
 196 320 196 320 315 320 c 2,14,-1
 393 320 l 1,15,-1
 393 363 l 2,16,17
 393 419 393 419 361 443.5 c 128,-1,18
 329 468 329 468 268 468 c 0,19,20
 208 468 208 468 131 441 c 1,21,-1
 108 505 l 1,22,23
 201 538 201 538 281 538 c 0,24,25
 377 538 377 538 427.5 493 c 128,-1,26
 478 448 478 448 478 368 c 2,27,-1
 478 115 l 2,28,0
 478 84 478 84 488 69.5 c 128,-1,1
334.5 72 m 128,-1,30
 370 92 370 92 393 127 c 1,31,-1
 393 262 l 1,32,-1
 317 262 l 2,33,34
 233 262 233 262 196 234 c 128,-1,35
 159 206 159 206 159 152 c 0,36,37
 159 52 159 52 260 52 c 0,38,29
 299 52 299 52 334.5 72 c 128,-1,30
EndSplineSet
EndChar
StartChar: c
Encoding: 99 99 149
Width: 600
Flags: W
LayerCount: 2
Fore
SplineSet
476 107 m 1,1,-1
 516 52 l 1,2,3
 483 23 483 23 434 6 c 128,-1,4
 385 -11 385 -11 339 -11 c 0,5,6
 222 -11 222 -11 156.5 62.5 c 128,-1,7
 91 136 91 136 91 261 c 0,8,9
 91 340 91 340 120.5 403 c 128,-1,10
 150 466 150 466 206 502 c 128,-1,11
 262 538 262 538 339 538 c 0,12,13
 441 538 441 538 515 476 c 1,14,-1
 474 421 l 1,15,16
 405 467 405 467 338 467 c 0,17,18
 267 467 267 467 224.5 414.5 c 128,-1,19
 182 362 182 362 182 261 c 256,20,21
 182 160 182 160 224.5 110.5 c 128,-1,22
 267 61 267 61 339 61 c 0,23,0
 408 61 408 61 476 107 c 1,1,-1
EndSplineSet
EndChar
StartChar: g
Encoding: 103 103 170
Width: 600
Flags: W
LayerCount: 2
Fore
SplineSet
554 503 m 1,0,1
 524 493 524 493 489 490.5 c 128,-1,2
 454 488 454 488 400 488 c 1,3,4
 492 446 492 446 492 355 c 0,5,6
 492 275 492 275 439 225.5 c 128,-1,7
 386 176 386 176 294 176 c 0,8,9
 247 176 247 176 215 187 c 1,10,11
 203 178 203 178 195.5 164 c 128,-1,12
 188 150 188 150 188 136 c 0,13,14
 188 91 188 91 258 91 c 2,15,-1
 353 91 l 2,16,17
 405 91 405 91 447.5 72.5 c 128,-1,18
 490 54 490 54 514.5 21 c 128,-1,19
 539 -12 539 -12 539 -52 c 0,20,21
 539 -129 539 -129 473.5 -170.5 c 128,-1,22
 408 -212 408 -212 288 -212 c 0,23,24
 166 -212 166 -212 116 -174 c 128,-1,25
 66 -136 66 -136 66 -53 c 1,26,-1
 142 -53 l 1,27,28
 142 -86 142 -86 154.5 -105.5 c 128,-1,29
 167 -125 167 -125 198.5 -134.5 c 128,-1,30
 230 -144 230 -144 288 -144 c 0,31,32
 373 -144 373 -144 413.5 -122 c 128,-1,33
 454 -100 454 -100 454 -57 c 0,34,35
 454 -21 454 -21 421 -1.5 c 128,-1,36
 388 18 388 18 336 18 c 2,37,-1
 242 18 l 2,38,39
 177 18 177 18 143 46.5 c 128,-1,40
 109 75 109 75 109 118 c 0,41,42
 109 143 109 143 124 167.5 c 128,-1,43
 139 192 139 192 167 210 c 1,44,45
 122 233 122 233 100.5 268.5 c 128,-1,46
 79 304 79 304 79 355 c 0,47,48
 79 408 79 408 105.5 449.5 c 128,-1,49
 132 491 132 491 179.5 514.5 c 128,-1,50
 227 538 227 538 289 538 c 0,51,52
 379 538 379 538 426 548 c 128,-1,53
 473 558 473 558 529 582 c 1,54,-1
 554 503 l 1,0,1
196 443.5 m 128,-1,56
 165 411 165 411 165 355 c 256,57,58
 165 299 165 299 196.5 265.5 c 128,-1,59
 228 232 228 232 290 232 c 0,60,61
 346 232 346 232 375.5 264.5 c 128,-1,62
 405 297 405 297 405 356 c 0,63,64
 405 476 405 476 288 476 c 0,65,55
 227 476 227 476 196 443.5 c 128,-1,56
EndSplineSet
EndChar
StartChar: i
Encoding: 105 105 178
Width: 600
Flags: W
LayerCount: 2
Fore
SplineSet
345 756.5 m 128,-1,1
 362 740 362 740 362 714 c 256,2,3
 362 688 362 688 345 671.5 c 128,-1,4
 328 655 328 655 300 655 c 0,5,6
 273 655 273 655 256.5 671.5 c 128,-1,7
 240 688 240 688 240 714 c 256,8,9
 240 740 240 740 256.5 756.5 c 128,-1,10
 273 773 273 773 300 773 c 0,11,0
 328 773 328 773 345 756.5 c 128,-1,1
367 67 m 1,12,-1
 515 67 l 1,13,-1
 515 0 l 1,14,-1
 121 0 l 1,15,-1
 121 67 l 1,16,-1
 283 67 l 1,17,-1
 283 460 l 1,18,-1
 126 460 l 1,19,-1
 126 527 l 1,20,-1
 367 527 l 1,21,-1
 367 67 l 1,12,-1
EndSplineSet
EndChar
StartChar: j
Encoding: 106 106 190
Width: 600
Flags: W
LayerCount: 2
Fore
SplineSet
411 756.5 m 128,-1,1
 428 740 428 740 428 714 c 256,2,3
 428 688 428 688 411 671.5 c 128,-1,4
 394 655 394 655 367 655 c 256,5,6
 340 655 340 655 323 671.5 c 128,-1,7
 306 688 306 688 306 714 c 256,8,9
 306 740 306 740 323 756.5 c 128,-1,10
 340 773 340 773 367 773 c 256,11,0
 394 773 394 773 411 756.5 c 128,-1,1
445 84 m 2,12,13
 445 -43 445 -43 360.5 -113.5 c 128,-1,14
 276 -184 276 -184 110 -212 c 1,15,-1
 96 -147 l 1,16,17
 223 -126 223 -126 292 -73.5 c 128,-1,18
 361 -21 361 -21 361 79 c 2,19,-1
 361 460 l 1,20,-1
 142 460 l 1,21,-1
 142 527 l 1,22,-1
 445 527 l 1,23,-1
 445 84 l 2,12,13
EndSplineSet
EndChar
StartChar: l
Encoding: 108 108 196
Width: 600
Flags: W
LayerCount: 2
Fore
SplineSet
306 130 m 2,0,1
 306 59 306 59 393 59 c 0,2,3
 434 59 434 59 481 77 c 1,4,-1
 503 16 l 1,5,6
 453 -11 453 -11 378 -11 c 0,7,8
 307 -11 307 -11 264.5 28 c 128,-1,9
 222 67 222 67 222 134 c 2,10,-1
 222 672 l 1,11,-1
 60 672 l 1,12,-1
 60 739 l 1,13,-1
 306 739 l 1,14,-1
 306 130 l 2,0,1
EndSplineSet
EndChar
StartChar: m
Encoding: 109 109 202
Width: 600
Flags: W
LayerCount: 2
Fore
SplineSet
520.5 506.5 m 128,-1,1
 549 475 549 475 549 392 c 2,2,-1
 549 0 l 1,3,-1
 472 0 l 1,4,-1
 472 378 l 2,5,6
 472 433 472 433 465 452.5 c 128,-1,7
 458 472 458 472 431 472 c 0,8,9
 380 472 380 472 339 409 c 1,10,-1
 339 0 l 1,11,-1
 261 0 l 1,12,-1
 261 378 l 2,13,14
 261 433 261 433 254 452.5 c 128,-1,15
 247 472 247 472 220 472 c 0,16,17
 169 472 169 472 128 409 c 1,18,-1
 128 0 l 1,19,-1
 51 0 l 1,20,-1
 51 527 l 1,21,-1
 116 527 l 1,22,-1
 122 465 l 1,23,24
 146 500 146 500 172.5 519 c 128,-1,25
 199 538 199 538 236 538 c 0,26,27
 310 538 310 538 331 468 c 1,28,29
 355 502 355 502 382 520 c 128,-1,30
 409 538 409 538 447 538 c 0,31,0
 492 538 492 538 520.5 506.5 c 128,-1,1
EndSplineSet
EndChar
StartChar: n
Encoding: 110 110 203
Width: 600
Flags: W
LayerCount: 2
Fore
SplineSet
100 527 m 1,0,-1
 172 527 l 1,1,-1
 179 453 l 1,2,3
 210 493 210 493 257.5 515.5 c 128,-1,4
 305 538 305 538 353 538 c 0,5,6
 501 538 501 538 501 382 c 2,7,-1
 501 0 l 1,8,-1
 417 0 l 1,9,-1
 417 320 l 2,10,11
 417 379 417 379 410.5 410 c 128,-1,12
 404 441 404 441 385 456 c 128,-1,13
 366 471 366 471 327 471 c 0,14,15
 284 471 284 471 246 445 c 128,-1,16
 208 419 208 419 184 383 c 1,17,-1
 184 0 l 1,18,-1
 100 0 l 1,19,-1
 100 527 l 1,0,-1
EndSplineSet
EndChar
StartChar: o
Encoding: 111 111 210
Width: 600
Flags: W
LayerCount: 2
Fore
SplineSet
468.5 464.5 m 128,-1,1
 527 391 527 391 527 264 c 0,2,3
 527 140 527 140 467.5 64.5 c 128,-1,4
 408 -11 408 -11 300 -11 c 0,5,6
 191 -11 191 -11 132 62.5 c 128,-1,7
 73 136 73 136 73 263 c 0,8,9
 73 388 73 388 132.5 463 c 128,-1,10
 192 538 192 538 301 538 c 256,11,0
 410 538 410 538 468.5 464.5 c 128,-1,1
198 418 m 128,-1,13
 164 367 164 367 164 263 c 256,14,15
 164 159 164 159 197.5 108.5 c 128,-1,16
 231 58 231 58 300 58 c 256,17,18
 369 58 369 58 402.5 108.5 c 128,-1,19
 436 159 436 159 436 264 c 0,20,21
 436 368 436 368 402.5 418.5 c 128,-1,22
 369 469 369 469 301 469 c 0,23,12
 232 469 232 469 198 418 c 128,-1,13
EndSplineSet
EndChar
StartChar: p
Encoding: 112 112 222
Width: 600
Flags: W
LayerCount: 2
Fore
SplineSet
527 264 m 0,1,2
 527 139 527 139 475 64 c 128,-1,3
 423 -11 423 -11 324 -11 c 0,4,5
 238 -11 238 -11 184 49 c 1,6,-1
 184 -202 l 1,7,-1
 100 -212 l 1,8,-1
 100 527 l 1,9,-1
 172 527 l 1,10,-1
 179 453 l 1,11,12
 208 494 208 494 248.5 516 c 128,-1,13
 289 538 289 538 336 538 c 0,14,0
 527 538 527 538 527 264 c 0,1,2
242.5 446 m 128,-1,16
 209 422 209 422 184 386 c 1,17,-1
 184 125 l 1,18,19
 205 94 205 94 236.5 76.5 c 128,-1,20
 268 59 268 59 305 59 c 0,21,22
 371 59 371 59 403.5 109.5 c 128,-1,23
 436 160 436 160 436 264 c 256,24,25
 436 368 436 368 407 419 c 128,-1,26
 378 470 378 470 316 470 c 0,27,15
 276 470 276 470 242.5 446 c 128,-1,16
EndSplineSet
EndChar
StartChar: q
Encoding: 113 113 224
Width: 600
Flags: W
LayerCount: 2
Fore
SplineSet
421 469 m 1,1,-1
 428 527 l 1,2,-1
 500 527 l 1,3,-1
 500 -212 l 1,4,-1
 416 -202 l 1,5,-1
 416 66 l 1,6,7
 360 -11 360 -11 267 -11 c 0,8,9
 73 -11 73 -11 73 263 c 0,10,11
 73 385 73 385 126 461.5 c 128,-1,12
 179 538 179 538 274 538 c 0,13,0
 366 538 366 538 421 469 c 1,1,-1
164 263 m 0,15,16
 164 160 164 160 194 109.5 c 128,-1,17
 224 59 224 59 285 59 c 0,18,19
 326 59 326 59 359 81.5 c 128,-1,20
 392 104 392 104 416 140 c 1,21,-1
 416 402 l 1,22,23
 395 434 395 434 363.5 452 c 128,-1,24
 332 470 332 470 295 470 c 0,25,14
 164 470 164 470 164 263 c 0,15,16
EndSplineSet
EndChar
StartChar: s
Encoding: 115 115 229
Width: 600
Flags: W
LayerCount: 2
Fore
SplineSet
375 81 m 128,-1,1
 410 104 410 104 410 142 c 0,2,3
 410 168 410 168 401 184.5 c 128,-1,4
 392 201 392 201 365 214.5 c 128,-1,5
 338 228 338 228 283 242 c 0,6,7
 191 265 191 265 147 297.5 c 128,-1,8
 103 330 103 330 103 394 c 0,9,10
 103 460 103 460 158 499 c 128,-1,11
 213 538 213 538 303 538 c 0,12,13
 413 538 413 538 495 480 c 1,14,-1
 457 422 l 1,15,16
 424 445 424 445 388 457.5 c 128,-1,17
 352 470 352 470 305 470 c 0,18,19
 191 470 191 470 191 401 c 0,20,21
 191 377 191 377 203.5 362 c 128,-1,22
 216 347 216 347 244.5 335.5 c 128,-1,23
 273 324 273 324 330 308 c 0,24,25
 416 285 416 285 458.5 249.5 c 128,-1,26
 501 214 501 214 501 146 c 0,27,28
 501 67 501 67 437 28 c 128,-1,29
 373 -11 373 -11 280 -11 c 0,30,31
 156 -11 156 -11 74 60 c 1,32,-1
 121 115 l 1,33,34
 153 89 153 89 194 73.5 c 128,-1,35
 235 58 235 58 280 58 c 0,36,0
 340 58 340 58 375 81 c 128,-1,1
EndSplineSet
EndChar
StartChar: u
Encoding: 117 117 241
Width: 600
Flags: W
LayerCount: 2
Fore
SplineSet
184 153 m 2,0,1
 184 102 184 102 205.5 78.5 c 128,-1,2
 227 55 227 55 273 55 c 0,3,4
 315 55 315 55 354 79 c 128,-1,5
 393 103 393 103 416 139 c 1,6,-1
 416 527 l 1,7,-1
 500 527 l 1,8,-1
 500 0 l 1,9,-1
 428 0 l 1,10,-1
 421 71 l 1,11,12
 390 32 390 32 344.5 10.5 c 128,-1,13
 299 -11 299 -11 252 -11 c 0,14,15
 177 -11 177 -11 138.5 29 c 128,-1,16
 100 69 100 69 100 144 c 2,17,-1
 100 527 l 1,18,-1
 184 527 l 1,19,-1
 184 153 l 2,0,1
EndSplineSet
EndChar
StartChar: x
Encoding: 120 120 258
Width: 600
Flags: W
LayerCount: 2
Fore
SplineSet
56 0 m 1,0,-1
 250 278 l 1,1,-1
 79 527 l 1,2,-1
 179 527 l 1,3,-1
 301 331 l 1,4,-1
 424 527 l 1,5,-1
 521 527 l 1,6,-1
 350 282 l 1,7,-1
 544 0 l 1,8,-1
 442 0 l 1,9,-1
 297 226 l 1,10,-1
 152 0 l 1,11,-1
 56 0 l 1,0,-1
EndSplineSet
EndChar
StartChar: y
Encoding: 121 121 259
Width: 600
Flags: W
LayerCount: 2
Fore
SplineSet
354 -3 m 2,0,1
 323 -94 323 -94 269 -148 c 128,-1,2
 215 -202 215 -202 118 -212 c 1,3,-1
 106 -145 l 1,4,5
 159 -136 159 -136 190.5 -117.5 c 128,-1,6
 222 -99 222 -99 240 -71.5 c 128,-1,7
 258 -44 258 -44 273 0 c 1,8,-1
 245 0 l 1,9,-1
 62 527 l 1,10,-1
 151 527 l 1,11,-1
 302 64 l 1,12,-1
 451 527 l 1,13,-1
 538 527 l 1,14,-1
 354 -3 l 2,0,1
EndSplineSet
EndChar
StartChar: exclamdown
Encoding: 161 161 985
Width: 600
Flags: W
LayerCount: 2
Fore
SplineSet
346.5 479 m 128,-1,1
 366 459 366 459 366 431 c 256,2,3
 366 403 366 403 346.5 384 c 128,-1,4
 327 365 327 365 299 365 c 256,5,6
 271 365 271 365 251.5 384 c 128,-1,7
 232 403 232 403 232 431 c 0,8,9
 232 460 232 460 251.5 479.5 c 128,-1,10
 271 499 271 499 299 499 c 256,11,0
 327 499 327 499 346.5 479 c 128,-1,1
348 -197 m 1,12,-1
 251 -197 l 1,13,-1
 263 260 l 1,14,-1
 335 260 l 1,15,-1
 348 -197 l 1,12,-1
EndSplineSet
EndChar
StartChar: cent
Encoding: 162 162 1055
Width: 600
Flags: W
LayerCount: 2
Fore
SplineSet
373 533 m 1,0,1
 441 525 441 525 494 482 c 1,2,-1
 452 426 l 1,3,4
 420 449 420 449 393.5 458 c 128,-1,5
 367 467 367 467 336 467 c 0,6,7
 269 467 269 467 233 415 c 128,-1,8
 197 363 197 363 197 261 c 256,9,10
 197 159 197 159 233 110 c 128,-1,11
 269 61 269 61 336 61 c 0,12,13
 367 61 367 61 394.5 71 c 128,-1,14
 422 81 422 81 453 106 c 1,15,-1
 494 46 l 1,16,17
 442 2 442 2 373 -6 c 1,18,-1
 373 -153 l 1,19,-1
 298 -153 l 1,20,-1
 298 -6 l 1,21,22
 204 6 204 6 155 76 c 128,-1,23
 106 146 106 146 106 261 c 0,24,25
 106 372 106 372 155.5 445.5 c 128,-1,26
 205 519 205 519 299 532 c 1,27,-1
 299 683 l 1,28,-1
 373 683 l 1,29,-1
 373 533 l 1,0,1
EndSplineSet
EndChar
StartChar: yen
Encoding: 165 165 1065
Width: 600
Flags: W
LayerCount: 2
Fore
SplineSet
367 345 m 1,0,-1
 486 345 l 1,1,-1
 486 287 l 1,2,-1
 344 287 l 1,3,-1
 344 201 l 1,4,-1
 486 201 l 1,5,-1
 486 142 l 1,6,-1
 344 142 l 1,7,-1
 344 0 l 1,8,-1
 256 0 l 1,9,-1
 256 142 l 1,10,-1
 116 142 l 1,11,-1
 116 201 l 1,12,-1
 256 201 l 1,13,-1
 256 287 l 1,14,-1
 116 287 l 1,15,-1
 116 345 l 1,16,-1
 232 345 l 1,17,-1
 39 689 l 1,18,-1
 135 689 l 1,19,-1
 301 372 l 1,20,-1
 305 372 l 1,21,-1
 472 689 l 1,22,-1
 561 689 l 1,23,-1
 367 345 l 1,0,-1
EndSplineSet
EndChar
StartChar: brokenbar
Encoding: 166 166 1376
Width: 600
Flags: W
LayerCount: 2
Fore
SplineSet
337 452 m 1,0,-1
 262 452 l 1,1,-1
 262 807 l 1,2,-1
 337 807 l 1,3,-1
 337 452 l 1,0,-1
337 -102 m 1,4,-1
 262 -102 l 1,5,-1
 262 253 l 1,6,-1
 337 253 l 1,7,-1
 337 -102 l 1,4,-1
EndSplineSet
EndChar
StartChar: dieresis
Encoding: 168 168 1433
Width: 600
Flags: W
LayerCount: 2
Fore
SplineSet
157 663.5 m 128,-1,1
 141 679 141 679 141 701 c 0,2,3
 141 725 141 725 157 740.5 c 128,-1,4
 173 756 173 756 196 756 c 256,5,6
 219 756 219 756 234.5 740.5 c 128,-1,7
 250 725 250 725 250 701 c 0,8,9
 250 678 250 678 234.5 663 c 128,-1,10
 219 648 219 648 196 648 c 256,11,0
 173 648 173 648 157 663.5 c 128,-1,1
364.5 663 m 128,-1,13
 349 678 349 678 349 701 c 0,14,15
 349 725 349 725 364.5 740.5 c 128,-1,16
 380 756 380 756 403 756 c 256,17,18
 426 756 426 756 442 740.5 c 128,-1,19
 458 725 458 725 458 701 c 0,20,21
 458 679 458 679 442 663.5 c 128,-1,22
 426 648 426 648 403 648 c 256,23,12
 380 648 380 648 364.5 663 c 128,-1,13
EndSplineSet
EndChar
StartChar: ordfeminine
Encoding: 170 170 275
Width: 600
Flags: W
LayerCount: 2
Fore
SplineSet
414 712.5 m 128,-1,1
 456 676 456 676 456 609 c 2,2,-1
 456 412 l 2,3,4
 456 390 456 390 464 378 c 128,-1,5
 472 366 472 366 490 361 c 1,6,-1
 471 307 l 1,7,8
 439 311 439 311 418.5 325 c 128,-1,9
 398 339 398 339 388 366 c 1,10,11
 364 338 364 338 328.5 322.5 c 128,-1,12
 293 307 293 307 254 307 c 0,13,14
 186 307 186 307 144 343.5 c 128,-1,15
 102 380 102 380 102 440 c 0,16,17
 102 506 102 506 159 541.5 c 128,-1,18
 216 577 216 577 319 577 c 2,19,-1
 378 577 l 1,20,-1
 378 606 l 2,21,22
 378 685 378 685 279 685 c 0,23,24
 224 685 224 685 157 660 c 1,25,-1
 134 719 l 1,26,27
 214 749 214 749 290 749 c 0,28,0
 372 749 372 749 414 712.5 c 128,-1,1
320 520 m 2,29,30
 187 520 187 520 187 444 c 0,31,32
 187 406 187 406 209 386.5 c 128,-1,33
 231 367 231 367 273 367 c 0,34,35
 303 367 303 367 330.5 382 c 128,-1,36
 358 397 358 397 378 423 c 1,37,-1
 378 520 l 1,38,-1
 320 520 l 2,29,30
498 0 m 1,39,-1
 106 0 l 1,40,-1
 106 75 l 1,41,-1
 498 75 l 1,42,-1
 498 0 l 1,39,-1
EndSplineSet
EndChar
StartChar: logicalnot
Encoding: 172 172 1094
Width: 600
Flags: W
LayerCount: 2
Fore
SplineSet
484 134 m 1,0,-1
 407 134 l 1,1,-1
 407 276 l 1,2,-1
 116 276 l 1,3,-1
 116 348 l 1,4,-1
 484 348 l 1,5,-1
 484 134 l 1,0,-1
EndSplineSet
EndChar
StartChar: periodcentered
Encoding: 183 183 979
Width: 600
Flags: W
LayerCount: 2
Fore
SplineSet
236.5 404 m 128,-1,1
 262 429 262 429 299 429 c 0,2,3
 337 429 337 429 362 404 c 128,-1,4
 387 379 387 379 387 342 c 0,5,6
 387 304 387 304 362 278.5 c 128,-1,7
 337 253 337 253 299 253 c 0,8,9
 262 253 262 253 236.5 278.5 c 128,-1,10
 211 304 211 304 211 342 c 0,11,0
 211 379 211 379 236.5 404 c 128,-1,1
EndSplineSet
EndChar
StartChar: cedilla
Encoding: 184 184 1431
Width: 600
Flags: W
LayerCount: 2
Fore
SplineSet
319 -106 m 128,-1,1
 298 -97 298 -97 254 -97 c 1,2,-1
 262 16 l 1,3,-1
 320 16 l 1,4,-1
 320 -57 l 1,5,6
 366 -61 366 -61 389.5 -84.5 c 128,-1,7
 413 -108 413 -108 413 -140 c 0,8,9
 413 -187 413 -187 377.5 -212.5 c 128,-1,10
 342 -238 342 -238 291 -238 c 0,11,12
 261 -238 261 -238 233.5 -231.5 c 128,-1,13
 206 -225 206 -225 186 -214 c 1,14,-1
 213 -166 l 1,15,16
 243 -182 243 -182 280 -182 c 0,17,18
 340 -182 340 -182 340 -141 c 0,19,0
 340 -115 340 -115 319 -106 c 128,-1,1
EndSplineSet
EndChar
StartChar: ordmasculine
Encoding: 186 186 276
Width: 600
Flags: W
LayerCount: 2
Fore
SplineSet
448.5 689.5 m 128,-1,1
 503 630 503 630 503 529 c 0,2,3
 503 464 503 464 478 413.5 c 128,-1,4
 453 363 453 363 407 335 c 128,-1,5
 361 307 361 307 300 307 c 0,6,7
 207 307 207 307 151.5 367.5 c 128,-1,8
 96 428 96 428 96 529 c 0,9,10
 96 594 96 594 121.5 643.5 c 128,-1,11
 147 693 147 693 193 721 c 128,-1,12
 239 749 239 749 300 749 c 0,13,0
 394 749 394 749 448.5 689.5 c 128,-1,1
212 646 m 128,-1,15
 180 607 180 607 180 529 c 0,16,17
 180 450 180 450 211.5 411 c 128,-1,18
 243 372 243 372 300 372 c 0,19,20
 356 372 356 372 387.5 411 c 128,-1,21
 419 450 419 450 419 529 c 0,22,23
 419 607 419 607 387.5 646 c 128,-1,24
 356 685 356 685 300 685 c 256,25,14
 244 685 244 685 212 646 c 128,-1,15
497 0 m 1,26,-1
 104 0 l 1,27,-1
 104 75 l 1,28,-1
 497 75 l 1,29,-1
 497 0 l 1,26,-1
EndSplineSet
EndChar
StartChar: guillemotright
Encoding: 187 187 1032
Width: 600
Flags: W
LayerCount: 2
Fore
SplineSet
82 500 m 1,0,-1
 133 532 l 1,1,-1
 309 324 l 1,2,-1
 309 263 l 1,3,-1
 133 55 l 1,4,-1
 82 87 l 1,5,-1
 217 294 l 1,6,-1
 82 500 l 1,0,-1
289 500 m 1,7,-1
 340 532 l 1,8,-1
 517 324 l 1,9,-1
 517 263 l 1,10,-1
 340 55 l 1,11,-1
 289 87 l 1,12,-1
 424 294 l 1,13,-1
 289 500 l 1,7,-1
EndSplineSet
EndChar
StartChar: Ccedilla
Encoding: 199 199 20
Width: 600
Flags: W
LayerCount: 2
Fore
SplineSet
439.5 -84.5 m 128,-1,1
 463 -108 463 -108 463 -140 c 0,2,3
 463 -187 463 -187 427.5 -212.5 c 128,-1,4
 392 -238 392 -238 341 -238 c 0,5,6
 311 -238 311 -238 283.5 -231.5 c 128,-1,7
 256 -225 256 -225 236 -214 c 1,8,-1
 263 -166 l 1,9,10
 293 -182 293 -182 330 -182 c 0,11,12
 390 -182 390 -182 390 -141 c 0,13,14
 390 -115 390 -115 369 -106 c 128,-1,15
 348 -97 348 -97 304 -97 c 1,16,-1
 310 -7 l 1,17,18
 238 5 238 5 182 49.5 c 128,-1,19
 126 94 126 94 94.5 169 c 128,-1,20
 63 244 63 244 63 345 c 0,21,22
 63 457 63 457 102.5 537.5 c 128,-1,23
 142 618 142 618 209.5 659 c 128,-1,24
 277 700 277 700 358 700 c 0,25,26
 422 700 422 700 468 683.5 c 128,-1,27
 514 667 514 667 558 633 c 1,28,-1
 509 576 l 1,29,30
 448 627 448 627 364 627 c 0,31,32
 271 627 271 627 212.5 559.5 c 128,-1,33
 154 492 154 492 154 345 c 0,34,35
 154 199 154 199 211 131 c 128,-1,36
 268 63 268 63 363 63 c 0,37,38
 415 63 415 63 452 78 c 128,-1,39
 489 93 489 93 523 120 c 1,40,-1
 568 64 l 1,41,42
 494 -8 494 -8 370 -11 c 1,43,-1
 370 -57 l 1,44,0
 416 -61 416 -61 439.5 -84.5 c 128,-1,1
EndSplineSet
EndChar
StartChar: Oslash
Encoding: 216 216 82
Width: 600
Flags: W
LayerCount: 2
Fore
SplineSet
523 535.5 m 128,-1,1
 553 454 553 454 553 344 c 0,2,3
 553 183 553 183 487.5 86 c 128,-1,4
 422 -11 422 -11 300 -11 c 0,5,6
 264 -11 264 -11 237 -4 c 1,7,-1
 204 -110 l 1,8,-1
 129 -91 l 1,9,-1
 167 28 l 1,10,11
 108 70 108 70 77.5 151 c 128,-1,12
 47 232 47 232 47 343 c 0,13,14
 47 448 47 448 76 529 c 128,-1,15
 105 610 105 610 162 655 c 128,-1,16
 219 700 219 700 300 700 c 0,17,18
 333 700 333 700 365 692 c 1,19,-1
 397 803 l 1,20,-1
 472 783 l 1,21,-1
 434 659 l 1,22,0
 493 617 493 617 523 535.5 c 128,-1,1
152.5 188.5 m 128,-1,24
 167 129 167 129 198 98 c 1,25,-1
 349 621 l 1,26,27
 326 627 326 627 300 627 c 0,28,29
 215 627 215 627 176.5 555.5 c 128,-1,30
 138 484 138 484 138 343 c 0,31,23
 138 248 138 248 152.5 188.5 c 128,-1,24
423.5 132.5 m 128,-1,33
 462 203 462 203 462 344 c 0,34,35
 462 441 462 441 447.5 500.5 c 128,-1,36
 433 560 433 560 402 591 c 1,37,-1
 251 68 l 1,38,39
 274 62 274 62 300 62 c 0,40,32
 385 62 385 62 423.5 132.5 c 128,-1,33
EndSplineSet
EndChar
StartChar: Thorn
Encoding: 222 222 87
Width: 600
Flags: W
LayerCount: 2
Fore
SplineSet
194 572 m 1,0,-1
 292 572 l 2,1,2
 419 572 419 572 487.5 518 c 128,-1,3
 556 464 556 464 556 355 c 0,4,5
 556 239 556 239 485 183.5 c 128,-1,6
 414 128 414 128 292 128 c 2,7,-1
 194 128 l 1,8,-1
 194 0 l 1,9,-1
 107 0 l 1,10,-1
 107 689 l 1,11,-1
 194 689 l 1,12,-1
 194 572 l 1,0,-1
194 503 m 1,13,-1
 194 198 l 1,14,-1
 303 198 l 2,15,16
 381 198 381 198 422.5 232.5 c 128,-1,17
 464 267 464 267 464 353 c 0,18,19
 464 430 464 430 421.5 466.5 c 128,-1,20
 379 503 379 503 303 503 c 2,21,-1
 194 503 l 1,13,-1
EndSplineSet
EndChar
StartChar: germandbls
Encoding: 223 223 235
Width: 600
Flags: W
LayerCount: 2
Fore
SplineSet
422.5 709 m 128,-1,1
 471 669 471 669 471 605 c 0,2,3
 471 569 471 569 454 546 c 128,-1,4
 437 523 437 523 405 496 c 0,5,6
 380 475 380 475 368.5 461.5 c 128,-1,7
 357 448 357 448 357 429 c 0,8,9
 357 404 357 404 375 386.5 c 128,-1,10
 393 369 393 369 434 343 c 0,11,12
 473 318 473 318 497.5 297.5 c 128,-1,13
 522 277 522 277 540 244.5 c 128,-1,14
 558 212 558 212 558 167 c 0,15,16
 558 111 558 111 533 70.5 c 128,-1,17
 508 30 508 30 465.5 9.5 c 128,-1,18
 423 -11 423 -11 372 -11 c 0,19,20
 296 -11 296 -11 242 23 c 1,21,-1
 277 81 l 1,22,23
 295 70 295 70 318.5 63.5 c 128,-1,24
 342 57 342 57 364 57 c 0,25,26
 415 57 415 57 443.5 83.5 c 128,-1,27
 472 110 472 110 472 163 c 0,28,29
 472 206 472 206 447.5 232 c 128,-1,30
 423 258 423 258 374 289 c 0,31,32
 341 310 341 310 321 326 c 128,-1,33
 301 342 301 342 287.5 365 c 128,-1,34
 274 388 274 388 274 419 c 0,35,36
 274 452 274 452 290.5 474 c 128,-1,37
 307 496 307 496 337 520 c 0,38,39
 364 541 364 541 377 557.5 c 128,-1,40
 390 574 390 574 390 597 c 0,41,42
 390 630 390 630 367.5 656 c 128,-1,43
 345 682 345 682 296 682 c 0,44,45
 238 682 238 682 209 648 c 128,-1,46
 180 614 180 614 180 539 c 2,47,-1
 180 0 l 1,48,-1
 96 0 l 1,49,-1
 96 533 l 2,50,51
 96 638 96 638 149 693.5 c 128,-1,52
 202 749 202 749 297 749 c 0,53,0
 374 749 374 749 422.5 709 c 128,-1,1
EndSplineSet
EndChar
StartChar: ae
Encoding: 230 230 146
Width: 600
Flags: W
LayerCount: 2
Fore
SplineSet
564.5 470.5 m 128,-1,1
 607 403 607 403 607 279 c 0,2,3
 607 257 607 257 605 233 c 1,4,-1
 336 233 l 1,5,6
 343 142 343 142 369.5 100.5 c 128,-1,7
 396 59 396 59 449 59 c 0,8,9
 476 59 476 59 498.5 68.5 c 128,-1,10
 521 78 521 78 548 99 c 1,11,-1
 587 41 l 1,12,13
 554 15 554 15 521 2 c 128,-1,14
 488 -11 488 -11 447 -11 c 0,15,16
 396 -11 396 -11 360 11.5 c 128,-1,17
 324 34 324 34 299 78 c 1,18,19
 264 30 264 30 229.5 9.5 c 128,-1,20
 195 -11 195 -11 146 -11 c 0,21,22
 76 -11 76 -11 35 33 c 128,-1,23
 -6 77 -6 77 -6 151 c 0,24,25
 -6 234 -6 234 48.5 277 c 128,-1,26
 103 320 103 320 208 320 c 2,27,-1
 254 320 l 1,28,-1
 254 363 l 2,29,30
 254 468 254 468 163 468 c 0,31,32
 137 468 137 468 115 462 c 128,-1,33
 93 456 93 456 58 441 c 1,34,-1
 36 504 l 1,35,36
 107 538 107 538 171 538 c 0,37,38
 227 538 227 538 259.5 515.5 c 128,-1,39
 292 493 292 493 309 450 c 1,40,41
 323 491 323 491 355.5 514.5 c 128,-1,42
 388 538 388 538 435 538 c 0,43,0
 522 538 522 538 564.5 470.5 c 128,-1,1
364 430 m 128,-1,45
 342 392 342 392 336 299 c 1,46,-1
 525 299 l 1,47,48
 523 385 523 385 502 426.5 c 128,-1,49
 481 468 481 468 432 468 c 0,50,44
 386 468 386 468 364 430 c 128,-1,45
212 262 m 2,51,52
 143 262 143 262 114 234.5 c 128,-1,53
 85 207 85 207 85 156 c 0,54,55
 85 106 85 106 105 79.5 c 128,-1,56
 125 53 125 53 159 53 c 0,57,58
 190 53 190 53 214.5 76 c 128,-1,59
 239 99 239 99 268 150 c 1,60,61
 254 195 254 195 254 262 c 1,62,-1
 212 262 l 2,51,52
EndSplineSet
EndChar
StartChar: divide
Encoding: 247 247 1079
Width: 600
Flags: W
LayerCount: 2
Fore
SplineSet
348 555.5 m 128,-1,1
 368 536 368 536 368 508 c 256,2,3
 368 480 368 480 348.5 461 c 128,-1,4
 329 442 329 442 300 442 c 256,5,6
 271 442 271 442 251.5 461 c 128,-1,7
 232 480 232 480 232 508 c 256,8,9
 232 536 232 536 252 555.5 c 128,-1,10
 272 575 272 575 300 575 c 256,11,0
 328 575 328 575 348 555.5 c 128,-1,1
484 276 m 1,12,-1
 116 276 l 1,13,-1
 116 348 l 1,14,-1
 484 348 l 1,15,-1
 484 276 l 1,12,-1
348 163.5 m 128,-1,17
 368 144 368 144 368 116 c 256,18,19
 368 88 368 88 348 68.5 c 128,-1,20
 328 49 328 49 300 49 c 256,21,22
 272 49 272 49 252 68.5 c 128,-1,23
 232 88 232 88 232 116 c 256,24,25
 232 144 232 144 252 163.5 c 128,-1,26
 272 183 272 183 300 183 c 256,27,16
 328 183 328 183 348 163.5 c 128,-1,17
EndSplineSet
EndChar
StartChar: oslash
Encoding: 248 248 218
Width: 600
Flags: W
LayerCount: 2
Fore
SplineSet
498.5 412.5 m 128,-1,1
 527 349 527 349 527 264 c 0,2,3
 527 140 527 140 467.5 64.5 c 128,-1,4
 408 -11 408 -11 300 -11 c 0,5,6
 271 -11 271 -11 250 -7 c 1,7,-1
 213 -130 l 1,8,-1
 143 -110 l 1,9,-1
 185 18 l 1,10,11
 131 50 131 50 102 113.5 c 128,-1,12
 73 177 73 177 73 263 c 0,13,14
 73 388 73 388 132.5 463 c 128,-1,15
 192 538 192 538 301 538 c 0,16,17
 323 538 323 538 350 533 c 1,18,-1
 388 654 l 1,19,-1
 458 633 l 1,20,-1
 417 508 l 1,21,0
 470 476 470 476 498.5 412.5 c 128,-1,1
164 263 m 0,23,24
 164 131 164 131 216 85 c 1,25,-1
 334 466 l 1,26,27
 319 469 319 469 301 469 c 0,28,22
 164 469 164 469 164 263 c 0,23,24
436 264 m 0,30,31
 436 396 436 396 385 441 c 1,32,-1
 267 61 l 1,33,34
 282 58 282 58 300 58 c 0,35,29
 436 58 436 58 436 264 c 0,30,31
EndSplineSet
EndChar
StartChar: thorn
Encoding: 254 254 223
Width: 600
Flags: W
LayerCount: 2
Fore
SplineSet
184 461 m 1,0,1
 213 498 213 498 252.5 518 c 128,-1,2
 292 538 292 538 336 538 c 0,3,4
 527 538 527 538 527 264 c 0,5,6
 527 139 527 139 475 64 c 128,-1,7
 423 -11 423 -11 324 -11 c 0,8,9
 238 -11 238 -11 184 49 c 1,10,-1
 184 -202 l 1,11,-1
 100 -212 l 1,12,-1
 100 739 l 1,13,-1
 184 749 l 1,14,-1
 184 461 l 1,0,1
242.5 446 m 128,-1,16
 209 422 209 422 184 386 c 1,17,-1
 184 125 l 1,18,19
 205 94 205 94 236.5 76.5 c 128,-1,20
 268 59 268 59 305 59 c 0,21,22
 371 59 371 59 403.5 109.5 c 128,-1,23
 436 160 436 160 436 264 c 256,24,25
 436 368 436 368 407 419 c 128,-1,26
 378 470 378 470 316 470 c 0,27,15
 276 470 276 470 242.5 446 c 128,-1,16
EndSplineSet
EndChar
StartChar: aogonek
Encoding: 261 261 143
Width: 600
Flags: W
LayerCount: 2
Fore
SplineSet
402 -70 m 128,-1,1
 376 -97 376 -97 376 -126 c 0,2,3
 376 -150 376 -150 389 -162 c 128,-1,4
 402 -174 402 -174 432 -174 c 0,5,6
 459 -174 459 -174 493 -167 c 1,7,-1
 485 -235 l 1,8,9
 443 -241 443 -241 421 -241 c 0,10,11
 365 -241 365 -241 332 -213.5 c 128,-1,12
 299 -186 299 -186 299 -143 c 0,13,14
 299 -96 299 -96 335 -59 c 128,-1,15
 371 -22 371 -22 447 6 c 1,16,17
 415 25 415 25 404 63 c 1,18,19
 376 27 376 27 333.5 8 c 128,-1,20
 291 -11 291 -11 239 -11 c 0,21,22
 160 -11 160 -11 114.5 33 c 128,-1,23
 69 77 69 77 69 151 c 0,24,25
 69 232 69 232 132.5 276 c 128,-1,26
 196 320 196 320 315 320 c 2,27,-1
 393 320 l 1,28,-1
 393 363 l 2,29,30
 393 419 393 419 361 443.5 c 128,-1,31
 329 468 329 468 268 468 c 0,32,33
 208 468 208 468 131 441 c 1,34,-1
 108 505 l 1,35,36
 201 538 201 538 281 538 c 0,37,38
 377 538 377 538 427.5 493 c 128,-1,39
 478 448 478 448 478 368 c 2,40,-1
 478 115 l 2,41,42
 478 84 478 84 488 69.5 c 128,-1,43
 498 55 498 55 521 48 c 1,44,-1
 500 -12 l 1,45,0
 428 -43 428 -43 402 -70 c 128,-1,1
393 262 m 1,46,-1
 317 262 l 2,47,48
 233 262 233 262 196 234 c 128,-1,49
 159 206 159 206 159 152 c 0,50,51
 159 52 159 52 260 52 c 0,52,53
 299 52 299 52 334.5 72 c 128,-1,54
 370 92 370 92 393 127 c 1,55,-1
 393 262 l 1,46,-1
EndSplineSet
Colour: ff0000
EndChar
StartChar: Eogonek
Encoding: 280 280 36
Width: 600
Flags: W
LayerCount: 2
Fore
SplineSet
526 70 m 1,0,-1
 526 0 l 1,1,-1
 468 0 l 1,2,3
 396 -31 396 -31 370 -58 c 128,-1,4
 344 -85 344 -85 344 -114 c 0,5,6
 344 -138 344 -138 357 -150 c 128,-1,7
 370 -162 370 -162 400 -162 c 0,8,9
 427 -162 427 -162 461 -155 c 1,10,-1
 453 -223 l 1,11,12
 411 -229 411 -229 389 -229 c 0,13,14
 333 -229 333 -229 300 -201.5 c 128,-1,15
 267 -174 267 -174 267 -131 c 0,16,17
 267 -51 267 -51 372 0 c 1,18,-1
 126 0 l 1,19,-1
 126 689 l 1,20,-1
 517 689 l 1,21,-1
 507 617 l 1,22,-1
 212 617 l 1,23,-1
 212 385 l 1,24,-1
 468 385 l 1,25,-1
 468 314 l 1,26,-1
 212 314 l 1,27,-1
 212 70 l 1,28,-1
 526 70 l 1,0,-1
EndSplineSet
Colour: ff0000
EndChar
StartChar: eogonek
Encoding: 281 281 168
Width: 600
Flags: W
LayerCount: 2
Fore
SplineSet
521 234 m 1,1,-1
 167 234 l 1,2,3
 170 147 170 147 212.5 103 c 128,-1,4
 255 59 255 59 320 59 c 0,5,6
 359 59 359 59 391.5 70.5 c 128,-1,7
 424 82 424 82 461 106 c 1,8,-1
 500 50 l 1,9,10
 458 17 458 17 397 -1 c 1,11,12
 326 -32 326 -32 300.5 -58.5 c 128,-1,13
 275 -85 275 -85 275 -114 c 0,14,15
 275 -138 275 -138 288 -150 c 128,-1,16
 301 -162 301 -162 331 -162 c 0,17,18
 358 -162 358 -162 392 -155 c 1,19,-1
 384 -223 l 1,20,21
 342 -229 342 -229 320 -229 c 0,22,23
 264 -229 264 -229 231 -201.5 c 128,-1,24
 198 -174 198 -174 198 -131 c 0,25,26
 198 -93 198 -93 224 -62 c 128,-1,27
 250 -31 250 -31 300 -11 c 1,28,29
 195 -4 195 -4 137 69.5 c 128,-1,30
 79 143 79 143 79 263 c 0,31,32
 79 342 79 342 107 404.5 c 128,-1,33
 135 467 135 467 187 502.5 c 128,-1,34
 239 538 239 538 308 538 c 0,35,36
 408 538 408 538 465.5 468.5 c 128,-1,37
 523 399 523 399 523 279 c 0,38,0
 523 256 523 256 521 234 c 1,1,-1
441 298 m 1,39,40
 440 381 440 381 405 425 c 128,-1,41
 370 469 370 469 309 469 c 256,42,43
 248 469 248 469 210 425.5 c 128,-1,44
 172 382 172 382 167 298 c 1,45,-1
 441 298 l 1,39,40
EndSplineSet
Colour: ff0000
EndChar
StartChar: Hbar
Encoding: 294 294 44
Width: 600
Flags: W
LayerCount: 2
Fore
SplineSet
598 509 m 1,0,-1
 517 509 l 1,1,-1
 517 0 l 1,2,-1
 431 0 l 1,3,-1
 431 326 l 1,4,-1
 169 326 l 1,5,-1
 169 0 l 1,6,-1
 83 0 l 1,7,-1
 83 509 l 1,8,-1
 2 509 l 1,9,-1
 2 575 l 1,10,-1
 83 575 l 1,11,-1
 83 689 l 1,12,-1
 169 689 l 1,13,-1
 169 575 l 1,14,-1
 431 575 l 1,15,-1
 431 689 l 1,16,-1
 517 689 l 1,17,-1
 517 575 l 1,18,-1
 598 575 l 1,19,-1
 598 509 l 1,0,-1
431 509 m 1,20,-1
 169 509 l 1,21,-1
 169 398 l 1,22,-1
 431 398 l 1,23,-1
 431 509 l 1,20,-1
EndSplineSet
Colour: ff0000
EndChar
StartChar: Iogonek
Encoding: 302 302 55
Width: 600
Flags: W
LayerCount: 2
Fore
SplineSet
344 619 m 1,0,-1
 344 69 l 1,1,-1
 497 69 l 1,2,-1
 497 0 l 1,3,-1
 344 0 l 1,4,5
 272 -31 272 -31 246 -58 c 128,-1,6
 220 -85 220 -85 220 -114 c 0,7,8
 220 -138 220 -138 233 -150 c 128,-1,9
 246 -162 246 -162 276 -162 c 0,10,11
 303 -162 303 -162 337 -155 c 1,12,-1
 329 -223 l 1,13,14
 287 -229 287 -229 265 -229 c 0,15,16
 209 -229 209 -229 176 -201.5 c 128,-1,17
 143 -174 143 -174 143 -131 c 0,18,19
 143 -51 143 -51 248 0 c 1,20,-1
 103 0 l 1,21,-1
 103 69 l 1,22,-1
 256 69 l 1,23,-1
 256 619 l 1,24,-1
 103 619 l 1,25,-1
 103 689 l 1,26,-1
 497 689 l 1,27,-1
 497 619 l 1,28,-1
 344 619 l 1,0,-1
EndSplineSet
Colour: ff0000
EndChar
StartChar: ij
Encoding: 307 307 186
Width: 600
Flags: W
LayerCount: 2
Fore
SplineSet
228.5 756.5 m 128,-1,1
 246 740 246 740 246 714 c 256,2,3
 246 688 246 688 228.5 671.5 c 128,-1,4
 211 655 211 655 184 655 c 256,5,6
 157 655 157 655 140.5 671.5 c 128,-1,7
 124 688 124 688 124 714 c 256,8,9
 124 740 124 740 140.5 756.5 c 128,-1,10
 157 773 157 773 184 773 c 256,11,0
 211 773 211 773 228.5 756.5 c 128,-1,1
492.5 756.5 m 128,-1,13
 510 740 510 740 510 714 c 256,14,15
 510 688 510 688 492.5 671.5 c 128,-1,16
 475 655 475 655 448 655 c 256,17,18
 421 655 421 655 404.5 671.5 c 128,-1,19
 388 688 388 688 388 714 c 256,20,21
 388 740 388 740 404.5 756.5 c 128,-1,22
 421 773 421 773 448 773 c 256,23,12
 475 773 475 773 492.5 756.5 c 128,-1,13
500 55 m 2,24,25
 500 -46 500 -46 431.5 -109.5 c 128,-1,26
 363 -173 363 -173 245 -212 c 1,27,-1
 220 -146 l 1,28,29
 311 -111 311 -111 364.5 -68 c 128,-1,30
 418 -25 418 -25 418 50 c 2,31,-1
 418 462 l 1,32,-1
 223 462 l 1,33,-1
 223 67 l 1,34,-1
 319 67 l 1,35,-1
 319 0 l 1,36,-1
 48 0 l 1,37,-1
 48 67 l 1,38,-1
 142 67 l 1,39,-1
 142 462 l 1,40,-1
 53 462 l 1,41,-1
 53 527 l 1,42,-1
 500 527 l 1,43,-1
 500 55 l 2,24,25
EndSplineSet
Colour: ff0000
EndChar
StartChar: kgreenlandic
Encoding: 312 312 195
Width: 600
Flags: W
LayerCount: 2
Fore
SplineSet
184 0 m 1,0,-1
 100 0 l 1,1,-1
 100 527 l 1,2,-1
 184 527 l 1,3,-1
 184 0 l 1,0,-1
297 288 m 1,4,-1
 563 0 l 1,5,-1
 453 0 l 1,6,-1
 194 283 l 1,7,-1
 427 527 l 1,8,-1
 536 527 l 1,9,-1
 297 288 l 1,4,-1
EndSplineSet
Colour: ff0000
EndChar
StartChar: napostrophe
Encoding: 329 329 205
Width: 600
Flags: W
LayerCount: 2
Fore
SplineSet
102 736.5 m 128,-1,1
 118 721 118 721 118 698 c 0,2,3
 118 686 118 686 112.5 670 c 128,-1,4
 107 654 107 654 92 621 c 2,5,-1
 51 534 l 1,6,-1
 1 534 l 1,7,-1
 31 653 l 1,8,9
 8 673 8 673 8 698 c 0,10,11
 8 721 8 721 24 736.5 c 128,-1,12
 40 752 40 752 63 752 c 256,13,0
 86 752 86 752 102 736.5 c 128,-1,1
109 527 m 1,14,-1
 181 527 l 1,15,-1
 187 453 l 1,16,17
 219 493 219 493 266.5 515.5 c 128,-1,18
 314 538 314 538 361 538 c 0,19,20
 510 538 510 538 510 382 c 2,21,-1
 510 0 l 1,22,-1
 426 0 l 1,23,-1
 426 320 l 2,24,25
 426 379 426 379 419.5 410 c 128,-1,26
 413 441 413 441 393.5 456 c 128,-1,27
 374 471 374 471 335 471 c 0,28,29
 292 471 292 471 254.5 445 c 128,-1,30
 217 419 217 419 193 383 c 1,31,-1
 193 0 l 1,32,-1
 109 0 l 1,33,-1
 109 527 l 1,14,-1
EndSplineSet
Colour: ff0000
EndChar
StartChar: Eng
Encoding: 330 330 72
Width: 600
Flags: W
LayerCount: 2
Fore
SplineSet
478.5 -173.5 m 128,-1,1
 440 -212 440 -212 372 -212 c 0,2,3
 308 -212 308 -212 259 -175 c 1,4,-1
 293 -118 l 1,5,6
 312 -131 312 -131 328 -136.5 c 128,-1,7
 344 -142 344 -142 368 -142 c 0,8,9
 430 -142 430 -142 430 -67 c 2,10,-1
 430 0 l 1,11,-1
 395 0 l 1,12,-1
 152 605 l 1,13,14
 152 598 152 598 158 518 c 128,-1,15
 164 438 164 438 164 345 c 2,16,-1
 164 0 l 1,17,-1
 83 0 l 1,18,-1
 83 689 l 1,19,-1
 201 689 l 1,20,-1
 448 81 l 1,21,-1
 446 117 l 1,22,23
 436 240 436 240 436 344 c 2,24,-1
 436 689 l 1,25,-1
 517 689 l 1,26,-1
 517 -62 l 2,27,0
 517 -135 517 -135 478.5 -173.5 c 128,-1,1
EndSplineSet
Colour: ff0000
EndChar
StartChar: eng
Encoding: 331 331 208
Width: 600
Flags: W
LayerCount: 2
Fore
SplineSet
484.5 -88 m 128,-1,1
 468 -132 468 -132 435.5 -158.5 c 128,-1,2
 403 -185 403 -185 346 -211 c 1,3,-1
 315 -150 l 1,4,5
 354 -131 354 -131 375 -113.5 c 128,-1,6
 396 -96 396 -96 406.5 -64.5 c 128,-1,7
 417 -33 417 -33 417 23 c 2,8,-1
 417 320 l 2,9,10
 417 379 417 379 410.5 410 c 128,-1,11
 404 441 404 441 384.5 456 c 128,-1,12
 365 471 365 471 325 471 c 0,13,14
 284 471 284 471 246 445 c 128,-1,15
 208 419 208 419 184 384 c 1,16,-1
 184 0 l 1,17,-1
 100 0 l 1,18,-1
 100 527 l 1,19,-1
 172 527 l 1,20,-1
 179 453 l 1,21,22
 210 493 210 493 257.5 515.5 c 128,-1,23
 305 538 305 538 353 538 c 0,24,25
 501 538 501 538 501 382 c 2,26,-1
 501 29 l 2,27,0
 501 -44 501 -44 484.5 -88 c 128,-1,1
EndSplineSet
Colour: ff0000
EndChar
StartChar: OE
Encoding: 338 338 85
Width: 600
Flags: W
LayerCount: 2
Fore
SplineSet
283 689 m 1,1,-1
 608 689 l 1,2,-1
 598 618 l 1,3,-1
 354 618 l 1,4,5
 412 549 412 549 419 385 c 1,6,-1
 573 385 l 1,7,-1
 573 314 l 1,8,-1
 419 314 l 1,9,10
 415 145 415 145 350 71 c 1,11,-1
 617 71 l 1,12,-1
 617 0 l 1,13,-1
 280 0 l 1,14,15
 245 -11 245 -11 212 -11 c 0,16,17
 -1 -11 -1 -11 -1 343 c 0,18,19
 -1 517 -1 517 52.5 608.5 c 128,-1,20
 106 700 106 700 212 700 c 0,21,0
 245 700 245 700 283 689 c 1,1,-1
120.5 561 m 128,-1,23
 92 494 92 494 92 343 c 0,24,25
 92 193 92 193 121.5 126 c 128,-1,26
 151 59 151 59 211 59 c 0,27,28
 275 59 275 59 304 125.5 c 128,-1,29
 333 192 333 192 333 344 c 256,30,31
 333 496 333 496 304.5 562 c 128,-1,32
 276 628 276 628 211 628 c 0,33,22
 149 628 149 628 120.5 561 c 128,-1,23
EndSplineSet
EndChar
StartChar: uni0162
Encoding: 354 354 102
Width: 600
Flags: W
LayerCount: 2
Fore
SplineSet
328 0 m 1,0,-1
 328 -57 l 1,1,2
 375 -61 375 -61 398 -84.5 c 128,-1,3
 421 -108 421 -108 421 -140 c 0,4,5
 421 -187 421 -187 385.5 -212.5 c 128,-1,6
 350 -238 350 -238 299 -238 c 0,7,8
 269 -238 269 -238 241.5 -231.5 c 128,-1,9
 214 -225 214 -225 194 -214 c 1,10,-1
 221 -166 l 1,11,12
 251 -182 251 -182 288 -182 c 0,13,14
 348 -182 348 -182 348 -141 c 0,15,16
 348 -115 348 -115 327 -106 c 128,-1,17
 306 -97 306 -97 262 -97 c 1,18,-1
 269 0 l 1,19,-1
 255 0 l 1,20,-1
 255 614 l 1,21,-1
 40 614 l 1,22,-1
 40 689 l 1,23,-1
 559 689 l 1,24,-1
 550 614 l 1,25,-1
 342 614 l 1,26,-1
 342 0 l 1,27,-1
 328 0 l 1,0,-1
EndSplineSet
Colour: ff0000
EndChar
StartChar: uogonek
Encoding: 371 371 249
Width: 600
Flags: W
LayerCount: 2
Fore
SplineSet
389 -150 m 128,-1,1
 402 -162 402 -162 432 -162 c 0,2,3
 459 -162 459 -162 493 -155 c 1,4,-1
 485 -223 l 1,5,6
 443 -229 443 -229 421 -229 c 0,7,8
 365 -229 365 -229 332 -201.5 c 128,-1,9
 299 -174 299 -174 299 -131 c 0,10,11
 299 -42 299 -42 427 10 c 1,12,-1
 421 71 l 1,13,14
 390 32 390 32 344.5 10.5 c 128,-1,15
 299 -11 299 -11 252 -11 c 0,16,17
 177 -11 177 -11 138.5 29 c 128,-1,18
 100 69 100 69 100 144 c 2,19,-1
 100 527 l 1,20,-1
 184 527 l 1,21,-1
 184 153 l 2,22,23
 184 102 184 102 205.5 78.5 c 128,-1,24
 227 55 227 55 273 55 c 0,25,26
 315 55 315 55 354 79 c 128,-1,27
 393 103 393 103 416 139 c 1,28,-1
 416 527 l 1,29,-1
 500 527 l 1,30,-1
 500 0 l 1,31,32
 428 -31 428 -31 402 -58 c 128,-1,33
 376 -85 376 -85 376 -114 c 0,34,0
 376 -138 376 -138 389 -150 c 128,-1,1
EndSplineSet
Colour: ff0000
EndChar
StartChar: uni0237
Encoding: 567 567 191
Width: 600
Flags: W
LayerCount: 2
Fore
SplineSet
445 84 m 2,0,1
 445 -43 445 -43 360.5 -113.5 c 128,-1,2
 276 -184 276 -184 110 -212 c 1,3,-1
 96 -147 l 1,4,5
 223 -126 223 -126 292 -73.5 c 128,-1,6
 361 -21 361 -21 361 79 c 2,7,-1
 361 460 l 1,8,-1
 142 460 l 1,9,-1
 142 527 l 1,10,-1
 445 527 l 1,11,-1
 445 84 l 2,0,1
EndSplineSet
EndChar
StartChar: breve
Encoding: 728 728 1429
Width: 600
Flags: W
LayerCount: 2
Fore
SplineSet
223 650.5 m 128,-1,1
 191 671 191 671 172.5 702 c 128,-1,2
 154 733 154 733 150 766 c 1,3,-1
 208 779 l 1,4,5
 233 694 233 694 298 694 c 0,6,7
 333 694 333 694 356 716.5 c 128,-1,8
 379 739 379 739 391 779 c 1,9,-1
 448 766 l 1,10,11
 444 733 444 733 425 702 c 128,-1,12
 406 671 406 671 373.5 650.5 c 128,-1,13
 341 630 341 630 298 630 c 256,14,0
 255 630 255 630 223 650.5 c 128,-1,1
EndSplineSet
Colour: ff0000
EndChar
StartChar: dotaccent
Encoding: 729 729 1434
Width: 600
Flags: W
LayerCount: 2
Fore
SplineSet
343 756.5 m 128,-1,1
 360 740 360 740 360 714 c 256,2,3
 360 688 360 688 343 671.5 c 128,-1,4
 326 655 326 655 299 655 c 256,5,6
 272 655 272 655 255.5 671.5 c 128,-1,7
 239 688 239 688 239 714 c 256,8,9
 239 740 239 740 255.5 756.5 c 128,-1,10
 272 773 272 773 299 773 c 256,11,0
 326 773 326 773 343 756.5 c 128,-1,1
EndSplineSet
Colour: ff0000
EndChar
StartChar: hungarumlaut
Encoding: 733 733 1436
Width: 600
Flags: W
LayerCount: 2
Fore
SplineSet
215 836 m 1,0,-1
 290 800 l 1,1,-1
 193 636 l 1,2,-1
 137 662 l 1,3,-1
 215 836 l 1,0,-1
389 836 m 1,4,-1
 463 797 l 1,5,-1
 355 634 l 1,6,-1
 302 662 l 1,7,-1
 389 836 l 1,4,-1
EndSplineSet
Colour: ff0000
EndChar
StartChar: gravecomb
Encoding: 768 768 1417
Width: 0
GlyphClass: 4
Flags: W
LayerCount: 2
Fore
SplineSet
-184 685 m 1,0,-1
 -210 640 l 1,1,-1
 -419 725 l 1,2,-1
 -380 797 l 1,3,-1
 -184 685 l 1,0,-1
EndSplineSet
EndChar
StartChar: acutecomb
Encoding: 769 769 1406
Width: 0
GlyphClass: 4
Flags: W
LayerCount: 2
Fore
SplineSet
-178 725 m 1,0,-1
 -387 640 l 1,1,-1
 -413 685 l 1,2,-1
 -216 797 l 1,3,-1
 -178 725 l 1,0,-1
EndSplineSet
EndChar
StartChar: uni0302
Encoding: 770 770 1410
Width: 0
GlyphClass: 4
Flags: W
LayerCount: 2
Fore
SplineSet
-137 641 m 1,0,-1
 -174 598 l 1,1,-1
 -300 679 l 1,2,-1
 -425 598 l 1,3,-1
 -463 641 l 1,4,-1
 -328 748 l 1,5,-1
 -271 748 l 1,6,-1
 -137 641 l 1,0,-1
EndSplineSet
EndChar
StartChar: uni0306
Encoding: 774 774 1407
Width: 0
GlyphClass: 4
Flags: W
LayerCount: 2
Fore
SplineSet
-402.5 618.5 m 128,-1,1
 -444 651 -444 651 -450 705 c 1,2,-1
 -392 718 l 1,3,4
 -381 687 -381 687 -358.5 669 c 128,-1,5
 -336 651 -336 651 -302 651 c 0,6,7
 -267 651 -267 651 -243 669 c 128,-1,8
 -219 687 -219 687 -208 718 c 1,9,-1
 -150 705 l 1,10,11
 -156 651 -156 651 -199 618.5 c 128,-1,12
 -242 586 -242 586 -302 586 c 0,13,0
 -361 586 -361 586 -402.5 618.5 c 128,-1,1
EndSplineSet
Colour: ff0000
EndChar
StartChar: uni0307
Encoding: 775 775 1416
Width: 0
GlyphClass: 4
Flags: W
LayerCount: 2
Fore
SplineSet
-256 702.5 m 128,-1,1
 -239 686 -239 686 -239 661 c 0,2,3
 -239 635 -239 635 -256 618 c 128,-1,4
 -273 601 -273 601 -300 601 c 256,5,6
 -327 601 -327 601 -343.5 618 c 128,-1,7
 -360 635 -360 635 -360 661 c 0,8,9
 -360 686 -360 686 -343.5 702.5 c 128,-1,10
 -327 719 -327 719 -300 719 c 256,11,0
 -273 719 -273 719 -256 702.5 c 128,-1,1
EndSplineSet
Colour: ff0000
EndChar
StartChar: uni030C
Encoding: 780 780 1408
Width: 0
GlyphClass: 4
Flags: W
LayerCount: 2
Fore
SplineSet
-137 689 m 1,0,-1
 -271 581 l 1,1,-1
 -328 581 l 1,2,-1
 -463 689 l 1,3,-1
 -425 731 l 1,4,-1
 -300 651 l 1,5,-1
 -174 731 l 1,6,-1
 -137 689 l 1,0,-1
EndSplineSet
Colour: ff0000
EndChar
StartChar: uni030F
Encoding: 783 783 1414
Width: 0
GlyphClass: 4
Flags: W
LayerCount: 2
Fore
SplineSet
-355 634 m 1,0,-1
 -463 797 l 1,1,-1
 -389 836 l 1,2,-1
 -302 662 l 1,3,-1
 -355 634 l 1,0,-1
-193 636 m 1,4,-1
 -290 800 l 1,5,-1
 -215 836 l 1,6,-1
 -137 662 l 1,7,-1
 -193 636 l 1,4,-1
EndSplineSet
Colour: ff0000
EndChar
StartChar: uni0314
Encoding: 788 788 1413
Width: 0
GlyphClass: 4
Flags: W
LayerCount: 2
Fore
SplineSet
-341.5 574.5 m 128,-1,1
 -357 590 -357 590 -357 613 c 0,2,3
 -357 635 -357 635 -342 668 c 2,4,-1
 -292 775 l 1,5,-1
 -241 775 l 1,6,-1
 -270 657 l 1,7,8
 -260 650 -260 650 -254.5 638 c 128,-1,9
 -249 626 -249 626 -249 613 c 0,10,11
 -249 590 -249 590 -264.5 574.5 c 128,-1,12
 -280 559 -280 559 -303 559 c 256,13,0
 -326 559 -326 559 -341.5 574.5 c 128,-1,1
EndSplineSet
Colour: ff0000
EndChar
StartChar: uni0345
Encoding: 837 837 1457
Width: 0
GlyphClass: 4
Flags: W
LayerCount: 2
Fore
SplineSet
-374 -160.5 m 128,-1,1
 -403 -133 -403 -133 -403 -86 c 2,2,-1
 -403 -39 l 1,3,-1
 -328 -39 l 1,4,-1
 -328 -84 l 2,5,6
 -328 -126 -328 -126 -286 -126 c 0,7,8
 -268 -126 -268 -126 -256 -122 c 128,-1,9
 -244 -118 -244 -118 -229 -109 c 1,10,-1
 -196 -154 l 1,11,12
 -241 -188 -241 -188 -293 -188 c 256,13,0
 -345 -188 -345 -188 -374 -160.5 c 128,-1,1
EndSplineSet
Colour: ff0000
EndChar
StartChar: uni0370
Encoding: 880 880 600
Width: 600
Flags: W
LayerCount: 2
Fore
SplineSet
201 327 m 1,0,-1
 201 0 l 1,1,-1
 114 0 l 1,2,-1
 114 689 l 1,3,-1
 201 689 l 1,4,-1
 201 398 l 1,5,-1
 486 398 l 1,6,-1
 486 327 l 1,7,-1
 201 327 l 1,0,-1
EndSplineSet
Colour: ff0000
EndChar
StartChar: uni0371
Encoding: 881 881 751
Width: 600
Flags: W
LayerCount: 2
Fore
SplineSet
523 235 m 1,0,-1
 220 235 l 1,1,-1
 220 0 l 1,2,-1
 136 0 l 1,3,-1
 136 354 l 2,4,5
 136 408 136 408 129 448 c 128,-1,6
 122 488 122 488 109 527 c 1,7,-1
 186 538 l 1,8,9
 201 505 201 505 210.5 459 c 128,-1,10
 220 413 220 413 220 338 c 2,11,-1
 220 307 l 1,12,-1
 523 307 l 1,13,-1
 523 235 l 1,0,-1
EndSplineSet
Colour: ff0000
EndChar
StartChar: uni0373
Encoding: 883 883 752
Width: 600
Flags: W
LayerCount: 2
Fore
SplineSet
568 457 m 1,0,-1
 342 456 l 1,1,-1
 342 -202 l 1,2,-1
 258 -212 l 1,3,-1
 258 456 l 1,4,-1
 121 456 l 2,5,6
 89 456 89 456 74.5 454 c 128,-1,7
 60 452 60 452 34 445 c 1,8,-1
 19 512 l 1,9,10
 45 521 45 521 65.5 524 c 128,-1,11
 86 527 86 527 124 527 c 2,12,-1
 568 527 l 1,13,-1
 568 457 l 1,0,-1
EndSplineSet
Colour: ff0000
EndChar
StartChar: uni0375
Encoding: 885 885 1405
Width: 600
Flags: W
LayerCount: 2
Fore
SplineSet
304 -133 m 1,0,-1
 210 -133 l 1,1,-1
 325 127 l 1,2,-1
 390 127 l 1,3,-1
 304 -133 l 1,0,-1
EndSplineSet
Colour: ff0000
EndChar
StartChar: uni037B
Encoding: 891 891 754
Width: 600
Flags: W
LayerCount: 2
Fore
SplineSet
170.5 2.5 m 128,-1,1
 130 16 130 16 91 45 c 1,2,-1
 130 99 l 1,3,4
 166 78 166 78 193 69.5 c 128,-1,5
 220 61 220 61 259 61 c 0,6,7
 334 61 334 61 376.5 110 c 128,-1,8
 419 159 419 159 419 261 c 0,9,10
 419 467 419 467 269 467 c 0,11,12
 226 467 226 467 195 458 c 128,-1,13
 164 449 164 449 132 428 c 1,14,-1
 91 482 l 1,15,16
 135 513 135 513 175.5 525.5 c 128,-1,17
 216 538 216 538 268 538 c 0,18,19
 343 538 343 538 397.5 504 c 128,-1,20
 452 470 452 470 481 407 c 128,-1,21
 510 344 510 344 510 259 c 0,22,23
 510 175 510 175 479.5 114 c 128,-1,24
 449 53 449 53 393 21 c 128,-1,25
 337 -11 337 -11 263 -11 c 0,26,0
 211 -11 211 -11 170.5 2.5 c 128,-1,1
EndSplineSet
Colour: ff0000
EndChar
StartChar: Iota
Encoding: 921 921 575
Width: 600
Flags: W
LayerCount: 2
Fore
SplineSet
497 619 m 1,0,-1
 344 619 l 1,1,-1
 344 69 l 1,2,-1
 497 69 l 1,3,-1
 497 0 l 1,4,-1
 103 0 l 1,5,-1
 103 69 l 1,6,-1
 256 69 l 1,7,-1
 256 619 l 1,8,-1
 103 619 l 1,9,-1
 103 689 l 1,10,-1
 497 689 l 1,11,-1
 497 619 l 1,0,-1
EndSplineSet
Colour: ff0000
EndChar
StartChar: Lambda
Encoding: 923 923 577
Width: 600
Flags: W
LayerCount: 2
Fore
SplineSet
574 0 m 1,0,-1
 484 0 l 1,1,-1
 298 608 l 1,2,-1
 111 0 l 1,3,-1
 24 0 l 1,4,-1
 245 689 l 1,5,-1
 355 689 l 1,6,-1
 574 0 l 1,0,-1
EndSplineSet
Colour: ff0000
EndChar
StartChar: Xi
Encoding: 926 926 580
Width: 600
Flags: W
LayerCount: 2
Fore
SplineSet
501 609 m 1,0,-1
 77 609 l 1,1,-1
 77 689 l 1,2,-1
 513 689 l 1,3,-1
 501 609 l 1,0,-1
464 309 m 1,4,-1
 127 309 l 1,5,-1
 127 389 l 1,6,-1
 464 389 l 1,7,-1
 464 309 l 1,4,-1
523 0 m 1,8,-1
 77 0 l 1,9,-1
 77 81 l 1,10,-1
 523 81 l 1,11,-1
 523 0 l 1,8,-1
EndSplineSet
Colour: ff0000
EndChar
StartChar: Sigma
Encoding: 931 931 584
Width: 600
Flags: W
LayerCount: 2
Fore
SplineSet
175 73 m 1,0,-1
 527 73 l 1,1,-1
 527 0 l 1,2,-1
 73 0 l 1,3,-1
 73 73 l 1,4,-1
 328 344 l 1,5,-1
 73 614 l 1,6,-1
 73 689 l 1,7,-1
 527 689 l 1,8,-1
 527 615 l 1,9,-1
 173 615 l 1,10,-1
 404 377 l 1,11,-1
 404 315 l 1,12,-1
 175 73 l 1,0,-1
EndSplineSet
Colour: ff0000
EndChar
StartChar: uni03A9
Encoding: 937 937 590
Width: 600
Flags: W
LayerCount: 2
Fore
SplineSet
177.5 561 m 128,-1,1
 137 495 137 495 137 349 c 0,2,3
 137 233 137 233 169.5 164.5 c 128,-1,4
 202 96 202 96 266 65 c 1,5,-1
 266 0 l 1,6,-1
 58 0 l 1,7,-1
 58 70 l 1,8,-1
 177 70 l 1,9,10
 112 104 112 104 79.5 172 c 128,-1,11
 47 240 47 240 47 349 c 0,12,13
 47 459 47 459 78 538.5 c 128,-1,14
 109 618 109 618 166 659 c 128,-1,15
 223 700 223 700 300 700 c 256,16,17
 377 700 377 700 434 659 c 128,-1,18
 491 618 491 618 522 538.5 c 128,-1,19
 553 459 553 459 553 349 c 0,20,21
 553 241 553 241 520 173 c 128,-1,22
 487 105 487 105 422 70 c 1,23,-1
 542 70 l 1,24,-1
 542 0 l 1,25,-1
 335 0 l 1,26,-1
 335 65 l 1,27,28
 398 96 398 96 430.5 164.5 c 128,-1,29
 463 233 463 233 463 349 c 0,30,31
 463 495 463 495 422 561 c 128,-1,32
 381 627 381 627 300 627 c 0,33,0
 218 627 218 627 177.5 561 c 128,-1,1
EndSplineSet
Colour: ff0000
EndChar
StartChar: alpha
Encoding: 945 945 715
Width: 600
Flags: W
LayerCount: 2
Fore
SplineSet
365 500.5 m 128,-1,1
 405 463 405 463 421 373 c 1,2,-1
 448 527 l 1,3,-1
 525 527 l 1,4,-1
 474 246 l 1,5,-1
 499 110 l 2,6,7
 503 90 503 90 512.5 78.5 c 128,-1,8
 522 67 522 67 544 58 c 1,9,-1
 514 -13 l 1,10,11
 480 -7 480 -7 454 18 c 128,-1,12
 428 43 428 43 422 83 c 2,13,-1
 413 139 l 1,14,15
 363 -11 363 -11 250 -11 c 0,16,17
 158 -11 158 -11 108.5 57 c 128,-1,18
 59 125 59 125 59 259 c 0,19,20
 59 385 59 385 109.5 461.5 c 128,-1,21
 160 538 160 538 255 538 c 0,22,0
 325 538 325 538 365 500.5 c 128,-1,1
178 415.5 m 128,-1,24
 149 361 149 361 149 259 c 0,25,26
 149 155 149 155 176 106 c 128,-1,27
 203 57 203 57 257 57 c 0,28,29
 302 57 302 57 339 101.5 c 128,-1,30
 376 146 376 146 399 267 c 1,31,32
 385 346 385 346 366 390 c 128,-1,33
 347 434 347 434 321.5 452 c 128,-1,34
 296 470 296 470 261 470 c 0,35,23
 207 470 207 470 178 415.5 c 128,-1,24
EndSplineSet
Colour: ff0000
EndChar
StartChar: gamma
Encoding: 947 947 717
Width: 600
Flags: W
LayerCount: 2
Fore
SplineSet
557 519 m 1,0,-1
 340 17 l 2,1,2
 317 -38 317 -38 317 -96 c 0,3,4
 317 -134 317 -134 329 -201 c 1,5,-1
 261 -212 l 1,6,7
 235 -160 235 -160 235 -95 c 0,8,9
 235 -36 235 -36 256 20 c 1,10,11
 221 169 221 169 161 310.5 c 128,-1,12
 101 452 101 452 43 507 c 1,13,-1
 128 537 l 1,14,15
 180 477 180 477 227 362.5 c 128,-1,16
 274 248 274 248 304 108 c 1,17,-1
 472 538 l 1,18,-1
 557 519 l 1,0,-1
EndSplineSet
Colour: ff0000
EndChar
StartChar: epsilon
Encoding: 949 949 719
Width: 600
Flags: W
LayerCount: 2
Fore
SplineSet
301 241 m 2,0,1
 234 241 234 241 204 220.5 c 128,-1,2
 174 200 174 200 174 155 c 256,3,4
 174 110 174 110 212 84 c 128,-1,5
 250 58 250 58 316 58 c 0,6,7
 420 58 420 58 501 116 c 1,8,-1
 546 59 l 1,9,10
 505 28 505 28 444 8.5 c 128,-1,11
 383 -11 383 -11 310 -11 c 0,12,13
 210 -11 210 -11 146.5 32 c 128,-1,14
 83 75 83 75 83 152 c 0,15,16
 83 210 83 210 116.5 241.5 c 128,-1,17
 150 273 150 273 215 282 c 1,18,19
 161 294 161 294 132.5 324 c 128,-1,20
 104 354 104 354 104 397 c 0,21,22
 104 464 104 464 164.5 501 c 128,-1,23
 225 538 225 538 316 538 c 0,24,25
 370 538 370 538 424 524.5 c 128,-1,26
 478 511 478 511 516 484 c 1,27,-1
 474 432 l 1,28,29
 409 470 409 470 319 470 c 0,30,31
 257 470 257 470 224 450 c 128,-1,32
 191 430 191 430 191 389 c 0,33,34
 191 352 191 352 222 330.5 c 128,-1,35
 253 309 253 309 307 309 c 2,36,-1
 401 309 l 1,37,-1
 391 241 l 1,38,-1
 301 241 l 2,0,1
EndSplineSet
Colour: ff0000
EndChar
StartChar: zeta
Encoding: 950 950 720
Width: 600
Flags: W
LayerCount: 2
Fore
SplineSet
530 682 m 1,0,1
 410 578 410 578 342.5 510 c 128,-1,2
 275 442 275 442 239 380 c 128,-1,3
 203 318 203 318 203 255 c 0,4,5
 203 206 203 206 218.5 177 c 128,-1,6
 234 148 234 148 266.5 129 c 128,-1,7
 299 110 299 110 360 90 c 0,8,9
 422 69 422 69 454 54.5 c 128,-1,10
 486 40 486 40 504.5 16.5 c 128,-1,11
 523 -7 523 -7 523 -45 c 0,12,13
 523 -101 523 -101 484.5 -144 c 128,-1,14
 446 -187 446 -187 366 -223 c 1,15,-1
 332 -162 l 1,16,17
 382 -137 382 -137 407 -113 c 128,-1,18
 432 -89 432 -89 432 -54 c 0,19,20
 432 -35 432 -35 422 -23.5 c 128,-1,21
 412 -12 412 -12 390.5 -3 c 128,-1,22
 369 6 369 6 319 23 c 0,23,24
 244 49 244 49 200 76 c 128,-1,25
 156 103 156 103 133.5 145 c 128,-1,26
 111 187 111 187 111 252 c 0,27,28
 111 320 111 320 146.5 386 c 128,-1,29
 182 452 182 452 255.5 522.5 c 128,-1,30
 329 593 329 593 449 682 c 1,31,32
 431 675 431 675 387.5 672.5 c 128,-1,33
 344 670 344 670 303 670 c 2,34,-1
 153 670 l 1,35,-1
 163 739 l 1,36,-1
 519 739 l 1,37,-1
 530 682 l 1,0,1
EndSplineSet
Colour: ff0000
EndChar
StartChar: eta
Encoding: 951 951 721
Width: 600
Flags: W
LayerCount: 2
Fore
SplineSet
500 382 m 2,1,-1
 500 -202 l 1,2,-1
 416 -212 l 1,3,-1
 416 320 l 2,4,5
 416 379 416 379 410 410 c 128,-1,6
 404 441 404 441 384.5 456 c 128,-1,7
 365 471 365 471 325 471 c 0,8,9
 283 471 283 471 245 445 c 128,-1,10
 207 419 207 419 184 384 c 1,11,-1
 184 0 l 1,12,-1
 100 0 l 1,13,-1
 100 354 l 2,14,15
 100 401 100 401 92.5 442.5 c 128,-1,16
 85 484 85 484 73 527 c 1,17,-1
 152 538 l 1,18,19
 159 525 159 525 166.5 497.5 c 128,-1,20
 174 470 174 470 176 450 c 1,21,22
 208 492 208 492 256 515 c 128,-1,23
 304 538 304 538 352 538 c 0,24,0
 500 538 500 538 500 382 c 2,1,-1
EndSplineSet
Colour: ff0000
EndChar
StartChar: kappa
Encoding: 954 954 724
Width: 600
Flags: W
LayerCount: 2
Fore
SplineSet
527 489 m 1,0,-1
 303 285 l 1,1,-1
 450 129 l 2,2,3
 483 95 483 95 506.5 80 c 128,-1,4
 530 65 530 65 561 58 c 1,5,-1
 531 -11 l 1,6,7
 491 -5 491 -5 461 13.5 c 128,-1,8
 431 32 431 32 398 67 c 2,9,-1
 200 282 l 1,10,-1
 457 538 l 1,11,-1
 527 489 l 1,0,-1
196 325 m 2,13,-1
 196 0 l 1,14,-1
 112 0 l 1,15,-1
 112 340 l 2,16,17
 112 433 112 433 87 527 c 1,18,-1
 169 527 l 1,19,12
 196 451 196 451 196 325 c 2,13,-1
EndSplineSet
Colour: ff0000
EndChar
StartChar: pi
Encoding: 960 960 730
Width: 600
Flags: W
LayerCount: 2
Fore
SplineSet
474 456 m 1,0,-1
 474 136 l 2,1,2
 474 97 474 97 485 80.5 c 128,-1,3
 496 64 496 64 524 58 c 1,4,-1
 494 -11 l 1,5,6
 437 3 437 3 413.5 34.5 c 128,-1,7
 390 66 390 66 390 127 c 2,8,-1
 390 456 l 1,9,-1
 199 456 l 1,10,-1
 199 0 l 1,11,-1
 114 0 l 1,12,-1
 114 456 l 1,13,14
 80 455 80 455 65.5 453 c 128,-1,15
 51 451 51 451 26 445 c 1,16,-1
 6 509 l 1,17,18
 30 520 30 520 59 523.5 c 128,-1,19
 88 527 88 527 136 527 c 2,20,-1
 558 527 l 1,21,-1
 558 456 l 1,22,-1
 474 456 l 1,0,-1
EndSplineSet
Colour: ff0000
EndChar
StartChar: sigma
Encoding: 963 963 733
Width: 600
Flags: W
LayerCount: 2
Fore
SplineSet
559 456 m 1,0,-1
 436 465 l 1,1,2
 477 440 477 440 500.5 386.5 c 128,-1,3
 524 333 524 333 524 254 c 256,4,5
 524 175 524 175 497.5 115 c 128,-1,6
 471 55 471 55 420 22 c 128,-1,7
 369 -11 369 -11 300 -11 c 0,8,9
 193 -11 193 -11 133 63 c 128,-1,10
 73 137 73 137 73 263 c 0,11,12
 73 387 73 387 139 459.5 c 128,-1,13
 205 532 205 532 322 532 c 0,14,15
 449 532 449 532 559 527 c 1,16,-1
 559 456 l 1,0,-1
400.5 108.5 m 128,-1,18
 434 159 434 159 434 264 c 0,19,20
 434 407 434 407 363 468 c 1,21,22
 299 468 299 468 256 451 c 128,-1,23
 213 434 213 434 188.5 389.5 c 128,-1,24
 164 345 164 345 164 263 c 0,25,26
 164 159 164 159 198 108.5 c 128,-1,27
 232 58 232 58 300 58 c 0,28,17
 367 58 367 58 400.5 108.5 c 128,-1,18
EndSplineSet
Colour: ff0000
EndChar
StartChar: chi
Encoding: 967 967 737
Width: 600
Flags: W
LayerCount: 2
Fore
SplineSet
553 -203 m 1,0,-1
 465 -210 l 1,1,-1
 307 123 l 1,2,-1
 145 -208 l 1,3,-1
 59 -202 l 1,4,-1
 256 183 l 1,5,6
 214 277 214 277 182.5 334 c 128,-1,7
 151 391 151 391 123 427.5 c 128,-1,8
 95 464 95 464 54 506 c 1,9,-1
 136 537 l 1,10,11
 185 487 185 487 224 420.5 c 128,-1,12
 263 354 263 354 307 239 c 1,13,-1
 445 534 l 1,14,-1
 534 529 l 1,15,-1
 357 188 l 1,16,-1
 553 -203 l 1,0,-1
EndSplineSet
Colour: ff0000
EndChar
StartChar: psi
Encoding: 968 968 738
Width: 600
Flags: W
LayerCount: 2
Fore
SplineSet
341 63 m 1,0,1
 399 70 399 70 430 94 c 128,-1,2
 461 118 461 118 472.5 158 c 128,-1,3
 484 198 484 198 484 262 c 0,4,5
 484 377 484 377 458 527 c 1,6,-1
 543 527 l 1,7,8
 556 456 556 456 562.5 392 c 128,-1,9
 569 328 569 328 569 254 c 0,10,11
 569 138 569 138 513 71 c 128,-1,12
 457 4 457 4 341 -6 c 1,13,-1
 341 -202 l 1,14,-1
 261 -212 l 1,15,-1
 261 -6 l 1,16,17
 151 2 151 2 96 57 c 128,-1,18
 41 112 41 112 41 193 c 2,19,-1
 41 527 l 1,20,-1
 125 527 l 1,21,-1
 125 201 l 2,22,23
 125 136 125 136 155.5 103.5 c 128,-1,24
 186 71 186 71 261 63 c 1,25,-1
 261 527 l 1,26,-1
 341 527 l 1,27,-1
 341 63 l 1,0,1
EndSplineSet
Colour: ff0000
EndChar
StartChar: uni03CF
Encoding: 975 975 608
Width: 600
Flags: W
LayerCount: 2
Fore
SplineSet
100 689 m 1,0,-1
 187 689 l 1,1,-1
 187 0 l 1,2,-1
 100 0 l 1,3,-1
 100 689 l 1,0,-1
574 -61 m 2,4,5
 574 -134 574 -134 535.5 -172.5 c 128,-1,6
 497 -211 497 -211 429 -211 c 0,7,8
 364 -211 364 -211 317 -174 c 1,9,-1
 350 -117 l 1,10,11
 369 -130 369 -130 385.5 -135.5 c 128,-1,12
 402 -141 402 -141 425 -141 c 0,13,14
 488 -141 488 -141 488 -66 c 2,15,-1
 488 0 l 1,16,-1
 454 0 l 1,17,-1
 192 368 l 1,18,-1
 441 689 l 1,19,-1
 544 689 l 1,20,-1
 294 373 l 1,21,-1
 511 72 l 1,22,-1
 574 72 l 1,23,-1
 574 -61 l 2,4,5
EndSplineSet
Colour: ff0000
EndChar
StartChar: uni03D1
Encoding: 977 977 764
Width: 600
Flags: W
LayerCount: 2
Fore
SplineSet
535 404 m 1,0,-1
 500 404 l 1,1,-1
 500 402 l 2,2,3
 500 -11 500 -11 266 -11 c 0,4,5
 221 -11 221 -11 182.5 9 c 128,-1,6
 144 29 144 29 120.5 68 c 128,-1,7
 97 107 97 107 97 161 c 2,8,-1
 97 349 l 1,9,-1
 182 349 l 1,10,-1
 182 171 l 2,11,12
 182 115 182 115 204 86.5 c 128,-1,13
 226 58 226 58 268 58 c 0,14,15
 337 58 337 58 371.5 137.5 c 128,-1,16
 406 217 406 217 406 402 c 2,17,-1
 406 404 l 1,18,-1
 293 404 l 2,19,20
 189 404 189 404 133 451.5 c 128,-1,21
 77 499 77 499 77 575 c 0,22,23
 77 623 77 623 101 663 c 128,-1,24
 125 703 125 703 167.5 726 c 128,-1,25
 210 749 210 749 262 749 c 0,26,27
 367 749 367 749 426 676.5 c 128,-1,28
 485 604 485 604 497 474 c 1,29,-1
 536 474 l 1,30,-1
 535 404 l 1,0,-1
404 473 m 1,31,32
 388 680 388 680 264 680 c 0,33,34
 218 680 218 680 190.5 651 c 128,-1,35
 163 622 163 622 163 577 c 0,36,37
 163 524 163 524 198 497.5 c 128,-1,38
 233 471 233 471 293 472 c 2,39,-1
 404 473 l 1,31,32
EndSplineSet
Colour: ff0000
EndChar
StartChar: uni03D6
Encoding: 982 982 766
Width: 600
Flags: W
LayerCount: 2
Fore
SplineSet
591 462 m 1,0,-1
 528 462 l 1,1,2
 572 360 572 360 572 240 c 0,3,4
 572 121 572 121 533.5 55 c 128,-1,5
 495 -11 495 -11 423 -11 c 0,6,7
 374 -11 374 -11 343 18.5 c 128,-1,8
 312 48 312 48 305 105 c 1,9,10
 294 49 294 49 263 19 c 128,-1,11
 232 -11 232 -11 186 -11 c 0,12,13
 114 -11 114 -11 77.5 53 c 128,-1,14
 41 117 41 117 41 240 c 0,15,16
 41 359 41 359 82 460 c 1,17,18
 52 459 52 459 23 450 c 1,19,-1
 9 512 l 1,20,21
 30 520 30 520 52 522.5 c 128,-1,22
 74 525 74 525 117 526 c 1,23,-1
 117 527 l 1,24,-1
 166 527 l 1,25,-1
 171 527 l 1,26,-1
 591 527 l 1,27,-1
 591 462 l 1,0,-1
482.5 352.5 m 128,-1,29
 477 404 477 404 462 462 c 1,30,-1
 148 461 l 1,31,32
 134 405 134 405 129.5 354 c 128,-1,33
 125 303 125 303 125 239 c 0,34,35
 125 152 125 152 141 105 c 128,-1,36
 157 58 157 58 196 58 c 0,37,38
 265 58 265 58 265 231 c 2,39,-1
 265 337 l 1,40,-1
 346 348 l 1,41,-1
 346 230 l 2,42,43
 346 147 346 147 361.5 102.5 c 128,-1,44
 377 58 377 58 416 58 c 0,45,46
 456 58 456 58 472 105 c 128,-1,47
 488 152 488 152 488 239 c 0,48,28
 488 301 488 301 482.5 352.5 c 128,-1,29
EndSplineSet
Colour: ff0000
EndChar
StartChar: uni03D8
Encoding: 984 984 603
Width: 600
Flags: W
LayerCount: 2
Fore
SplineSet
499 103.5 m 128,-1,1
 445 9 445 9 343 -8 c 1,2,-1
 343 -201 l 1,3,-1
 258 -201 l 1,4,-1
 258 -8 l 1,5,6
 155 8 155 8 101 101 c 128,-1,7
 47 194 47 194 47 343 c 0,8,9
 47 448 47 448 76 529 c 128,-1,10
 105 610 105 610 162 655 c 128,-1,11
 219 700 219 700 300 700 c 0,12,13
 422 700 422 700 487.5 603.5 c 128,-1,14
 553 507 553 507 553 344 c 0,15,0
 553 198 553 198 499 103.5 c 128,-1,1
424 132.5 m 128,-1,17
 463 203 463 203 463 344 c 256,18,19
 463 485 463 485 424 556 c 128,-1,20
 385 627 385 627 300 627 c 256,21,22
 215 627 215 627 176 555.5 c 128,-1,23
 137 484 137 484 137 343 c 0,24,25
 137 203 137 203 176.5 132.5 c 128,-1,26
 216 62 216 62 300 62 c 0,27,16
 385 62 385 62 424 132.5 c 128,-1,17
EndSplineSet
Colour: ff0000
EndChar
StartChar: uni03D9
Encoding: 985 985 757
Width: 600
Flags: W
LayerCount: 2
Fore
SplineSet
478.5 80 m 128,-1,1
 430 7 430 7 342 -8 c 1,2,-1
 342 -202 l 1,3,-1
 258 -212 l 1,4,-1
 258 -8 l 1,5,6
 169 6 169 6 121 78 c 128,-1,7
 73 150 73 150 73 263 c 0,8,9
 73 388 73 388 132.5 463 c 128,-1,10
 192 538 192 538 301 538 c 256,11,12
 410 538 410 538 468.5 464.5 c 128,-1,13
 527 391 527 391 527 264 c 0,14,0
 527 153 527 153 478.5 80 c 128,-1,1
402.5 108.5 m 128,-1,16
 436 159 436 159 436 264 c 0,17,18
 436 368 436 368 402.5 418.5 c 128,-1,19
 369 469 369 469 301 469 c 0,20,21
 232 469 232 469 198 418 c 128,-1,22
 164 367 164 367 164 263 c 256,23,24
 164 159 164 159 197.5 108.5 c 128,-1,25
 231 58 231 58 300 58 c 256,26,15
 369 58 369 58 402.5 108.5 c 128,-1,16
EndSplineSet
Colour: ff0000
EndChar
StartChar: uni03DA
Encoding: 986 986 604
Width: 600
Flags: W
LayerCount: 2
Fore
SplineSet
324 -156 m 1,0,1
 373 -135 373 -135 398 -111 c 128,-1,2
 423 -87 423 -87 423 -51 c 0,3,4
 423 -29 423 -29 411.5 -14 c 128,-1,5
 400 1 400 1 372.5 15.5 c 128,-1,6
 345 30 345 30 287 53 c 0,7,8
 175 99 175 99 124.5 171 c 128,-1,9
 74 243 74 243 74 365 c 0,10,11
 74 455 74 455 107 527.5 c 128,-1,12
 140 600 140 600 213.5 644.5 c 128,-1,13
 287 689 287 689 403 689 c 2,14,-1
 550 689 l 1,15,-1
 537 615 l 1,16,-1
 398 615 l 2,17,18
 283 615 283 615 224.5 548 c 128,-1,19
 166 481 166 481 166 367 c 0,20,21
 166 296 166 296 183 250 c 128,-1,22
 200 204 200 204 238.5 172.5 c 128,-1,23
 277 141 277 141 344 115 c 0,24,25
 435 79 435 79 474.5 44 c 128,-1,26
 514 9 514 9 514 -47 c 0,27,28
 514 -101 514 -101 477.5 -139.5 c 128,-1,29
 441 -178 441 -178 360 -214 c 1,30,-1
 324 -156 l 1,0,1
EndSplineSet
Colour: ff0000
EndChar
StartChar: uni03DC
Encoding: 988 988 605
Width: 600
Flags: W
LayerCount: 2
Fore
SplineSet
213 612 m 1,0,-1
 213 384 l 1,1,-1
 362 384 l 2,2,3
 397 384 397 384 419.5 379 c 128,-1,4
 442 374 442 374 466 363 c 1,5,-1
 443 297 l 1,6,7
 423 304 423 304 403.5 307.5 c 128,-1,8
 384 311 384 311 354 311 c 2,9,-1
 213 311 l 1,10,-1
 213 0 l 1,11,-1
 126 0 l 1,12,-1
 126 689 l 1,13,-1
 534 689 l 1,14,-1
 525 612 l 1,15,-1
 213 612 l 1,0,-1
EndSplineSet
Colour: ff0000
EndChar
StartChar: uni03DE
Encoding: 990 990 606
Width: 600
Flags: W
LayerCount: 2
Fore
SplineSet
304 0 m 1,0,-1
 205 0 l 1,1,-1
 432 310 l 1,2,-1
 88 310 l 1,3,-1
 71 385 l 1,4,-1
 296 689 l 1,5,-1
 395 689 l 1,6,-1
 169 385 l 1,7,-1
 513 385 l 1,8,-1
 530 310 l 1,9,-1
 304 0 l 1,0,-1
EndSplineSet
Colour: ff0000
EndChar
StartChar: uni03E1
Encoding: 993 993 761
Width: 600
Flags: W
LayerCount: 2
Fore
SplineSet
412 490.5 m 128,-1,1
 513 336 513 336 513 99 c 0,2,3
 513 22 513 22 501 -63 c 128,-1,4
 489 -148 489 -148 472 -211 c 1,5,-1
 395 -201 l 1,6,7
 426 -62 426 -62 426 99 c 0,8,9
 426 172 426 172 415 241 c 1,10,-1
 313 0 l 1,11,-1
 236 0 l 1,12,-1
 387 349 l 1,13,14
 368 404 368 404 337 453 c 1,15,-1
 118 0 l 1,16,-1
 31 0 l 1,17,-1
 286 521 l 1,18,19
 204 615 204 615 68 691 c 1,20,-1
 98 751 l 1,21,0
 311 645 311 645 412 490.5 c 128,-1,1
EndSplineSet
Colour: ff0000
EndChar
StartChar: uni03F0
Encoding: 1008 1008 767
Width: 600
Flags: W
LayerCount: 2
Fore
SplineSet
502 81 m 128,-1,1
 512 64 512 64 538 52 c 1,2,-1
 509 -11 l 1,3,4
 451 5 451 5 427.5 41 c 128,-1,5
 404 77 404 77 404 145 c 0,6,7
 404 186 404 186 420 375 c 1,8,-1
 424 431 l 1,9,-1
 208 -7 l 1,10,-1
 108 22 l 1,11,-1
 108 390 l 2,12,13
 108 428 108 428 98 445 c 128,-1,14
 88 462 88 462 62 474 c 1,15,-1
 91 538 l 1,16,17
 149 522 149 522 172.5 485.5 c 128,-1,18
 196 449 196 449 196 382 c 0,19,20
 196 336 196 336 180 147 c 1,21,-1
 176 96 l 1,22,-1
 392 534 l 1,23,-1
 492 505 l 1,24,-1
 492 136 l 2,25,0
 492 98 492 98 502 81 c 128,-1,1
EndSplineSet
Colour: ff0000
EndChar
StartChar: uni03F1
Encoding: 1009 1009 768
Width: 600
Flags: W
LayerCount: 2
Fore
SplineSet
419 -132 m 128,-1,1
 452 -151 452 -151 463 -183 c 1,2,-1
 385 -215 l 1,3,4
 377 -201 377 -201 367 -193.5 c 128,-1,5
 357 -186 357 -186 334.5 -180 c 128,-1,6
 312 -174 312 -174 263 -166 c 0,7,8
 174 -152 174 -152 134 -113.5 c 128,-1,9
 94 -75 94 -75 94 10 c 2,10,-1
 94 271 l 2,11,12
 94 403 94 403 147.5 470.5 c 128,-1,13
 201 538 201 538 306 538 c 0,14,15
 412 538 412 538 468 471 c 128,-1,16
 524 404 524 404 524 289 c 0,17,18
 524 219 524 219 500 158 c 128,-1,19
 476 97 476 97 429.5 59.5 c 128,-1,20
 383 22 383 22 317 22 c 0,21,22
 225 22 225 22 178 92 c 1,23,-1
 178 13 l 2,24,25
 178 -30 178 -30 189 -51 c 128,-1,26
 200 -72 200 -72 228.5 -83 c 128,-1,27
 257 -94 257 -94 318 -103 c 0,28,0
 386 -113 386 -113 419 -132 c 128,-1,1
207.5 417.5 m 128,-1,30
 178 364 178 364 178 256 c 2,31,-1
 178 168 l 1,32,33
 197 131 197 131 228.5 111 c 128,-1,34
 260 91 260 91 298 91 c 0,35,36
 363 91 363 91 398 144 c 128,-1,37
 433 197 433 197 433 289 c 0,38,39
 433 377 433 377 401 424 c 128,-1,40
 369 471 369 471 308 471 c 0,41,29
 237 471 237 471 207.5 417.5 c 128,-1,30
EndSplineSet
Colour: ff0000
EndChar
StartChar: uni03FC
Encoding: 1020 1020 774
Width: 600
Flags: W
LayerCount: 2
Fore
SplineSet
210 49 m 1,1,-1
 210 -65 l 1,2,-1
 370 -65 l 1,3,-1
 370 -133 l 1,4,-1
 210 -133 l 1,5,-1
 210 -202 l 1,6,-1
 126 -212 l 1,7,-1
 126 -133 l 1,8,-1
 45 -133 l 1,9,-1
 45 -65 l 1,10,-1
 126 -65 l 1,11,-1
 126 271 l 2,12,13
 126 402 126 402 180 470 c 128,-1,14
 234 538 234 538 338 538 c 0,15,16
 450 538 450 538 503 468.5 c 128,-1,17
 556 399 556 399 556 264 c 0,18,19
 556 188 556 188 533 125.5 c 128,-1,20
 510 63 510 63 463.5 26 c 128,-1,21
 417 -11 417 -11 350 -11 c 0,22,0
 263 -11 263 -11 210 49 c 1,1,-1
210 125 m 1,23,24
 230 94 230 94 262 76.5 c 128,-1,25
 294 59 294 59 331 59 c 0,26,27
 397 59 397 59 431 111.5 c 128,-1,28
 465 164 465 164 465 264 c 0,29,30
 465 369 465 369 433.5 420 c 128,-1,31
 402 471 402 471 336 471 c 0,32,33
 268 471 268 471 239 417.5 c 128,-1,34
 210 364 210 364 210 257 c 2,35,-1
 210 125 l 1,23,24
EndSplineSet
Colour: ff0000
EndChar
StartChar: uni03FE
Encoding: 1022 1022 617
Width: 600
Flags: W
LayerCount: 2
Fore
SplineSet
468 683.5 m 128,-1,1
 514 667 514 667 558 633 c 1,2,-1
 509 576 l 1,3,4
 448 627 448 627 364 627 c 0,5,6
 271 627 271 627 212.5 559.5 c 128,-1,7
 154 492 154 492 154 345 c 0,8,9
 154 199 154 199 211 131 c 128,-1,10
 268 63 268 63 363 63 c 0,11,12
 415 63 415 63 452 78 c 128,-1,13
 489 93 489 93 523 120 c 1,14,-1
 568 64 l 1,15,16
 491 -11 491 -11 362 -11 c 0,17,18
 277 -11 277 -11 209 30.5 c 128,-1,19
 141 72 141 72 102 152 c 128,-1,20
 63 232 63 232 63 345 c 0,21,22
 63 457 63 457 102.5 537.5 c 128,-1,23
 142 618 142 618 209.5 659 c 128,-1,24
 277 700 277 700 358 700 c 0,25,0
 422 700 422 700 468 683.5 c 128,-1,1
407 388.5 m 128,-1,27
 424 372 424 372 424 347 c 0,28,29
 424 320 424 320 407 303.5 c 128,-1,30
 390 287 390 287 362 287 c 0,31,32
 335 287 335 287 318.5 304 c 128,-1,33
 302 321 302 321 302 347 c 0,34,35
 302 372 302 372 318.5 388.5 c 128,-1,36
 335 405 335 405 362 405 c 0,37,26
 390 405 390 405 407 388.5 c 128,-1,27
EndSplineSet
Colour: ff0000
EndChar
StartChar: uni03FF
Encoding: 1023 1023 618
Width: 600
Flags: W
LayerCount: 2
Fore
SplineSet
461 608 m 128,-1,1
 537 516 537 516 537 345 c 0,2,3
 537 232 537 232 498 152 c 128,-1,4
 459 72 459 72 391 30.5 c 128,-1,5
 323 -11 323 -11 238 -11 c 0,6,7
 109 -11 109 -11 32 64 c 1,8,-1
 77 121 l 1,9,10
 110 94 110 94 147.5 78.5 c 128,-1,11
 185 63 185 63 237 63 c 0,12,13
 332 63 332 63 389 131 c 128,-1,14
 446 199 446 199 446 345 c 0,15,16
 446 496 446 496 394.5 561.5 c 128,-1,17
 343 627 343 627 245 627 c 0,18,19
 158 627 158 627 84 576 c 1,20,-1
 42 633 l 1,21,22
 91 667 91 667 139 683.5 c 128,-1,23
 187 700 187 700 252 700 c 0,24,0
 385 700 385 700 461 608 c 128,-1,1
280 388.5 m 128,-1,26
 297 372 297 372 297 347 c 0,27,28
 297 320 297 320 280 303.5 c 128,-1,29
 263 287 263 287 235 287 c 0,30,31
 208 287 208 287 191.5 304 c 128,-1,32
 175 321 175 321 175 347 c 0,33,34
 175 372 175 372 191.5 388.5 c 128,-1,35
 208 405 208 405 235 405 c 0,36,25
 263 405 263 405 280 388.5 c 128,-1,26
EndSplineSet
Colour: ff0000
EndChar
StartChar: uni0402
Encoding: 1026 1026 331
Width: 600
Flags: W
LayerCount: 2
Fore
SplineSet
244 390 m 1,0,1
 309 450 309 450 388 450 c 0,2,3
 566 450 566 450 566 246 c 2,4,-1
 566 96 l 2,5,6
 566 -3 566 -3 523.5 -54 c 128,-1,7
 481 -105 481 -105 393 -135 c 1,8,-1
 371 -66 l 1,9,10
 415 -48 415 -48 438.5 -28 c 128,-1,11
 462 -8 462 -8 471 20.5 c 128,-1,12
 480 49 480 49 480 95 c 2,13,-1
 480 240 l 2,14,15
 480 312 480 312 454.5 343 c 128,-1,16
 429 374 429 374 369 374 c 0,17,18
 327 374 327 374 297.5 359 c 128,-1,19
 268 344 268 344 244 321 c 1,20,-1
 244 0 l 1,21,-1
 157 0 l 1,22,-1
 157 616 l 1,23,-1
 -5 616 l 1,24,-1
 -5 689 l 1,25,-1
 413 689 l 1,26,-1
 404 616 l 1,27,-1
 244 616 l 1,28,-1
 244 390 l 1,0,1
EndSplineSet
Colour: ff0000
EndChar
StartChar: uni0409
Encoding: 1033 1033 320
Width: 600
Flags: W
LayerCount: 2
Fore
SplineSet
355 433 m 1,0,1
 479 433 479 433 539.5 381.5 c 128,-1,2
 600 330 600 330 600 221 c 0,3,4
 600 0 600 0 363 0 c 2,5,-1
 269 0 l 1,6,-1
 269 617 l 1,7,-1
 175 617 l 1,8,-1
 152 311 l 2,9,10
 143 192 143 192 130 131 c 128,-1,11
 117 70 117 70 98.5 42.5 c 128,-1,12
 80 15 80 15 46 -11 c 1,13,-1
 2 46 l 1,14,15
 20 66 20 66 31 90.5 c 128,-1,16
 42 115 42 115 51.5 167 c 128,-1,17
 61 219 61 219 69 313 c 2,18,-1
 99 689 l 1,19,-1
 355 689 l 1,20,-1
 355 433 l 1,0,1
355 366 m 1,21,-1
 355 70 l 1,22,-1
 370 70 l 2,23,24
 442 70 442 70 476 102 c 128,-1,25
 510 134 510 134 510 220 c 0,26,27
 510 299 510 299 475.5 332.5 c 128,-1,28
 441 366 441 366 371 366 c 2,29,-1
 355 366 l 1,21,-1
EndSplineSet
Colour: ff0000
EndChar
StartChar: uni040F
Encoding: 1039 1039 316
Width: 600
Flags: W
LayerCount: 2
Fore
SplineSet
517 0 m 1,0,-1
 342 0 l 1,1,-1
 342 -147 l 1,2,-1
 273 -147 l 1,3,-1
 259 0 l 1,4,-1
 83 0 l 1,5,-1
 83 689 l 1,6,-1
 170 689 l 1,7,-1
 170 72 l 1,8,-1
 243 72 l 1,9,-1
 243 73 l 1,10,-1
 342 73 l 1,11,-1
 342 72 l 1,12,-1
 430 72 l 1,13,-1
 430 689 l 1,14,-1
 517 689 l 1,15,-1
 517 0 l 1,0,-1
EndSplineSet
Colour: ff0000
EndChar
StartChar: uni0411
Encoding: 1041 1041 283
Width: 600
Flags: W
LayerCount: 2
Fore
SplineSet
477 616 m 1,0,-1
 187 616 l 1,1,-1
 187 421 l 1,2,-1
 274 421 l 2,3,4
 403 421 403 421 472.5 370.5 c 128,-1,5
 542 320 542 320 542 215 c 0,6,7
 542 102 542 102 471 51 c 128,-1,8
 400 0 400 0 275 0 c 2,9,-1
 101 0 l 1,10,-1
 101 689 l 1,11,-1
 485 689 l 1,12,-1
 477 616 l 1,0,-1
187 352 m 1,13,-1
 187 70 l 1,14,-1
 286 70 l 2,15,16
 366 70 366 70 409 101 c 128,-1,17
 452 132 452 132 452 214 c 0,18,19
 452 286 452 286 407.5 319 c 128,-1,20
 363 352 363 352 287 352 c 2,21,-1
 187 352 l 1,13,-1
EndSplineSet
Colour: ff0000
EndChar
StartChar: uni0413
Encoding: 1043 1043 285
Width: 600
Flags: W
LayerCount: 2
Fore
SplineSet
535 612 m 1,0,-1
 223 612 l 1,1,-1
 223 0 l 1,2,-1
 136 0 l 1,3,-1
 136 689 l 1,4,-1
 544 689 l 1,5,-1
 535 612 l 1,0,-1
EndSplineSet
Colour: ff0000
EndChar
StartChar: uni0414
Encoding: 1044 1044 288
Width: 600
Flags: W
LayerCount: 2
Fore
SplineSet
565 73 m 1,0,-1
 565 -147 l 1,1,-1
 496 -147 l 1,2,-1
 481 0 l 1,3,-1
 460 0 l 1,4,-1
 105 0 l 1,5,-1
 83 0 l 1,6,-1
 69 -147 l 1,7,-1
 0 -147 l 1,8,-1
 0 73 l 1,9,-1
 43 73 l 1,10,11
 69 98 69 98 83 134.5 c 128,-1,12
 97 171 97 171 107 231 c 128,-1,13
 117 291 117 291 136 438 c 0,14,15
 137 449 137 449 139 462 c 128,-1,16
 141 475 141 475 143 491 c 2,17,-1
 168 689 l 1,18,-1
 514 689 l 1,19,-1
 514 73 l 1,20,-1
 565 73 l 1,0,-1
426 615 m 1,21,-1
 245 615 l 1,22,-1
 230 485 l 2,23,24
 211 324 211 324 200 254 c 128,-1,25
 189 184 189 184 173 142 c 128,-1,26
 157 100 157 100 127 73 c 1,27,-1
 426 73 l 1,28,-1
 426 615 l 1,21,-1
EndSplineSet
Colour: ff0000
EndChar
StartChar: uni041A
Encoding: 1050 1050 298
Width: 600
Flags: W
LayerCount: 2
Fore
SplineSet
181 326 m 1,0,-1
 181 0 l 1,1,-1
 95 0 l 1,2,-1
 95 689 l 1,3,-1
 181 689 l 1,4,-1
 181 399 l 1,5,-1
 262 399 l 1,6,-1
 474 689 l 1,7,-1
 568 689 l 1,8,-1
 336 364 l 1,9,-1
 587 0 l 1,10,-1
 482 0 l 1,11,-1
 261 326 l 1,12,-1
 181 326 l 1,0,-1
EndSplineSet
Colour: ff0000
EndChar
StartChar: uni041B
Encoding: 1051 1051 300
Width: 600
Flags: W
LayerCount: 2
Fore
SplineSet
517 0 m 1,0,-1
 430 0 l 1,1,-1
 430 614 l 1,2,-1
 245 614 l 1,3,-1
 220 410 l 2,4,5
 201 254 201 254 180 175 c 128,-1,6
 159 96 159 96 132 60 c 128,-1,7
 105 24 105 24 53 -11 c 1,8,-1
 15 53 l 1,9,10
 44 77 44 77 61 103 c 128,-1,11
 78 129 78 129 96 195 c 128,-1,12
 114 261 114 261 130 386 c 2,13,-1
 169 689 l 1,14,-1
 517 689 l 1,15,-1
 517 0 l 1,0,-1
EndSplineSet
Colour: ff0000
EndChar
StartChar: uni041F
Encoding: 1055 1055 304
Width: 600
Flags: W
LayerCount: 2
Fore
SplineSet
430 613 m 1,0,-1
 170 613 l 1,1,-1
 170 0 l 1,2,-1
 83 0 l 1,3,-1
 83 689 l 1,4,-1
 517 689 l 1,5,-1
 517 0 l 1,6,-1
 430 0 l 1,7,-1
 430 613 l 1,0,-1
EndSplineSet
Colour: ff0000
EndChar
StartChar: uni0423
Encoding: 1059 1059 308
Width: 600
Flags: W
LayerCount: 2
Fore
SplineSet
369 180 m 2,0,1
 344 119 344 119 314.5 81.5 c 128,-1,2
 285 44 285 44 239 21 c 128,-1,3
 193 -2 193 -2 122 -11 c 1,4,-1
 109 58 l 1,5,6
 169 67 169 67 203.5 83 c 128,-1,7
 238 99 238 99 257 123.5 c 128,-1,8
 276 148 276 148 291 190 c 1,9,-1
 254 190 l 1,10,-1
 26 689 l 1,11,-1
 117 689 l 1,12,-1
 313 246 l 1,13,-1
 493 689 l 1,14,-1
 580 689 l 1,15,-1
 369 180 l 2,0,1
EndSplineSet
Colour: ff0000
EndChar
StartChar: uni0424
Encoding: 1060 1060 310
Width: 600
Flags: W
LayerCount: 2
Fore
SplineSet
342 659 m 1,0,1
 467 650 467 650 527 572.5 c 128,-1,2
 587 495 587 495 587 347 c 0,3,4
 587 195 587 195 524 116 c 128,-1,5
 461 37 461 37 342 31 c 1,6,-1
 342 -29 l 1,7,-1
 258 -29 l 1,8,-1
 258 31 l 1,9,10
 138 36 138 36 75.5 115 c 128,-1,11
 13 194 13 194 13 347 c 0,12,13
 13 495 13 495 73 572.5 c 128,-1,14
 133 650 133 650 258 659 c 1,15,-1
 258 718 l 1,16,-1
 342 718 l 1,17,-1
 342 659 l 1,0,1
139 535 m 128,-1,19
 101 478 101 478 101 347 c 0,20,21
 101 220 101 220 138 161.5 c 128,-1,22
 175 103 175 103 259 95 c 1,23,-1
 259 595 l 1,24,18
 177 592 177 592 139 535 c 128,-1,19
341 95 m 1,25,26
 425 103 425 103 462 161.5 c 128,-1,27
 499 220 499 220 499 347 c 0,28,29
 499 478 499 478 461 535 c 128,-1,30
 423 592 423 592 341 595 c 1,31,-1
 341 95 l 1,25,26
EndSplineSet
Colour: ff0000
EndChar
StartChar: uni0427
Encoding: 1063 1063 312
Width: 600
Flags: W
LayerCount: 2
Fore
SplineSet
517 689 m 1,0,-1
 517 0 l 1,1,-1
 430 0 l 1,2,-1
 430 282 l 1,3,4
 384 248 384 248 344 233.5 c 128,-1,5
 304 219 304 219 251 219 c 0,6,7
 161 219 161 219 106 274.5 c 128,-1,8
 51 330 51 330 51 423 c 2,9,-1
 51 689 l 1,10,-1
 137 689 l 1,11,-1
 137 430 l 2,12,13
 137 362 137 362 172 328.5 c 128,-1,14
 207 295 207 295 273 295 c 0,15,16
 369 295 369 295 430 356 c 1,17,-1
 430 689 l 1,18,-1
 517 689 l 1,0,-1
EndSplineSet
Colour: ff0000
EndChar
StartChar: uni0428
Encoding: 1064 1064 314
Width: 600
Flags: W
LayerCount: 2
Fore
SplineSet
554 0 m 1,0,-1
 46 0 l 1,1,-1
 46 689 l 1,2,-1
 128 689 l 1,3,-1
 128 73 l 1,4,-1
 261 73 l 1,5,-1
 261 689 l 1,6,-1
 339 689 l 1,7,-1
 339 73 l 1,8,-1
 472 73 l 1,9,-1
 472 689 l 1,10,-1
 554 689 l 1,11,-1
 554 0 l 1,0,-1
EndSplineSet
Colour: ff0000
EndChar
StartChar: uni0429
Encoding: 1065 1065 315
Width: 600
Flags: W
LayerCount: 2
Fore
SplineSet
615 73 m 1,0,-1
 615 -147 l 1,1,-1
 546 -147 l 1,2,-1
 532 0 l 1,3,-1
 46 0 l 1,4,-1
 46 689 l 1,5,-1
 128 689 l 1,6,-1
 128 73 l 1,7,-1
 261 73 l 1,8,-1
 261 689 l 1,9,-1
 339 689 l 1,10,-1
 339 73 l 1,11,-1
 472 73 l 1,12,-1
 472 689 l 1,13,-1
 554 689 l 1,14,-1
 554 73 l 1,15,-1
 615 73 l 1,0,-1
EndSplineSet
Colour: ff0000
EndChar
StartChar: uni042A
Encoding: 1066 1066 318
Width: 600
Flags: W
LayerCount: 2
Fore
SplineSet
209 433 m 1,0,-1
 315 433 l 2,1,2
 443 433 443 433 512 381.5 c 128,-1,3
 581 330 581 330 581 221 c 0,4,5
 581 106 581 106 510 53 c 128,-1,6
 439 0 439 0 316 0 c 2,7,-1
 121 0 l 1,8,-1
 121 612 l 1,9,-1
 0 612 l 1,10,-1
 0 689 l 1,11,-1
 209 689 l 1,12,-1
 209 433 l 1,0,-1
209 364 m 1,13,-1
 209 71 l 1,14,-1
 331 71 l 2,15,16
 407 71 407 71 449 103.5 c 128,-1,17
 491 136 491 136 491 220 c 0,18,19
 491 296 491 296 447.5 330 c 128,-1,20
 404 364 404 364 329 364 c 2,21,-1
 209 364 l 1,13,-1
EndSplineSet
Colour: ff0000
EndChar
StartChar: uni042C
Encoding: 1068 1068 317
Width: 600
Flags: W
LayerCount: 2
Fore
SplineSet
181 433 m 1,0,-1
 285 433 l 2,1,2
 413 433 413 433 482 381.5 c 128,-1,3
 551 330 551 330 551 221 c 0,4,5
 551 107 551 107 480 53.5 c 128,-1,6
 409 0 409 0 286 0 c 2,7,-1
 94 0 l 1,8,-1
 94 689 l 1,9,-1
 181 689 l 1,10,-1
 181 433 l 1,0,-1
181 364 m 1,11,-1
 181 71 l 1,12,-1
 296 71 l 2,13,14
 374 71 374 71 416.5 103.5 c 128,-1,15
 459 136 459 136 459 220 c 0,16,17
 459 296 459 296 415.5 330 c 128,-1,18
 372 364 372 364 297 364 c 2,19,-1
 181 364 l 1,11,-1
EndSplineSet
Colour: ff0000
EndChar
StartChar: uni042D
Encoding: 1069 1069 324
Width: 600
Flags: W
LayerCount: 2
Fore
SplineSet
467.5 612 m 128,-1,1
 539 524 539 524 539 353 c 0,2,3
 539 176 539 176 465 82.5 c 128,-1,4
 391 -11 391 -11 261 -11 c 0,5,6
 195 -11 195 -11 138 12.5 c 128,-1,7
 81 36 81 36 42 77 c 1,8,-1
 94 126 l 1,9,10
 131 93 131 93 169.5 77 c 128,-1,11
 208 61 208 61 256 61 c 0,12,13
 347 61 347 61 395 123.5 c 128,-1,14
 443 186 443 186 449 317 c 1,15,-1
 146 317 l 1,16,-1
 146 391 l 1,17,-1
 449 391 l 1,18,19
 442 517 442 517 396 573 c 128,-1,20
 350 629 350 629 265 629 c 0,21,22
 212 629 212 629 173.5 611.5 c 128,-1,23
 135 594 135 594 98 564 c 1,24,-1
 50 615 l 1,25,26
 148 700 148 700 269 700 c 0,27,0
 396 700 396 700 467.5 612 c 128,-1,1
EndSplineSet
Colour: ff0000
EndChar
StartChar: uni042E
Encoding: 1070 1070 329
Width: 600
Flags: W
LayerCount: 2
Fore
SplineSet
536 613 m 128,-1,1
 579 526 579 526 579 344 c 0,2,3
 579 168 579 168 533.5 78.5 c 128,-1,4
 488 -11 488 -11 388 -11 c 0,5,6
 286 -11 286 -11 243 75 c 128,-1,7
 200 161 200 161 198 321 c 1,8,-1
 130 321 l 1,9,-1
 130 0 l 1,10,-1
 47 0 l 1,11,-1
 47 689 l 1,12,-1
 130 689 l 1,13,-1
 130 393 l 1,14,-1
 199 393 l 1,15,16
 205 547 205 547 249 623.5 c 128,-1,17
 293 700 293 700 388 700 c 0,18,0
 493 700 493 700 536 613 c 128,-1,1
328.5 602 m 128,-1,20
 307 575 307 575 297 513.5 c 128,-1,21
 287 452 287 452 287 345 c 0,22,23
 287 237 287 237 297 175.5 c 128,-1,24
 307 114 307 114 328.5 87 c 128,-1,25
 350 60 350 60 388 60 c 0,26,27
 424 60 424 60 446 87 c 128,-1,28
 468 114 468 114 479 176 c 128,-1,29
 490 238 490 238 490 344 c 0,30,31
 490 449 490 449 479 511.5 c 128,-1,32
 468 574 468 574 446 601.5 c 128,-1,33
 424 629 424 629 388 629 c 0,34,19
 350 629 350 629 328.5 602 c 128,-1,20
EndSplineSet
Colour: ff0000
EndChar
StartChar: uni042F
Encoding: 1071 1071 330
Width: 600
Flags: W
LayerCount: 2
Fore
SplineSet
517 0 m 1,0,-1
 430 0 l 1,1,-1
 430 277 l 1,2,-1
 277 277 l 1,3,-1
 131 0 l 1,4,-1
 33 0 l 1,5,-1
 195 297 l 1,6,7
 136 324 136 324 105.5 372.5 c 128,-1,8
 75 421 75 421 75 484 c 0,9,10
 75 582 75 582 142 635.5 c 128,-1,11
 209 689 209 689 336 689 c 2,12,-1
 517 689 l 1,13,-1
 517 0 l 1,0,-1
325 619 m 2,14,15
 245 619 245 619 206.5 586.5 c 128,-1,16
 168 554 168 554 168 485 c 0,17,18
 168 347 168 347 307 347 c 2,19,-1
 430 347 l 1,20,-1
 430 619 l 1,21,-1
 325 619 l 2,14,15
EndSplineSet
Colour: ff0000
EndChar
StartChar: uni0433
Encoding: 1075 1075 422
Width: 600
Flags: W
LayerCount: 2
Fore
SplineSet
158 0 m 1,0,-1
 158 527 l 1,1,-1
 524 527 l 1,2,-1
 514 456 l 1,3,-1
 242 456 l 1,4,-1
 242 0 l 1,5,-1
 158 0 l 1,0,-1
EndSplineSet
Colour: ff0000
EndChar
StartChar: uni0434
Encoding: 1076 1076 425
Width: 600
Flags: W
LayerCount: 2
Fore
SplineSet
535 69 m 1,0,-1
 535 -147 l 1,1,-1
 465 -147 l 1,2,-1
 451 0 l 1,3,-1
 111 0 l 1,4,-1
 96 -147 l 1,5,-1
 26 -147 l 1,6,-1
 26 69 l 1,7,-1
 62 69 l 1,8,9
 87 91 87 91 102 121.5 c 128,-1,10
 117 152 117 152 127.5 207 c 128,-1,11
 138 262 138 262 145 357 c 2,12,-1
 156 527 l 1,13,-1
 496 527 l 1,14,-1
 496 69 l 1,15,-1
 535 69 l 1,0,-1
411 458 m 1,16,-1
 233 458 l 1,17,-1
 226 363 l 2,18,19
 219 263 219 263 209 208 c 128,-1,20
 199 153 199 153 182 122 c 128,-1,21
 165 91 165 91 134 69 c 1,22,-1
 143 69 l 1,23,-1
 411 69 l 1,24,-1
 411 458 l 1,16,-1
EndSplineSet
Colour: ff0000
EndChar
StartChar: uni0437
Encoding: 1079 1079 430
Width: 600
Flags: W
LayerCount: 2
Fore
SplineSet
286 309 m 2,0,1
 339 309 339 309 369.5 331 c 128,-1,2
 400 353 400 353 400 389 c 0,3,4
 400 470 400 470 276 470 c 0,5,6
 235 470 235 470 192 458 c 128,-1,7
 149 446 149 446 113 424 c 1,8,-1
 73 474 l 1,9,10
 113 504 113 504 168 521 c 128,-1,11
 223 538 223 538 279 538 c 0,12,13
 370 538 370 538 429 500.5 c 128,-1,14
 488 463 488 463 488 394 c 0,15,16
 488 352 488 352 459 323.5 c 128,-1,17
 430 295 430 295 381 281 c 1,18,19
 413 280 413 280 444.5 265 c 128,-1,20
 476 250 476 250 496.5 222 c 128,-1,21
 517 194 517 194 517 157 c 0,22,23
 517 76 517 76 451 32.5 c 128,-1,24
 385 -11 385 -11 278 -11 c 0,25,26
 143 -11 143 -11 54 62 c 1,27,-1
 94 116 l 1,28,29
 175 58 175 58 281 58 c 0,30,31
 352 58 352 58 389 84 c 128,-1,32
 426 110 426 110 426 155 c 0,33,34
 426 241 426 241 292 241 c 2,35,-1
 186 241 l 1,36,-1
 191 309 l 1,37,-1
 286 309 l 2,0,1
EndSplineSet
Colour: ff0000
EndChar
StartChar: uni0438
Encoding: 1080 1080 431
Width: 600
Flags: W
LayerCount: 2
Fore
SplineSet
500 0 m 1,0,-1
 416 0 l 1,1,-1
 416 246 l 2,2,3
 416 320 416 320 420.5 371 c 128,-1,4
 425 422 425 422 425 427 c 1,5,-1
 203 0 l 1,6,-1
 100 0 l 1,7,-1
 100 527 l 1,8,-1
 184 527 l 1,9,-1
 184 280 l 2,10,11
 184 217 184 217 180 162.5 c 128,-1,12
 176 108 176 108 176 103 c 1,13,-1
 395 527 l 1,14,-1
 500 527 l 1,15,-1
 500 0 l 1,0,-1
EndSplineSet
Colour: ff0000
EndChar
StartChar: uni043A
Encoding: 1082 1082 435
Width: 600
Flags: W
LayerCount: 2
Fore
SplineSet
106 527 m 1,0,-1
 190 527 l 1,1,-1
 190 313 l 1,2,-1
 295 313 l 1,3,-1
 447 527 l 1,4,-1
 542 527 l 1,5,-1
 364 283 l 1,6,-1
 569 0 l 1,7,-1
 467 0 l 1,8,-1
 293 245 l 1,9,-1
 190 245 l 1,10,-1
 190 0 l 1,11,-1
 106 0 l 1,12,-1
 106 527 l 1,0,-1
EndSplineSet
Colour: ff0000
EndChar
StartChar: uni043B
Encoding: 1083 1083 437
Width: 600
Flags: W
LayerCount: 2
Fore
SplineSet
510 0 m 1,0,-1
 426 0 l 1,1,-1
 426 456 l 1,2,-1
 229 456 l 1,3,-1
 217 317 l 2,4,5
 207 199 207 199 192.5 139 c 128,-1,6
 178 79 178 79 153 48 c 128,-1,7
 128 17 128 17 78 -11 c 1,8,-1
 42 43 l 1,9,10
 71 61 71 61 87.5 83.5 c 128,-1,11
 104 106 104 106 116.5 159 c 128,-1,12
 129 212 129 212 137 314 c 2,13,-1
 153 527 l 1,14,-1
 510 527 l 1,15,-1
 510 0 l 1,0,-1
EndSplineSet
Colour: ff0000
EndChar
StartChar: uni043C
Encoding: 1084 1084 438
Width: 600
Flags: W
LayerCount: 2
Fore
SplineSet
558 0 m 1,0,-1
 477 0 l 1,1,-1
 457 257 l 1,2,3
 451 347 451 347 451 398 c 1,4,-1
 452 443 l 1,5,-1
 448 443 l 1,6,-1
 343 88 l 1,7,-1
 260 88 l 1,8,-1
 144 443 l 1,9,-1
 140 443 l 1,10,11
 141 427 141 427 141 392 c 0,12,13
 141 339 141 339 137 259 c 2,14,-1
 122 0 l 1,15,-1
 42 0 l 1,16,-1
 80 527 l 1,17,-1
 190 527 l 1,18,-1
 303 167 l 1,19,-1
 407 527 l 1,20,-1
 519 527 l 1,21,-1
 558 0 l 1,0,-1
EndSplineSet
Colour: ff0000
EndChar
StartChar: uni043D
Encoding: 1085 1085 439
Width: 600
Flags: W
LayerCount: 2
Fore
SplineSet
416 234 m 1,0,-1
 184 234 l 1,1,-1
 184 0 l 1,2,-1
 100 0 l 1,3,-1
 100 527 l 1,4,-1
 184 527 l 1,5,-1
 184 303 l 1,6,-1
 416 303 l 1,7,-1
 416 527 l 1,8,-1
 500 527 l 1,9,-1
 500 0 l 1,10,-1
 416 0 l 1,11,-1
 416 234 l 1,0,-1
EndSplineSet
Colour: ff0000
EndChar
StartChar: uni0442
Encoding: 1090 1090 444
Width: 600
Flags: W
LayerCount: 2
Fore
SplineSet
530 457 m 1,0,-1
 342 457 l 1,1,-1
 342 0 l 1,2,-1
 258 0 l 1,3,-1
 258 457 l 1,4,-1
 65 457 l 1,5,-1
 65 527 l 1,6,-1
 541 527 l 1,7,-1
 530 457 l 1,0,-1
EndSplineSet
Colour: ff0000
EndChar
StartChar: uni0444
Encoding: 1092 1092 447
Width: 600
Flags: W
LayerCount: 2
Fore
SplineSet
338 738 m 1,0,-1
 338 484 l 1,1,2
 379 538 379 538 436 538 c 0,3,4
 510 538 510 538 540.5 467.5 c 128,-1,5
 571 397 571 397 571 264 c 0,6,7
 571 138 571 138 533.5 63.5 c 128,-1,8
 496 -11 496 -11 427 -11 c 0,9,10
 403 -11 403 -11 380 3 c 128,-1,11
 357 17 357 17 338 45 c 1,12,-1
 338 -201 l 1,13,-1
 262 -212 l 1,14,-1
 262 45 l 1,15,16
 243 18 243 18 219 3.5 c 128,-1,17
 195 -11 195 -11 171 -11 c 0,18,19
 102 -11 102 -11 65.5 63 c 128,-1,20
 29 137 29 137 29 264 c 0,21,22
 29 396 29 396 61.5 467 c 128,-1,23
 94 538 94 538 169 538 c 0,24,25
 223 538 223 538 262 486 c 1,26,-1
 262 749 l 1,27,-1
 338 738 l 1,0,-1
133.5 422.5 m 128,-1,29
 116 374 116 374 116 264 c 0,30,31
 116 153 116 153 133.5 104 c 128,-1,32
 151 55 151 55 188 55 c 0,33,34
 208 55 208 55 223.5 66.5 c 128,-1,35
 239 78 239 78 262 106 c 1,36,-1
 262 424 l 1,37,38
 241 450 241 450 225.5 460.5 c 128,-1,39
 210 471 210 471 188 471 c 0,40,28
 151 471 151 471 133.5 422.5 c 128,-1,29
376 460 m 128,-1,42
 358 449 358 449 338 423 c 1,43,-1
 338 106 l 1,44,45
 357 79 357 79 373 67 c 128,-1,46
 389 55 389 55 410 55 c 0,47,48
 448 55 448 55 466.5 105 c 128,-1,49
 485 155 485 155 485 264 c 0,50,51
 485 376 485 376 469.5 423.5 c 128,-1,52
 454 471 454 471 417 471 c 0,53,41
 394 471 394 471 376 460 c 128,-1,42
EndSplineSet
Colour: ff0000
EndChar
StartChar: uni0448
Encoding: 1096 1096 451
Width: 600
Flags: W
LayerCount: 2
Fore
SplineSet
551 0 m 1,0,-1
 49 0 l 1,1,-1
 49 527 l 1,2,-1
 128 527 l 1,3,-1
 128 70 l 1,4,-1
 261 70 l 1,5,-1
 261 527 l 1,6,-1
 339 527 l 1,7,-1
 339 70 l 1,8,-1
 473 70 l 1,9,-1
 473 527 l 1,10,-1
 551 527 l 1,11,-1
 551 0 l 1,0,-1
EndSplineSet
Colour: ff0000
EndChar
StartChar: uni044E
Encoding: 1102 1102 466
Width: 600
Flags: W
LayerCount: 2
Fore
SplineSet
522 466.5 m 128,-1,1
 568 395 568 395 568 264 c 0,2,3
 568 136 568 136 522.5 62.5 c 128,-1,4
 477 -11 477 -11 385 -11 c 0,5,6
 298 -11 298 -11 254 55.5 c 128,-1,7
 210 122 210 122 205 234 c 1,8,-1
 138 234 l 1,9,-1
 138 0 l 1,10,-1
 56 0 l 1,11,-1
 56 527 l 1,12,-1
 138 527 l 1,13,-1
 138 304 l 1,14,-1
 205 304 l 1,15,16
 211 416 211 416 255.5 477 c 128,-1,17
 300 538 300 538 385 538 c 0,18,0
 476 538 476 538 522 466.5 c 128,-1,1
312 420.5 m 128,-1,20
 292 372 292 372 292 263 c 0,21,22
 292 160 292 160 312 109 c 128,-1,23
 332 58 332 58 385 58 c 0,24,25
 439 58 439 58 459 109 c 128,-1,26
 479 160 479 160 479 264 c 0,27,28
 479 371 479 371 458 420 c 128,-1,29
 437 469 437 469 385 469 c 0,30,19
 332 469 332 469 312 420.5 c 128,-1,20
EndSplineSet
Colour: ff0000
EndChar
StartChar: uni044F
Encoding: 1103 1103 467
Width: 600
Flags: W
LayerCount: 2
Fore
SplineSet
486 527 m 1,0,-1
 486 0 l 1,1,-1
 402 0 l 1,2,-1
 402 204 l 1,3,-1
 260 204 l 1,4,-1
 148 0 l 1,5,-1
 53 0 l 1,6,-1
 178 223 l 1,7,8
 85 267 85 267 85 367 c 0,9,10
 85 445 85 445 139.5 486 c 128,-1,11
 194 527 194 527 293 527 c 2,12,-1
 486 527 l 1,0,-1
402 271 m 1,13,-1
 402 459 l 1,14,-1
 291 459 l 2,15,16
 232 459 232 459 203 437 c 128,-1,17
 174 415 174 415 174 367 c 0,18,19
 174 316 174 316 200.5 293.5 c 128,-1,20
 227 271 227 271 288 271 c 2,21,-1
 402 271 l 1,13,-1
EndSplineSet
Colour: ff0000
EndChar
StartChar: uni0459
Encoding: 1113 1113 457
Width: 600
Flags: W
LayerCount: 2
Fore
SplineSet
363 356 m 1,0,-1
 376 356 l 2,1,2
 480 356 480 356 536 313.5 c 128,-1,3
 592 271 592 271 592 183 c 0,4,5
 592 92 592 92 535 46 c 128,-1,6
 478 0 478 0 377 0 c 2,7,-1
 282 0 l 1,8,-1
 282 460 l 1,9,-1
 176 460 l 1,10,-1
 170 321 l 2,11,12
 165 209 165 209 150 146.5 c 128,-1,13
 135 84 135 84 108.5 51 c 128,-1,14
 82 18 82 18 34 -11 c 1,15,-1
 3 45 l 1,16,17
 27 65 27 65 42 88.5 c 128,-1,18
 57 112 57 112 69 165.5 c 128,-1,19
 81 219 81 219 87 315 c 1,20,-1
 98 527 l 1,21,-1
 363 527 l 1,22,-1
 363 356 l 1,0,-1
363 293 m 1,23,-1
 363 66 l 1,24,-1
 383 66 l 2,25,26
 445 66 445 66 474.5 91.5 c 128,-1,27
 504 117 504 117 504 183 c 0,28,29
 504 242 504 242 475 267.5 c 128,-1,30
 446 293 446 293 381 293 c 2,31,-1
 363 293 l 1,23,-1
EndSplineSet
Colour: ff0000
EndChar
StartChar: uni045F
Encoding: 1119 1119 453
Width: 600
Flags: W
LayerCount: 2
Fore
SplineSet
500 0 m 1,0,-1
 342 0 l 1,1,-1
 342 -147 l 1,2,-1
 272 -147 l 1,3,-1
 258 0 l 1,4,-1
 100 0 l 1,5,-1
 100 527 l 1,6,-1
 184 527 l 1,7,-1
 184 70 l 1,8,-1
 416 70 l 1,9,-1
 416 527 l 1,10,-1
 500 527 l 1,11,-1
 500 0 l 1,0,-1
EndSplineSet
Colour: ff0000
EndChar
StartChar: uni0460
Encoding: 1120 1120 332
Width: 600
Flags: W
LayerCount: 2
Fore
SplineSet
564.5 515.5 m 128,-1,1
 585 425 585 425 585 298 c 0,2,3
 585 -11 585 -11 423 -11 c 0,4,5
 376 -11 376 -11 346.5 15 c 128,-1,6
 317 41 317 41 301 93 c 1,7,8
 285 41 285 41 256.5 15 c 128,-1,9
 228 -11 228 -11 180 -11 c 0,10,11
 137 -11 137 -11 100 19.5 c 128,-1,12
 63 50 63 50 40 119 c 128,-1,13
 17 188 17 188 17 298 c 0,14,15
 17 387 17 387 28.5 461 c 128,-1,16
 40 535 40 535 53.5 581.5 c 128,-1,17
 67 628 67 628 88 689 c 1,18,-1
 172 689 l 1,19,20
 137 597 137 597 119.5 507 c 128,-1,21
 102 417 102 417 102 302 c 0,22,23
 102 60 102 60 194 60 c 0,24,25
 222 60 222 60 240 86 c 128,-1,26
 258 112 258 112 258 169 c 2,27,-1
 258 398 l 1,28,-1
 343 398 l 1,29,-1
 343 170 l 2,30,31
 343 114 343 114 363 87 c 128,-1,32
 383 60 383 60 413 60 c 0,33,34
 454 60 454 60 476.5 110 c 128,-1,35
 499 160 499 160 499 299 c 0,36,37
 499 413 499 413 481 502 c 128,-1,38
 463 591 463 591 429 689 c 1,39,-1
 513 689 l 1,40,0
 544 606 544 606 564.5 515.5 c 128,-1,1
EndSplineSet
Colour: ff0000
EndChar
StartChar: uni0462
Encoding: 1122 1122 333
Width: 600
Flags: W
LayerCount: 2
Fore
SplineSet
500 375.5 m 128,-1,1
 568 323 568 323 568 221 c 0,2,3
 568 109 568 109 496 54.5 c 128,-1,4
 424 0 424 0 300 0 c 2,5,-1
 154 0 l 1,6,-1
 154 530 l 1,7,-1
 10 530 l 1,8,-1
 10 595 l 1,9,-1
 154 595 l 1,10,-1
 154 689 l 1,11,-1
 241 689 l 1,12,-1
 241 595 l 1,13,-1
 394 595 l 1,14,-1
 394 530 l 1,15,-1
 241 530 l 1,16,-1
 241 428 l 1,17,-1
 312 428 l 2,18,0
 432 428 432 428 500 375.5 c 128,-1,1
432 104 m 128,-1,20
 475 137 475 137 475 219 c 0,21,22
 475 294 475 294 433.5 327 c 128,-1,23
 392 360 392 360 314 360 c 2,24,-1
 241 360 l 1,25,-1
 241 71 l 1,26,-1
 310 71 l 2,27,19
 389 71 389 71 432 104 c 128,-1,20
EndSplineSet
Colour: ff0000
EndChar
StartChar: uni0463
Encoding: 1123 1123 470
Width: 600
Flags: W
LayerCount: 2
Fore
SplineSet
229 536 m 1,0,-1
 362 536 l 1,1,-1
 351 468 l 1,2,-1
 229 468 l 1,3,-1
 229 356 l 1,4,-1
 299 356 l 2,5,6
 540 356 540 356 540 180 c 0,7,8
 540 0 540 0 298 0 c 2,9,-1
 145 0 l 1,10,-1
 145 468 l 1,11,-1
 58 468 l 1,12,-1
 58 536 l 1,13,-1
 145 536 l 1,14,-1
 145 645 l 1,15,-1
 229 655 l 1,16,-1
 229 536 l 1,0,-1
229 290 m 1,17,-1
 229 68 l 1,18,-1
 309 68 l 2,19,20
 376 68 376 68 413 92 c 128,-1,21
 450 116 450 116 450 180 c 0,22,23
 450 238 450 238 414 264 c 128,-1,24
 378 290 378 290 309 290 c 2,25,-1
 229 290 l 1,17,-1
EndSplineSet
Colour: ff0000
EndChar
StartChar: uni0466
Encoding: 1126 1126 335
Width: 600
Flags: W
LayerCount: 2
Fore
SplineSet
397 290 m 1,0,-1
 339 290 l 1,1,-1
 339 0 l 1,2,-1
 257 0 l 1,3,-1
 257 290 l 1,4,-1
 199 290 l 1,5,-1
 110 0 l 1,6,-1
 20 0 l 1,7,-1
 245 689 l 1,8,-1
 355 689 l 1,9,-1
 579 0 l 1,10,-1
 486 0 l 1,11,-1
 397 290 l 1,0,-1
374 364 m 1,12,-1
 298 612 l 1,13,-1
 222 364 l 1,14,-1
 374 364 l 1,12,-1
EndSplineSet
Colour: ff0000
EndChar
StartChar: uni0469
Encoding: 1129 1129 473
Width: 600
Flags: W
LayerCount: 2
Fore
SplineSet
455 205 m 1,0,-1
 416 205 l 1,1,-1
 416 0 l 1,2,-1
 348 0 l 1,3,-1
 348 205 l 1,4,-1
 312 205 l 1,5,-1
 254 0 l 1,6,-1
 176 0 l 1,7,-1
 238 205 l 1,8,-1
 135 205 l 1,9,-1
 135 0 l 1,10,-1
 52 0 l 1,11,-1
 52 527 l 1,12,-1
 135 527 l 1,13,-1
 135 274 l 1,14,-1
 259 274 l 1,15,-1
 335 527 l 1,16,-1
 437 527 l 1,17,-1
 594 0 l 1,18,-1
 513 0 l 1,19,-1
 455 205 l 1,0,-1
436 274 m 1,20,-1
 384 460 l 1,21,-1
 331 274 l 1,22,-1
 436 274 l 1,20,-1
EndSplineSet
Colour: ff0000
EndChar
StartChar: uni046A
Encoding: 1130 1130 337
Width: 600
Flags: W
LayerCount: 2
Fore
SplineSet
562 0 m 1,0,-1
 482 0 l 1,1,-1
 400 311 l 1,2,-1
 343 311 l 1,3,-1
 343 0 l 1,4,-1
 258 0 l 1,5,-1
 258 311 l 1,6,-1
 201 311 l 1,7,-1
 118 0 l 1,8,-1
 38 0 l 1,9,-1
 150 379 l 1,10,-1
 222 379 l 1,11,-1
 93 631 l 1,12,-1
 93 689 l 1,13,-1
 513 689 l 1,14,-1
 513 631 l 1,15,-1
 378 379 l 1,16,-1
 459 379 l 1,17,-1
 562 0 l 1,0,-1
303 379 m 1,18,-1
 426 626 l 1,19,-1
 183 626 l 1,20,-1
 303 379 l 1,18,-1
EndSplineSet
Colour: ff0000
EndChar
StartChar: uni046B
Encoding: 1131 1131 474
Width: 600
Flags: W
LayerCount: 2
Fore
SplineSet
578 0 m 1,0,-1
 501 0 l 1,1,-1
 416 232 l 1,2,-1
 341 232 l 1,3,-1
 341 0 l 1,4,-1
 258 0 l 1,5,-1
 258 232 l 1,6,-1
 185 232 l 1,7,-1
 101 0 l 1,8,-1
 22 0 l 1,9,-1
 131 299 l 1,10,-1
 222 299 l 1,11,-1
 101 481 l 1,12,-1
 101 527 l 1,13,-1
 494 527 l 1,14,-1
 494 481 l 1,15,-1
 372 299 l 1,16,-1
 469 299 l 1,17,-1
 578 0 l 1,0,-1
299 299 m 1,18,-1
 403 462 l 1,19,-1
 195 462 l 1,20,-1
 299 299 l 1,18,-1
EndSplineSet
Colour: ff0000
EndChar
StartChar: uni046C
Encoding: 1132 1132 338
Width: 600
Flags: W
LayerCount: 2
Fore
SplineSet
628 0 m 1,0,-1
 546 0 l 1,1,-1
 469 311 l 1,2,-1
 423 311 l 1,3,-1
 423 0 l 1,4,-1
 337 0 l 1,5,-1
 337 311 l 1,6,-1
 291 311 l 1,7,-1
 213 0 l 1,8,-1
 131 0 l 1,9,-1
 220 311 l 1,10,-1
 104 311 l 1,11,-1
 104 0 l 1,12,-1
 18 0 l 1,13,-1
 18 689 l 1,14,-1
 104 689 l 1,15,-1
 104 379 l 1,16,-1
 305 379 l 1,17,-1
 190 631 l 1,18,-1
 190 689 l 1,19,-1
 574 689 l 1,20,-1
 574 631 l 1,21,-1
 455 379 l 1,22,-1
 528 379 l 1,23,-1
 628 0 l 1,0,-1
277 625 m 1,24,-1
 383 379 l 1,25,-1
 490 625 l 1,26,-1
 277 625 l 1,24,-1
EndSplineSet
Colour: ff0000
EndChar
StartChar: uni046E
Encoding: 1134 1134 339
Width: 600
Flags: W
LayerCount: 2
Fore
SplineSet
255 754 m 1,0,-1
 120 862 l 1,1,-1
 158 905 l 1,2,-1
 283 824 l 1,3,-1
 409 905 l 1,4,-1
 446 862 l 1,5,-1
 312 754 l 1,6,-1
 255 754 l 1,0,-1
459.5 323.5 m 128,-1,8
 518 271 518 271 518 177 c 0,9,10
 518 86 518 86 458.5 31.5 c 128,-1,11
 399 -23 399 -23 307 -32 c 1,12,13
 256 -38 256 -38 229.5 -44.5 c 128,-1,14
 203 -51 203 -51 192.5 -60 c 128,-1,15
 182 -69 182 -69 182 -85 c 0,16,17
 182 -104 182 -104 200.5 -121.5 c 128,-1,18
 219 -139 219 -139 255 -158 c 1,19,-1
 223 -214 l 1,20,21
 160 -186 160 -186 128 -153 c 128,-1,22
 96 -120 96 -120 96 -78 c 0,23,24
 96 -29 96 -29 137 -1.5 c 128,-1,25
 178 26 178 26 263 34 c 0,26,27
 427 50 427 50 427 177 c 0,28,29
 427 248 427 248 389.5 279.5 c 128,-1,30
 352 311 352 311 275 311 c 2,31,-1
 169 311 l 1,32,-1
 169 375 l 1,33,-1
 380 616 l 1,34,-1
 82 616 l 1,35,-1
 82 689 l 1,36,-1
 484 689 l 1,37,-1
 484 616 l 1,38,-1
 264 376 l 1,39,-1
 291 376 l 2,40,7
 401 376 401 376 459.5 323.5 c 128,-1,8
EndSplineSet
Colour: ff0000
EndChar
StartChar: uni046F
Encoding: 1135 1135 476
Width: 600
Flags: W
LayerCount: 2
Fore
SplineSet
448 748 m 1,0,-1
 314 629 l 1,1,-1
 257 629 l 1,2,-1
 122 748 l 1,3,-1
 162 789 l 1,4,-1
 286 699 l 1,5,-1
 410 789 l 1,6,-1
 448 748 l 1,0,-1
118 -151 m 128,-1,8
 86 -117 86 -117 86 -75 c 0,9,10
 86 -25 86 -25 128 2.5 c 128,-1,11
 170 30 170 30 262 39 c 0,12,13
 352 48 352 48 389.5 68 c 128,-1,14
 427 88 427 88 427 135 c 0,15,16
 427 179 427 179 404.5 198.5 c 128,-1,17
 382 218 382 218 340 218 c 2,18,-1
 168 218 l 1,19,-1
 168 282 l 1,20,-1
 377 455 l 1,21,-1
 80 455 l 1,22,-1
 80 527 l 1,23,-1
 489 527 l 1,24,-1
 489 461 l 1,25,-1
 265 282 l 1,26,-1
 339 282 l 2,27,28
 423 282 423 282 470.5 245.5 c 128,-1,29
 518 209 518 209 518 134 c 0,30,31
 518 -5 518 -5 306 -29 c 0,32,33
 251 -35 251 -35 222.5 -41.5 c 128,-1,34
 194 -48 194 -48 183 -57 c 128,-1,35
 172 -66 172 -66 172 -82 c 0,36,37
 172 -102 172 -102 191 -120 c 128,-1,38
 210 -138 210 -138 249 -158 c 1,39,-1
 216 -214 l 1,40,7
 150 -185 150 -185 118 -151 c 128,-1,8
EndSplineSet
Colour: ff0000
EndChar
StartChar: uni0474
Encoding: 1140 1140 342
Width: 600
Flags: W
LayerCount: 2
Fore
SplineSet
532 633 m 0,1,2
 513 633 513 633 501.5 620 c 128,-1,3
 490 607 490 607 482 579 c 2,4,-1
 328 0 l 1,5,-1
 232 0 l 1,6,-1
 28 689 l 1,7,-1
 121 689 l 1,8,-1
 279 100 l 1,9,-1
 404 591 l 2,10,11
 419 648 419 648 447 674 c 128,-1,12
 475 700 475 700 522 700 c 0,13,14
 556 700 556 700 594 682 c 1,15,-1
 566 626 l 1,16,0
 545 633 545 633 532 633 c 0,1,2
EndSplineSet
Colour: ff0000
EndChar
StartChar: uni0479
Encoding: 1145 1145 481
Width: 600
Flags: W
LayerCount: 2
Fore
SplineSet
0 263 m 0,1,2
 0 391 0 391 37.5 464.5 c 128,-1,3
 75 538 75 538 154 538 c 0,4,5
 307 538 307 538 307 264 c 0,6,7
 307 136 307 136 269.5 62.5 c 128,-1,8
 232 -11 232 -11 153 -11 c 0,9,0
 0 -11 0 -11 0 263 c 0,1,2
258 -149 m 1,10,11
 338 -133 338 -133 376.5 -101 c 128,-1,12
 415 -69 415 -69 431 0 c 1,13,-1
 393 0 l 1,14,-1
 299 527 l 1,15,-1
 388 527 l 1,16,-1
 454 64 l 1,17,-1
 519 527 l 1,18,-1
 605 527 l 1,19,-1
 513 7 l 1,20,21
 494 -94 494 -94 434.5 -147.5 c 128,-1,22
 375 -201 375 -201 270 -212 c 1,23,-1
 258 -149 l 1,10,11
207 104.5 m 128,-1,25
 222 153 222 153 222 264 c 256,26,27
 222 375 222 375 207.5 423.5 c 128,-1,28
 193 472 193 472 154 472 c 256,29,30
 115 472 115 472 100 423.5 c 128,-1,31
 85 375 85 375 85 263 c 0,32,33
 85 152 85 152 99.5 104 c 128,-1,34
 114 56 114 56 153 56 c 256,35,24
 192 56 192 56 207 104.5 c 128,-1,25
EndSplineSet
Colour: ff0000
EndChar
StartChar: uni048C
Encoding: 1164 1164 417
Width: 600
Flags: W
LayerCount: 2
Fore
SplineSet
501 375.5 m 128,-1,1
 569 323 569 323 569 221 c 0,2,3
 569 109 569 109 497 54.5 c 128,-1,4
 425 0 425 0 301 0 c 2,5,-1
 125 0 l 1,6,-1
 125 531 l 1,7,-1
 30 531 l 1,8,-1
 30 594 l 1,9,-1
 125 594 l 1,10,-1
 125 689 l 1,11,-1
 212 689 l 1,12,-1
 212 594 l 1,13,-1
 343 594 l 1,14,-1
 343 531 l 1,15,-1
 212 531 l 1,16,-1
 212 428 l 1,17,-1
 314 428 l 2,18,0
 433 428 433 428 501 375.5 c 128,-1,1
433 104 m 128,-1,20
 476 137 476 137 476 219 c 0,21,22
 476 294 476 294 434.5 327 c 128,-1,23
 393 360 393 360 315 360 c 2,24,-1
 212 360 l 1,25,-1
 212 71 l 1,26,-1
 311 71 l 2,27,19
 390 71 390 71 433 104 c 128,-1,20
EndSplineSet
Colour: ff0000
EndChar
StartChar: uni048D
Encoding: 1165 1165 554
Width: 600
Flags: W
LayerCount: 2
Fore
SplineSet
476 292.5 m 128,-1,1
 531 250 531 250 531 174 c 0,2,3
 531 89 531 89 469 44.5 c 128,-1,4
 407 0 407 0 293 0 c 2,5,-1
 156 0 l 1,6,-1
 156 396 l 1,7,-1
 70 396 l 1,8,-1
 70 464 l 1,9,-1
 156 464 l 1,10,-1
 156 527 l 1,11,-1
 240 527 l 1,12,-1
 240 464 l 1,13,-1
 369 464 l 1,14,-1
 358 396 l 1,15,-1
 240 396 l 1,16,-1
 240 335 l 1,17,-1
 318 335 l 2,18,0
 421 335 421 335 476 292.5 c 128,-1,1
404.5 91 m 128,-1,20
 441 114 441 114 441 173 c 0,21,22
 441 269 441 269 316 269 c 2,23,-1
 240 269 l 1,24,-1
 240 68 l 1,25,-1
 304 68 l 2,26,19
 368 68 368 68 404.5 91 c 128,-1,20
EndSplineSet
Colour: ff0000
EndChar
StartChar: uni048E
Encoding: 1166 1166 418
Width: 600
Flags: W
LayerCount: 2
Fore
SplineSet
472 304 m 1,1,-1
 555 168 l 1,2,-1
 476 168 l 1,3,-1
 412 274 l 1,4,5
 358 256 358 256 291 256 c 2,6,-1
 202 256 l 1,7,-1
 202 0 l 1,8,-1
 116 0 l 1,9,-1
 116 689 l 1,10,-1
 291 689 l 2,11,12
 418 689 418 689 487.5 635.5 c 128,-1,13
 557 582 557 582 557 475 c 0,14,0
 557 363 557 363 472 304 c 1,1,-1
375 335 m 1,16,-1
 286 479 l 1,17,-1
 365 479 l 1,18,-1
 432 369 l 1,19,20
 463 404 463 404 463 474 c 0,21,22
 463 551 463 551 419.5 585.5 c 128,-1,23
 376 620 376 620 301 620 c 2,24,-1
 202 620 l 1,25,-1
 202 325 l 1,26,-1
 298 325 l 2,27,15
 344 325 344 325 375 335 c 1,16,-1
EndSplineSet
Colour: ff0000
EndChar
StartChar: uni048F
Encoding: 1167 1167 555
Width: 600
Flags: W
LayerCount: 2
Fore
SplineSet
508 124.5 m 128,-1,1
 487 64 487 64 445 29 c 1,2,-1
 520 -92 l 1,3,-1
 441 -92 l 1,4,-1
 386 -3 l 1,5,6
 357 -11 357 -11 326 -11 c 0,7,8
 239 -11 239 -11 187 49 c 1,9,-1
 187 -202 l 1,10,-1
 103 -212 l 1,11,-1
 103 527 l 1,12,-1
 174 527 l 1,13,-1
 181 453 l 1,14,15
 211 494 211 494 251 516 c 128,-1,16
 291 538 291 538 338 538 c 0,17,18
 439 538 439 538 484 466.5 c 128,-1,19
 529 395 529 395 529 264 c 0,20,0
 529 185 529 185 508 124.5 c 128,-1,1
346 62 m 1,22,-1
 251 219 l 1,23,-1
 330 219 l 1,24,-1
 405 96 l 1,25,26
 422 118 422 118 430 159 c 128,-1,27
 438 200 438 200 438 264 c 0,28,29
 438 367 438 367 408.5 418.5 c 128,-1,30
 379 470 379 470 318 470 c 0,31,32
 278 470 278 470 244.5 446 c 128,-1,33
 211 422 211 422 187 386 c 1,34,-1
 187 125 l 1,35,36
 207 94 207 94 238.5 76.5 c 128,-1,37
 270 59 270 59 306 59 c 0,38,21
 328 59 328 59 346 62 c 1,22,-1
EndSplineSet
Colour: ff0000
EndChar
StartChar: uni0490
Encoding: 1168 1168 287
Width: 600
Flags: W
LayerCount: 2
Fore
SplineSet
544 835 m 1,0,-1
 544 689 l 1,1,-1
 535 612 l 1,2,-1
 223 612 l 1,3,-1
 223 0 l 1,4,-1
 136 0 l 1,5,-1
 136 689 l 1,6,-1
 460 689 l 1,7,-1
 460 835 l 1,8,-1
 544 835 l 1,0,-1
EndSplineSet
Colour: ff0000
EndChar
StartChar: uni0493
Encoding: 1171 1171 482
Width: 600
Flags: W
LayerCount: 2
Fore
SplineSet
272 456 m 1,0,-1
 272 302 l 1,1,-1
 397 302 l 1,2,-1
 397 235 l 1,3,-1
 272 235 l 1,4,-1
 272 0 l 1,5,-1
 188 0 l 1,6,-1
 188 235 l 1,7,-1
 94 235 l 1,8,-1
 94 302 l 1,9,-1
 188 302 l 1,10,-1
 188 527 l 1,11,-1
 555 527 l 1,12,-1
 545 456 l 1,13,-1
 272 456 l 1,0,-1
EndSplineSet
Colour: ff0000
EndChar
StartChar: uni0494
Encoding: 1172 1172 346
Width: 600
Flags: W
LayerCount: 2
Fore
SplineSet
496 392.5 m 128,-1,1
 549 335 549 335 549 235 c 2,2,-1
 549 -61 l 2,3,4
 549 -134 549 -134 510.5 -172.5 c 128,-1,5
 472 -211 472 -211 404 -211 c 0,6,7
 341 -211 341 -211 292 -174 c 1,8,-1
 325 -117 l 1,9,10
 344 -130 344 -130 360.5 -135.5 c 128,-1,11
 377 -141 377 -141 401 -141 c 0,12,13
 431 -141 431 -141 447 -122.5 c 128,-1,14
 463 -104 463 -104 463 -66 c 2,15,-1
 463 234 l 2,16,17
 463 302 463 302 431.5 338 c 128,-1,18
 400 374 400 374 338 374 c 0,19,20
 285 374 285 374 246 354 c 128,-1,21
 207 334 207 334 171 294 c 1,22,-1
 171 0 l 1,23,-1
 85 0 l 1,24,-1
 85 689 l 1,25,-1
 171 689 l 1,26,-1
 469 689 l 1,27,-1
 458 616 l 1,28,-1
 171 616 l 1,29,-1
 171 374 l 1,30,31
 207 411 207 411 251.5 430.5 c 128,-1,32
 296 450 296 450 353 450 c 0,33,0
 443 450 443 450 496 392.5 c 128,-1,1
EndSplineSet
Colour: ff0000
EndChar
StartChar: uni0495
Encoding: 1173 1173 483
Width: 600
Flags: W
LayerCount: 2
Fore
SplineSet
457.5 -172.5 m 128,-1,1
 418 -211 418 -211 351 -211 c 0,2,3
 287 -211 287 -211 238 -174 c 1,4,-1
 271 -120 l 1,5,6
 294 -132 294 -132 309 -137.5 c 128,-1,7
 324 -143 324 -143 347 -143 c 0,8,9
 413 -143 413 -143 413 -68 c 2,10,-1
 413 185 l 2,11,12
 413 235 413 235 390.5 259 c 128,-1,13
 368 283 368 283 328 283 c 0,14,15
 284 283 284 283 251 261 c 128,-1,16
 218 239 218 239 187 199 c 1,17,-1
 186 200 l 1,18,-1
 186 0 l 1,19,-1
 102 0 l 1,20,-1
 102 527 l 1,21,-1
 424 527 l 1,22,-1
 414 460 l 1,23,-1
 186 460 l 1,24,-1
 186 273 l 1,25,26
 215 308 215 308 255.5 328.5 c 128,-1,27
 296 349 296 349 346 349 c 0,28,29
 412 349 412 349 454.5 307 c 128,-1,30
 497 265 497 265 497 193 c 2,31,-1
 497 -61 l 2,32,0
 497 -134 497 -134 457.5 -172.5 c 128,-1,1
EndSplineSet
Colour: ff0000
EndChar
StartChar: uni0496
Encoding: 1174 1174 347
Width: 600
Flags: W
LayerCount: 2
Fore
SplineSet
610 73 m 1,0,-1
 610 -147 l 1,1,-1
 539 -147 l 1,2,-1
 524 0 l 1,3,-1
 500 0 l 1,4,-1
 501 4 l 1,5,-1
 399 327 l 1,6,-1
 339 327 l 1,7,-1
 339 0 l 1,8,-1
 261 0 l 1,9,-1
 261 327 l 1,10,-1
 200 327 l 1,11,-1
 96 0 l 1,12,-1
 12 0 l 1,13,-1
 135 364 l 1,14,-1
 27 689 l 1,15,-1
 110 689 l 1,16,-1
 201 398 l 1,17,-1
 261 398 l 1,18,-1
 261 689 l 1,19,-1
 339 689 l 1,20,-1
 339 398 l 1,21,-1
 399 398 l 1,22,-1
 491 689 l 1,23,-1
 573 689 l 1,24,-1
 465 364 l 1,25,-1
 563 73 l 1,26,-1
 610 73 l 1,0,-1
EndSplineSet
Colour: ff0000
EndChar
StartChar: uni0498
Encoding: 1176 1176 348
Width: 600
Flags: W
LayerCount: 2
Fore
SplineSet
513.5 101.5 m 128,-1,1
 486 55 486 55 434.5 25.5 c 128,-1,2
 383 -4 383 -4 314 -10 c 1,3,-1
 314 -57 l 1,4,5
 360 -61 360 -61 383.5 -84.5 c 128,-1,6
 407 -108 407 -108 407 -140 c 0,7,8
 407 -187 407 -187 371.5 -212.5 c 128,-1,9
 336 -238 336 -238 285 -238 c 0,10,11
 255 -238 255 -238 227.5 -231.5 c 128,-1,12
 200 -225 200 -225 180 -214 c 1,13,-1
 207 -166 l 1,14,15
 237 -182 237 -182 274 -182 c 0,16,17
 334 -182 334 -182 334 -141 c 0,18,19
 334 -115 334 -115 313 -106 c 128,-1,20
 292 -97 292 -97 248 -97 c 1,21,-1
 254 -11 l 1,22,23
 189 -6 189 -6 132.5 18.5 c 128,-1,24
 76 43 76 43 35 86 c 1,25,-1
 89 135 l 1,26,27
 171 62 171 62 278 62 c 0,28,29
 358 62 358 62 402.5 99 c 128,-1,30
 447 136 447 136 447 202 c 256,31,32
 447 268 447 268 403 300.5 c 128,-1,33
 359 333 359 333 286 333 c 2,34,-1
 165 333 l 1,35,-1
 175 406 l 1,36,-1
 280 406 l 2,37,38
 343 406 343 406 385.5 434.5 c 128,-1,39
 428 463 428 463 428 519 c 0,40,41
 428 572 428 572 386.5 600.5 c 128,-1,42
 345 629 345 629 279 629 c 0,43,44
 225 629 225 629 182 612.5 c 128,-1,45
 139 596 139 596 97 563 c 1,46,-1
 49 614 l 1,47,48
 101 657 101 657 157.5 678.5 c 128,-1,49
 214 700 214 700 281 700 c 0,50,51
 353 700 353 700 406.5 677.5 c 128,-1,52
 460 655 460 655 488.5 614 c 128,-1,53
 517 573 517 573 517 520 c 0,54,55
 517 459 517 459 477 421.5 c 128,-1,56
 437 384 437 384 375 375 c 1,57,58
 445 369 445 369 493 324.5 c 128,-1,59
 541 280 541 280 541 205 c 0,60,0
 541 148 541 148 513.5 101.5 c 128,-1,1
EndSplineSet
Colour: ff0000
EndChar
StartChar: uni049C
Encoding: 1180 1180 350
Width: 600
Flags: W
LayerCount: 2
Fore
SplineSet
228 326 m 1,0,-1
 180 326 l 1,1,-1
 180 0 l 1,2,-1
 95 0 l 1,3,-1
 95 689 l 1,4,-1
 180 689 l 1,5,-1
 180 398 l 1,6,-1
 228 398 l 1,7,-1
 228 570 l 1,8,-1
 282 570 l 1,9,-1
 282 398 l 1,10,-1
 308 398 l 1,11,-1
 477 689 l 1,12,-1
 568 689 l 1,13,-1
 376 364 l 1,14,-1
 587 0 l 1,15,-1
 490 0 l 1,16,-1
 308 326 l 1,17,-1
 282 326 l 1,18,-1
 282 150 l 1,19,-1
 228 150 l 1,20,-1
 228 326 l 1,0,-1
EndSplineSet
Colour: ff0000
EndChar
StartChar: uni049D
Encoding: 1181 1181 487
Width: 600
Flags: W
LayerCount: 2
Fore
SplineSet
106 527 m 1,0,-1
 191 527 l 1,1,-1
 191 315 l 1,2,-1
 236 315 l 1,3,-1
 236 430 l 1,4,-1
 282 430 l 1,5,-1
 282 315 l 1,6,-1
 310 315 l 1,7,-1
 454 527 l 1,8,-1
 542 527 l 1,9,-1
 378 284 l 1,10,-1
 569 0 l 1,11,-1
 477 0 l 1,12,-1
 310 244 l 1,13,-1
 282 244 l 1,14,-1
 282 120 l 1,15,-1
 236 120 l 1,16,-1
 236 244 l 1,17,-1
 191 244 l 1,18,-1
 191 0 l 1,19,-1
 106 0 l 1,20,-1
 106 527 l 1,0,-1
EndSplineSet
Colour: ff0000
EndChar
StartChar: uni049F
Encoding: 1183 1183 488
Width: 600
Flags: W
LayerCount: 2
Fore
SplineSet
561 0 m 1,0,-1
 459 0 l 1,1,-1
 285 245 l 1,2,-1
 202 245 l 1,3,-1
 202 0 l 1,4,-1
 118 0 l 1,5,-1
 118 567 l 1,6,-1
 39 567 l 1,7,-1
 39 635 l 1,8,-1
 118 635 l 1,9,-1
 118 739 l 1,10,-1
 202 749 l 1,11,-1
 202 635 l 1,12,-1
 351 635 l 1,13,-1
 351 567 l 1,14,-1
 202 567 l 1,15,-1
 202 313 l 1,16,-1
 287 313 l 1,17,-1
 439 527 l 1,18,-1
 534 527 l 1,19,-1
 357 283 l 1,20,-1
 561 0 l 1,0,-1
EndSplineSet
Colour: ff0000
EndChar
StartChar: uni04A1
Encoding: 1185 1185 489
Width: 600
Flags: W
LayerCount: 2
Fore
SplineSet
588 0 m 1,0,-1
 486 0 l 1,1,-1
 311 245 l 1,2,-1
 217 245 l 1,3,-1
 217 0 l 1,4,-1
 133 0 l 1,5,-1
 133 462 l 1,6,-1
 8 462 l 1,7,-1
 8 527 l 1,8,-1
 217 527 l 1,9,-1
 217 313 l 1,10,-1
 312 313 l 1,11,-1
 466 527 l 1,12,-1
 560 527 l 1,13,-1
 382 283 l 1,14,-1
 588 0 l 1,0,-1
EndSplineSet
Colour: ff0000
EndChar
StartChar: uni04A3
Encoding: 1187 1187 490
Width: 600
Flags: W
LayerCount: 2
Fore
SplineSet
566 69 m 1,0,-1
 566 -147 l 1,1,-1
 497 -147 l 1,2,-1
 482 0 l 1,3,-1
 401 0 l 1,4,-1
 401 234 l 1,5,-1
 170 234 l 1,6,-1
 170 0 l 1,7,-1
 86 0 l 1,8,-1
 86 527 l 1,9,-1
 170 527 l 1,10,-1
 170 303 l 1,11,-1
 401 303 l 1,12,-1
 401 527 l 1,13,-1
 485 527 l 1,14,-1
 485 69 l 1,15,-1
 566 69 l 1,0,-1
EndSplineSet
Colour: ff0000
EndChar
StartChar: uni04A4
Encoding: 1188 1188 560
Width: 600
Flags: W
LayerCount: 2
Fore
SplineSet
596 617 m 1,0,-1
 462 617 l 1,1,-1
 462 0 l 1,2,-1
 375 0 l 1,3,-1
 375 327 l 1,4,-1
 154 327 l 1,5,-1
 154 0 l 1,6,-1
 68 0 l 1,7,-1
 68 689 l 1,8,-1
 154 689 l 1,9,-1
 154 398 l 1,10,-1
 375 398 l 1,11,-1
 375 689 l 1,12,-1
 604 689 l 1,13,-1
 596 617 l 1,0,-1
EndSplineSet
Colour: ff0000
EndChar
StartChar: uni04A5
Encoding: 1189 1189 561
Width: 600
Flags: W
LayerCount: 2
Fore
SplineSet
594 458 m 1,0,-1
 458 458 l 1,1,-1
 458 0 l 1,2,-1
 374 0 l 1,3,-1
 374 234 l 1,4,-1
 173 234 l 1,5,-1
 173 0 l 1,6,-1
 89 0 l 1,7,-1
 89 527 l 1,8,-1
 173 527 l 1,9,-1
 173 303 l 1,10,-1
 374 303 l 1,11,-1
 374 527 l 1,12,-1
 602 527 l 1,13,-1
 594 458 l 1,0,-1
EndSplineSet
Colour: ff0000
EndChar
StartChar: uni04A6
Encoding: 1190 1190 354
Width: 600
Flags: W
LayerCount: 2
Fore
SplineSet
554 408.5 m 128,-1,1
 593 366 593 366 593 294 c 2,2,-1
 593 -58 l 2,3,4
 593 -132 593 -132 553 -171.5 c 128,-1,5
 513 -211 513 -211 448 -211 c 0,6,7
 384 -211 384 -211 335 -174 c 1,8,-1
 369 -117 l 1,9,10
 390 -129 390 -129 405.5 -134.5 c 128,-1,11
 421 -140 421 -140 444 -140 c 0,12,13
 506 -140 506 -140 506 -65 c 2,14,-1
 506 295 l 2,15,16
 506 374 506 374 436 374 c 0,17,18
 390 374 390 374 348 338 c 1,19,-1
 348 0 l 1,20,-1
 261 0 l 1,21,-1
 261 611 l 1,22,-1
 114 611 l 1,23,-1
 114 0 l 1,24,-1
 27 0 l 1,25,-1
 27 689 l 1,26,-1
 348 689 l 1,27,-1
 348 411 l 1,28,29
 391 451 391 451 449 451 c 0,30,0
 515 451 515 451 554 408.5 c 128,-1,1
EndSplineSet
Colour: ff0000
EndChar
StartChar: uni04A7
Encoding: 1191 1191 492
Width: 600
Flags: W
LayerCount: 2
Fore
SplineSet
559.5 311 m 128,-1,1
 596 273 596 273 596 211 c 2,2,-1
 596 -60 l 2,3,4
 596 -133 596 -133 556 -172 c 128,-1,5
 516 -211 516 -211 448 -211 c 0,6,7
 384 -211 384 -211 335 -174 c 1,8,-1
 369 -119 l 1,9,10
 389 -130 389 -130 405 -135.5 c 128,-1,11
 421 -141 421 -141 444 -141 c 0,12,13
 511 -141 511 -141 511 -66 c 2,14,-1
 511 205 l 2,15,16
 511 242 511 242 494.5 262 c 128,-1,17
 478 282 478 282 446 282 c 0,18,19
 419 282 419 282 398 272.5 c 128,-1,20
 377 263 377 263 356 243 c 1,21,-1
 356 0 l 1,22,-1
 270 0 l 1,23,-1
 270 457 l 1,24,-1
 115 457 l 1,25,-1
 115 0 l 1,26,-1
 28 0 l 1,27,-1
 28 527 l 1,28,-1
 356 527 l 1,29,-1
 356 307 l 1,30,31
 400 349 400 349 466 349 c 0,32,0
 523 349 523 349 559.5 311 c 128,-1,1
EndSplineSet
Colour: ff0000
EndChar
StartChar: uni04A8
Encoding: 1192 1192 356
Width: 600
Flags: W
LayerCount: 2
Fore
SplineSet
547.5 124.5 m 128,-1,1
 513 60 513 60 451 24 c 1,2,-1
 478 -10 l 2,3,4
 515 -56 515 -56 529 -76 c 1,5,-1
 472 -119 l 1,6,7
 456 -98 456 -98 417 -50 c 1,8,-1
 381 -4 l 1,9,10
 344 -11 344 -11 314 -11 c 0,11,12
 230 -11 230 -11 167 30 c 128,-1,13
 104 71 104 71 69.5 151 c 128,-1,14
 35 231 35 231 35 345 c 0,15,16
 35 457 35 457 72 537.5 c 128,-1,17
 109 618 109 618 171 659 c 128,-1,18
 233 700 233 700 305 700 c 0,19,20
 364 700 364 700 405.5 684 c 128,-1,21
 447 668 447 668 489 633 c 1,22,-1
 444 576 l 1,23,24
 410 602 410 602 377.5 614.5 c 128,-1,25
 345 627 345 627 308 627 c 0,26,27
 231 627 231 627 180 559.5 c 128,-1,28
 129 492 129 492 129 345 c 0,29,30
 129 200 129 200 179 132.5 c 128,-1,31
 229 65 229 65 317 65 c 2,32,-1
 330 65 l 1,33,34
 296 116 296 116 277.5 161.5 c 128,-1,35
 259 207 259 207 259 254 c 0,36,37
 259 304 259 304 279.5 344 c 128,-1,38
 300 384 300 384 337 407.5 c 128,-1,39
 374 431 374 431 421 431 c 0,40,41
 497 431 497 431 539.5 383.5 c 128,-1,42
 582 336 582 336 582 259 c 0,43,0
 582 189 582 189 547.5 124.5 c 128,-1,1
360.5 167 m 128,-1,45
 376 126 376 126 405 84 c 1,46,47
 448 106 448 106 470 150.5 c 128,-1,48
 492 195 492 195 493 260 c 1,49,50
 493 361 493 361 421 361 c 0,51,52
 384 361 384 361 364.5 333 c 128,-1,53
 345 305 345 305 345 255 c 0,54,44
 345 208 345 208 360.5 167 c 128,-1,45
EndSplineSet
Colour: ff0000
EndChar
StartChar: uni04AA
Encoding: 1194 1194 357
Width: 600
Flags: W
LayerCount: 2
Fore
SplineSet
468 -128 m 0,1,2
 468 -178 468 -178 434.5 -208.5 c 128,-1,3
 401 -239 401 -239 343 -239 c 0,4,5
 286 -239 286 -239 246 -214 c 1,6,-1
 268 -163 l 1,7,8
 287 -172 287 -172 301.5 -176.5 c 128,-1,9
 316 -181 316 -181 338 -181 c 0,10,11
 366 -181 366 -181 380.5 -166 c 128,-1,12
 395 -151 395 -151 395 -125 c 0,13,14
 395 -92 395 -92 376 -62 c 128,-1,15
 357 -32 357 -32 319 -9 c 1,16,17
 244 1 244 1 186.5 45.5 c 128,-1,18
 129 90 129 90 96 166 c 128,-1,19
 63 242 63 242 63 345 c 0,20,21
 63 457 63 457 102.5 537.5 c 128,-1,22
 142 618 142 618 209.5 659 c 128,-1,23
 277 700 277 700 358 700 c 0,24,25
 422 700 422 700 468 683.5 c 128,-1,26
 514 667 514 667 558 633 c 1,27,-1
 509 576 l 1,28,29
 448 627 448 627 364 627 c 0,30,31
 271 627 271 627 212.5 559.5 c 128,-1,32
 154 492 154 492 154 345 c 0,33,34
 154 199 154 199 211 131 c 128,-1,35
 268 63 268 63 363 63 c 0,36,37
 415 63 415 63 452 78 c 128,-1,38
 489 93 489 93 523 120 c 1,39,-1
 568 64 l 1,40,41
 503 -1 503 -1 394 -10 c 1,42,0
 468 -58 468 -58 468 -128 c 0,1,2
EndSplineSet
Colour: ff0000
EndChar
StartChar: uni04AD
Encoding: 1197 1197 495
Width: 600
Flags: W
LayerCount: 2
Fore
SplineSet
342 457 m 1,0,-1
 342 69 l 1,1,-1
 423 69 l 1,2,-1
 423 -147 l 1,3,-1
 353 -147 l 1,4,-1
 339 0 l 1,5,-1
 258 0 l 1,6,-1
 258 457 l 1,7,-1
 65 457 l 1,8,-1
 65 527 l 1,9,-1
 541 527 l 1,10,-1
 530 457 l 1,11,-1
 342 457 l 1,0,-1
EndSplineSet
Colour: ff0000
EndChar
StartChar: uni04B1
Encoding: 1201 1201 497
Width: 600
Flags: W
LayerCount: 2
Fore
SplineSet
363 72 m 1,0,-1
 446 72 l 1,1,-1
 446 4 l 1,2,-1
 341 4 l 1,3,-1
 341 -202 l 1,4,-1
 259 -212 l 1,5,-1
 259 4 l 1,6,-1
 154 4 l 1,7,-1
 154 72 l 1,8,-1
 237 72 l 1,9,-1
 58 527 l 1,10,-1
 147 527 l 1,11,-1
 302 97 l 1,12,-1
 455 527 l 1,13,-1
 542 527 l 1,14,-1
 363 72 l 1,0,-1
EndSplineSet
Colour: ff0000
EndChar
StartChar: uni04B2
Encoding: 1202 1202 361
Width: 600
Flags: W
LayerCount: 2
Fore
SplineSet
574 73 m 1,0,-1
 574 -147 l 1,1,-1
 505 -147 l 1,2,-1
 491 0 l 1,3,-1
 469 0 l 1,4,-1
 298 311 l 1,5,-1
 124 0 l 1,6,-1
 31 0 l 1,7,-1
 247 367 l 1,8,-1
 49 689 l 1,9,-1
 149 689 l 1,10,-1
 300 424 l 1,11,-1
 452 689 l 1,12,-1
 545 689 l 1,13,-1
 350 372 l 1,14,-1
 526 73 l 1,15,-1
 574 73 l 1,0,-1
EndSplineSet
Colour: ff0000
EndChar
StartChar: uni04B5
Encoding: 1205 1205 563
Width: 600
Flags: W
LayerCount: 2
Fore
SplineSet
555 69 m 1,0,-1
 555 -147 l 1,1,-1
 484 -147 l 1,2,-1
 470 0 l 1,3,-1
 125 0 l 1,4,-1
 125 460 l 1,5,-1
 0 460 l 1,6,-1
 0 527 l 1,7,-1
 339 527 l 1,8,-1
 329 460 l 1,9,-1
 211 460 l 1,10,-1
 211 70 l 1,11,-1
 409 70 l 1,12,-1
 409 527 l 1,13,-1
 495 527 l 1,14,-1
 495 69 l 1,15,-1
 555 69 l 1,0,-1
EndSplineSet
Colour: ff0000
EndChar
StartChar: uni04B6
Encoding: 1206 1206 362
Width: 600
Flags: W
LayerCount: 2
Fore
SplineSet
578 73 m 1,0,-1
 578 -147 l 1,1,-1
 509 -147 l 1,2,-1
 495 0 l 1,3,-1
 430 0 l 1,4,-1
 430 282 l 1,5,6
 384 248 384 248 344 233.5 c 128,-1,7
 304 219 304 219 251 219 c 0,8,9
 161 219 161 219 106 274.5 c 128,-1,10
 51 330 51 330 51 423 c 2,11,-1
 51 689 l 1,12,-1
 137 689 l 1,13,-1
 137 430 l 2,14,15
 137 362 137 362 172 328.5 c 128,-1,16
 207 295 207 295 273 295 c 0,17,18
 369 295 369 295 430 356 c 1,19,-1
 430 689 l 1,20,-1
 517 689 l 1,21,-1
 517 73 l 1,22,-1
 578 73 l 1,0,-1
EndSplineSet
Colour: ff0000
EndChar
StartChar: uni04B8
Encoding: 1208 1208 363
Width: 600
Flags: W
LayerCount: 2
Fore
SplineSet
517 689 m 1,0,-1
 517 0 l 1,1,-1
 430 0 l 1,2,-1
 430 282 l 1,3,4
 371 238 371 238 318 226 c 1,5,-1
 318 119 l 1,6,-1
 260 119 l 1,7,-1
 260 219 l 1,8,-1
 251 219 l 2,9,10
 161 219 161 219 106 274.5 c 128,-1,11
 51 330 51 330 51 423 c 2,12,-1
 51 689 l 1,13,-1
 137 689 l 1,14,-1
 137 430 l 2,15,16
 137 302 137 302 260 296 c 1,17,-1
 260 538 l 1,18,-1
 318 538 l 1,19,-1
 318 299 l 1,20,21
 383 311 383 311 430 356 c 1,22,-1
 430 689 l 1,23,-1
 517 689 l 1,0,-1
EndSplineSet
Colour: ff0000
EndChar
StartChar: uni04BF
Encoding: 1215 1215 504
Width: 600
Flags: W
LayerCount: 2
Fore
SplineSet
553 234 m 1,1,-1
 227 234 l 1,2,3
 229 148 229 148 269 103.5 c 128,-1,4
 309 59 309 59 371 59 c 0,5,6
 406 59 406 59 431.5 68.5 c 128,-1,7
 457 78 457 78 489 99 c 1,8,-1
 529 46 l 1,9,10
 490 14 490 14 444 0 c 1,11,12
 372 -31 372 -31 346 -58 c 128,-1,13
 320 -85 320 -85 320 -114 c 0,14,15
 320 -138 320 -138 333 -150 c 128,-1,16
 346 -162 346 -162 376 -162 c 0,17,18
 403 -162 403 -162 437 -155 c 1,19,-1
 429 -223 l 1,20,21
 387 -229 387 -229 365 -229 c 0,22,23
 309 -229 309 -229 276 -201.5 c 128,-1,24
 243 -174 243 -174 243 -131 c 0,25,26
 243 -57 243 -57 331 -9 c 1,27,28
 248 4 248 4 198.5 69 c 128,-1,29
 149 134 149 134 143 235 c 1,30,31
 78 236 78 236 44.5 266 c 128,-1,32
 11 296 11 296 11 346 c 0,33,34
 11 374 11 374 21 397 c 128,-1,35
 31 420 31 420 50 448 c 1,36,-1
 103 421 l 1,37,38
 93 399 93 399 88 383 c 128,-1,39
 83 367 83 367 83 350 c 0,40,41
 83 325 83 325 96 311.5 c 128,-1,42
 109 298 109 298 134 298 c 2,43,-1
 144 298 l 1,44,45
 152 404 152 404 209 471 c 128,-1,46
 266 538 266 538 355 538 c 0,47,48
 450 538 450 538 502.5 469 c 128,-1,49
 555 400 555 400 555 279 c 0,50,0
 555 256 555 256 553 234 c 1,1,-1
474 298 m 1,51,52
 471 470 471 470 356 470 c 0,53,54
 300 470 300 470 266 426.5 c 128,-1,55
 232 383 232 383 227 298 c 1,56,-1
 474 298 l 1,51,52
EndSplineSet
Colour: ff0000
EndChar
StartChar: uni04C3
Encoding: 1219 1219 370
Width: 600
Flags: W
LayerCount: 2
Fore
SplineSet
487 319.5 m 128,-1,1
 532 265 532 265 532 171 c 2,2,-1
 532 -61 l 2,3,4
 532 -134 532 -134 493.5 -172.5 c 128,-1,5
 455 -211 455 -211 387 -211 c 0,6,7
 322 -211 322 -211 275 -174 c 1,8,-1
 308 -117 l 1,9,10
 327 -130 327 -130 343.5 -135.5 c 128,-1,11
 360 -141 360 -141 383 -141 c 0,12,13
 445 -141 445 -141 445 -66 c 2,14,-1
 445 170 l 2,15,16
 445 242 445 242 413 277 c 128,-1,17
 381 312 381 312 314 312 c 1,18,-1
 314 321 l 1,19,-1
 309 312 l 1,20,-1
 170 312 l 1,21,-1
 170 0 l 1,22,-1
 83 0 l 1,23,-1
 83 689 l 1,24,-1
 170 689 l 1,25,-1
 170 385 l 1,26,-1
 269 385 l 1,27,-1
 441 689 l 1,28,-1
 534 689 l 1,29,-1
 351 384 l 1,30,0
 442 374 442 374 487 319.5 c 128,-1,1
EndSplineSet
Colour: ff0000
EndChar
StartChar: uni04C5
Encoding: 1221 1221 371
Width: 600
Flags: W
LayerCount: 2
Fore
SplineSet
581 69 m 1,0,-1
 503 -147 l 1,1,-1
 435 -147 l 1,2,-1
 470 0 l 1,3,-1
 404 0 l 1,4,-1
 404 614 l 1,5,-1
 249 614 l 1,6,-1
 224 410 l 2,7,8
 205 254 205 254 184 175 c 128,-1,9
 163 96 163 96 136 60 c 128,-1,10
 109 24 109 24 57 -11 c 1,11,-1
 19 53 l 1,12,13
 48 77 48 77 65 103 c 128,-1,14
 82 129 82 129 100 195 c 128,-1,15
 118 261 118 261 134 386 c 2,16,-1
 173 689 l 1,17,-1
 491 689 l 1,18,-1
 491 69 l 1,19,-1
 581 69 l 1,0,-1
EndSplineSet
Colour: ff0000
EndChar
StartChar: uni04C7
Encoding: 1223 1223 372
Width: 600
Flags: W
LayerCount: 2
Fore
SplineSet
478.5 -172.5 m 128,-1,1
 440 -211 440 -211 372 -211 c 0,2,3
 308 -211 308 -211 259 -174 c 1,4,-1
 293 -117 l 1,5,6
 312 -130 312 -130 328 -135.5 c 128,-1,7
 344 -141 344 -141 368 -141 c 0,8,9
 430 -141 430 -141 430 -66 c 2,10,-1
 430 327 l 1,11,-1
 170 327 l 1,12,-1
 170 0 l 1,13,-1
 83 0 l 1,14,-1
 83 689 l 1,15,-1
 170 689 l 1,16,-1
 170 398 l 1,17,-1
 430 398 l 1,18,-1
 430 689 l 1,19,-1
 517 689 l 1,20,-1
 517 -61 l 2,21,0
 517 -134 517 -134 478.5 -172.5 c 128,-1,1
EndSplineSet
Colour: ff0000
EndChar
StartChar: uni04C9
Encoding: 1225 1225 373
Width: 600
Flags: W
LayerCount: 2
Fore
SplineSet
577 69 m 1,0,-1
 499 -147 l 1,1,-1
 431 -147 l 1,2,-1
 466 0 l 1,3,-1
 400 0 l 1,4,-1
 400 327 l 1,5,-1
 159 327 l 1,6,-1
 159 0 l 1,7,-1
 72 0 l 1,8,-1
 72 689 l 1,9,-1
 159 689 l 1,10,-1
 159 398 l 1,11,-1
 400 398 l 1,12,-1
 400 689 l 1,13,-1
 487 689 l 1,14,-1
 487 69 l 1,15,-1
 577 69 l 1,0,-1
EndSplineSet
Colour: ff0000
EndChar
StartChar: uni04CD
Encoding: 1229 1229 375
Width: 600
Flags: W
LayerCount: 2
Fore
SplineSet
604 69 m 1,0,-1
 527 -147 l 1,1,-1
 456 -147 l 1,2,-1
 491 0 l 1,3,-1
 446 0 l 1,4,-1
 424 360 l 2,5,6
 419 453 419 453 419 571 c 2,7,-1
 419 603 l 1,8,-1
 317 124 l 1,9,-1
 230 124 l 1,10,-1
 122 603 l 1,11,-1
 122 545 l 2,12,13
 122 417 122 417 119 360 c 2,14,-1
 100 0 l 1,15,-1
 19 0 l 1,16,-1
 58 689 l 1,17,-1
 179 689 l 1,18,-1
 276 217 l 1,19,-1
 368 689 l 1,20,-1
 490 689 l 1,21,-1
 525 69 l 1,22,-1
 604 69 l 1,0,-1
EndSplineSet
Colour: ff0000
EndChar
StartChar: uni04CE
Encoding: 1230 1230 512
Width: 600
Flags: W
LayerCount: 2
Fore
SplineSet
597 66 m 1,0,-1
 531 -147 l 1,1,-1
 463 -147 l 1,2,-1
 497 0 l 1,3,-1
 448 0 l 1,4,-1
 428 257 l 2,5,6
 423 327 423 327 423 392 c 0,7,8
 423 431 423 431 424 452 c 1,9,-1
 335 88 l 1,10,-1
 251 88 l 1,11,-1
 150 452 l 1,12,13
 151 429 151 429 151 382 c 0,14,15
 151 313 151 313 148 259 c 2,16,-1
 133 0 l 1,17,-1
 52 0 l 1,18,-1
 90 527 l 1,19,-1
 200 527 l 1,20,-1
 294 167 l 1,21,-1
 380 527 l 1,22,-1
 491 527 l 1,23,-1
 525 66 l 1,24,-1
 597 66 l 1,0,-1
EndSplineSet
Colour: ff0000
EndChar
StartChar: uni04D9
Encoding: 1241 1241 516
Width: 600
Flags: W
LayerCount: 2
Fore
SplineSet
468 466 m 128,-1,1
 525 394 525 394 525 264 c 0,2,3
 525 135 525 135 463.5 62 c 128,-1,4
 402 -11 402 -11 294 -11 c 0,5,6
 191 -11 191 -11 132 57.5 c 128,-1,7
 73 126 73 126 73 247 c 0,8,9
 73 279 73 279 75 293 c 1,10,-1
 434 293 l 1,11,12
 429 384 429 384 394 425.5 c 128,-1,13
 359 467 359 467 290 467 c 0,14,15
 248 467 248 467 215.5 456 c 128,-1,16
 183 445 183 445 151 418 c 1,17,-1
 111 476 l 1,18,19
 189 538 189 538 292 538 c 0,20,0
 411 538 411 538 468 466 c 128,-1,1
396.5 96.5 m 128,-1,22
 431 136 431 136 435 228 c 1,23,-1
 156 228 l 1,24,-1
 156 220 l 2,25,26
 156 142 156 142 192.5 99.5 c 128,-1,27
 229 57 229 57 294 57 c 0,28,21
 362 57 362 57 396.5 96.5 c 128,-1,22
EndSplineSet
Colour: ff0000
EndChar
StartChar: uni04E0
Encoding: 1248 1248 383
Width: 600
Flags: W
LayerCount: 2
Fore
SplineSet
473.5 348 m 128,-1,1
 530 296 530 296 530 205 c 0,2,3
 530 141 530 141 499.5 92 c 128,-1,4
 469 43 469 43 413 16 c 128,-1,5
 357 -11 357 -11 282 -11 c 0,6,7
 211 -11 211 -11 163 7.5 c 128,-1,8
 115 26 115 26 70 63 c 1,9,-1
 115 118 l 1,10,11
 156 89 156 89 192.5 75.5 c 128,-1,12
 229 62 229 62 283 62 c 0,13,14
 359 62 359 62 399 100 c 128,-1,15
 439 138 439 138 439 207 c 0,16,17
 439 331 439 331 298 331 c 2,18,-1
 178 331 l 1,19,-1
 178 395 l 1,20,-1
 400 616 l 1,21,-1
 97 616 l 1,22,-1
 97 689 l 1,23,-1
 501 689 l 1,24,-1
 501 616 l 1,25,-1
 278 400 l 1,26,-1
 295 400 l 2,27,0
 417 400 417 400 473.5 348 c 128,-1,1
EndSplineSet
Colour: ff0000
EndChar
StartChar: uni04F6
Encoding: 1270 1270 394
Width: 600
Flags: W
LayerCount: 2
Fore
SplineSet
223 612 m 1,0,-1
 223 73 l 1,1,-1
 282 73 l 1,2,-1
 282 -147 l 1,3,-1
 213 -147 l 1,4,-1
 199 0 l 1,5,-1
 136 0 l 1,6,-1
 136 689 l 1,7,-1
 544 689 l 1,8,-1
 535 612 l 1,9,-1
 223 612 l 1,0,-1
EndSplineSet
Colour: ff0000
EndChar
StartChar: uni04F7
Encoding: 1271 1271 531
Width: 600
Flags: W
LayerCount: 2
Fore
SplineSet
242 456 m 1,0,-1
 242 69 l 1,1,-1
 323 69 l 1,2,-1
 323 -147 l 1,3,-1
 253 -147 l 1,4,-1
 239 0 l 1,5,-1
 158 0 l 1,6,-1
 158 527 l 1,7,-1
 524 527 l 1,8,-1
 514 456 l 1,9,-1
 242 456 l 1,0,-1
EndSplineSet
Colour: ff0000
EndChar
StartChar: uni04FB
Encoding: 1275 1275 533
Width: 600
Flags: W
LayerCount: 2
Fore
SplineSet
272 456 m 1,0,-1
 272 302 l 1,1,-1
 397 302 l 1,2,-1
 397 235 l 1,3,-1
 272 235 l 1,4,-1
 272 69 l 1,5,-1
 352 69 l 1,6,-1
 352 -61 l 2,7,8
 352 -134 352 -134 312.5 -172.5 c 128,-1,9
 273 -211 273 -211 206 -211 c 0,10,11
 142 -211 142 -211 93 -174 c 1,12,-1
 126 -120 l 1,13,14
 149 -132 149 -132 164 -137.5 c 128,-1,15
 179 -143 179 -143 202 -143 c 0,16,17
 268 -143 268 -143 268 -68 c 2,18,-1
 268 0 l 1,19,-1
 188 0 l 1,20,-1
 188 235 l 1,21,-1
 94 235 l 1,22,-1
 94 302 l 1,23,-1
 188 302 l 1,24,-1
 188 527 l 1,25,-1
 555 527 l 1,26,-1
 545 456 l 1,27,-1
 272 456 l 1,0,-1
EndSplineSet
Colour: ff0000
EndChar
StartChar: uni04FE
Encoding: 1278 1278 398
Width: 600
Flags: W
LayerCount: 2
Fore
SplineSet
569 0 m 1,0,-1
 469 0 l 1,1,-1
 298 311 l 1,2,-1
 124 0 l 1,3,-1
 31 0 l 1,4,-1
 228 334 l 1,5,-1
 72 334 l 1,6,-1
 72 400 l 1,7,-1
 227 400 l 1,8,-1
 49 689 l 1,9,-1
 149 689 l 1,10,-1
 300 424 l 1,11,-1
 452 689 l 1,12,-1
 545 689 l 1,13,-1
 368 400 l 1,14,-1
 528 400 l 1,15,-1
 528 334 l 1,16,-1
 372 334 l 1,17,-1
 569 0 l 1,0,-1
EndSplineSet
Colour: ff0000
EndChar
StartChar: uni04FF
Encoding: 1279 1279 535
Width: 600
Flags: W
LayerCount: 2
Fore
SplineSet
544 0 m 1,0,-1
 442 0 l 1,1,-1
 300 236 l 1,2,-1
 152 0 l 1,3,-1
 56 0 l 1,4,-1
 231 251 l 1,5,-1
 109 251 l 1,6,-1
 109 310 l 1,7,-1
 228 310 l 1,8,-1
 79 527 l 1,9,-1
 179 527 l 1,10,-1
 300 321 l 1,11,-1
 424 527 l 1,12,-1
 521 527 l 1,13,-1
 370 310 l 1,14,-1
 491 310 l 1,15,-1
 491 251 l 1,16,-1
 371 251 l 1,17,-1
 544 0 l 1,0,-1
EndSplineSet
Colour: ff0000
EndChar
StartChar: uni0502
Encoding: 1282 1282 400
Width: 600
Flags: W
LayerCount: 2
Fore
SplineSet
585 250 m 0,1,2
 585 117 585 117 539.5 51.5 c 128,-1,3
 494 -14 494 -14 420 -14 c 0,4,5
 377 -14 377 -14 345 7 c 128,-1,6
 313 28 313 28 296 66 c 1,7,8
 248 -14 248 -14 164 -14 c 0,9,10
 122 -14 122 -14 87 9 c 128,-1,11
 52 32 52 32 30.5 78 c 128,-1,12
 9 124 9 124 9 190 c 0,13,14
 9 303 9 303 65.5 364.5 c 128,-1,15
 122 426 122 426 232 426 c 2,16,-1
 278 426 l 1,17,-1
 278 689 l 1,18,-1
 365 689 l 1,19,-1
 365 155 l 2,20,21
 365 107 365 107 379 81.5 c 128,-1,22
 393 56 393 56 421 56 c 0,23,24
 455 56 455 56 476.5 100.5 c 128,-1,25
 498 145 498 145 498 248 c 0,26,27
 498 307 498 307 493 377 c 1,28,-1
 580 377 l 1,29,0
 585 312 585 312 585 250 c 0,1,2
234.5 77 m 128,-1,31
 257 98 257 98 278 142 c 1,32,-1
 278 359 l 1,33,-1
 230 359 l 2,34,35
 167 359 167 359 131.5 317 c 128,-1,36
 96 275 96 275 96 190 c 0,37,38
 96 120 96 120 119 88 c 128,-1,39
 142 56 142 56 180 56 c 0,40,30
 212 56 212 56 234.5 77 c 128,-1,31
EndSplineSet
Colour: ff0000
EndChar
StartChar: uni0505
Encoding: 1285 1285 538
Width: 600
Flags: W
LayerCount: 2
Fore
SplineSet
576 253 m 0,1,2
 576 118 576 118 524.5 52 c 128,-1,3
 473 -14 473 -14 390 -14 c 0,4,5
 326 -14 326 -14 284 17.5 c 128,-1,6
 242 49 242 49 203 118 c 1,7,-1
 155 206 l 1,8,-1
 49 206 l 1,9,-1
 49 271 l 1,10,-1
 148 271 l 2,11,12
 204 271 204 271 234 293.5 c 128,-1,13
 264 316 264 316 264 367 c 0,14,15
 264 416 264 416 232 438.5 c 128,-1,16
 200 461 200 461 134 461 c 2,17,-1
 11 461 l 1,18,-1
 11 527 l 1,19,-1
 135 527 l 2,20,21
 240 527 240 527 296 486 c 128,-1,22
 352 445 352 445 352 367 c 0,23,24
 352 312 352 312 322.5 276.5 c 128,-1,25
 293 241 293 241 234 221 c 1,26,-1
 284 130 l 2,27,28
 308 88 308 88 333 72 c 128,-1,29
 358 56 358 56 391 56 c 0,30,31
 490 56 490 56 490 251 c 0,32,33
 490 307 490 307 485 377 c 1,34,-1
 571 377 l 1,35,0
 576 312 576 312 576 253 c 0,1,2
EndSplineSet
Colour: ff0000
EndChar
StartChar: uni0508
Encoding: 1288 1288 403
Width: 600
Flags: W
LayerCount: 2
Fore
SplineSet
587 250 m 0,1,2
 587 117 587 117 541 51.5 c 128,-1,3
 495 -14 495 -14 421 -14 c 0,4,5
 359 -14 359 -14 319.5 30 c 128,-1,6
 280 74 280 74 280 158 c 2,7,-1
 280 616 l 1,8,-1
 185 616 l 1,9,-1
 167 370 l 2,10,11
 157 234 157 234 143 162.5 c 128,-1,12
 129 91 129 91 110 58 c 128,-1,13
 91 25 91 25 55 -11 c 1,14,-1
 5 49 l 1,15,16
 26 71 26 71 38 98.5 c 128,-1,17
 50 126 50 126 60 192 c 128,-1,18
 70 258 70 258 81 388 c 2,19,-1
 105 689 l 1,20,-1
 366 689 l 1,21,-1
 366 155 l 2,22,23
 366 107 366 107 380.5 81.5 c 128,-1,24
 395 56 395 56 423 56 c 0,25,26
 457 56 457 56 478.5 100.5 c 128,-1,27
 500 145 500 145 500 248 c 0,28,29
 500 307 500 307 495 377 c 1,30,-1
 582 377 l 1,31,0
 587 312 587 312 587 250 c 0,1,2
EndSplineSet
Colour: ff0000
EndChar
StartChar: uni050B
Encoding: 1291 1291 541
Width: 600
Flags: W
LayerCount: 2
Fore
SplineSet
594 253 m 0,1,2
 594 119 594 119 546.5 52.5 c 128,-1,3
 499 -14 499 -14 423 -14 c 0,4,5
 361 -14 361 -14 319.5 28 c 128,-1,6
 278 70 278 70 278 150 c 2,7,-1
 278 234 l 1,8,-1
 131 234 l 1,9,-1
 131 0 l 1,10,-1
 45 0 l 1,11,-1
 45 527 l 1,12,-1
 131 527 l 1,13,-1
 131 303 l 1,14,-1
 278 303 l 1,15,-1
 278 527 l 1,16,-1
 363 527 l 1,17,-1
 363 140 l 2,18,19
 363 103 363 103 378.5 79.5 c 128,-1,20
 394 56 394 56 424 56 c 0,21,22
 461 56 461 56 484 101 c 128,-1,23
 507 146 507 146 507 251 c 0,24,25
 507 307 507 307 502 377 c 1,26,-1
 589 377 l 1,27,0
 594 312 594 312 594 253 c 0,1,2
EndSplineSet
Colour: ff0000
EndChar
StartChar: uni050E
Encoding: 1294 1294 406
Width: 600
Flags: W
LayerCount: 2
Fore
SplineSet
568 256 m 0,1,2
 568 166 568 166 537 106 c 128,-1,3
 506 46 506 46 458 17.5 c 128,-1,4
 410 -11 410 -11 358 -11 c 0,5,6
 287 -11 287 -11 240.5 36.5 c 128,-1,7
 194 84 194 84 194 171 c 2,8,-1
 194 613 l 1,9,-1
 15 613 l 1,10,-1
 15 689 l 1,11,-1
 485 689 l 1,12,-1
 476 613 l 1,13,-1
 281 613 l 1,14,-1
 281 185 l 2,15,16
 281 57 281 57 361 57 c 0,17,18
 414 57 414 57 448 103 c 128,-1,19
 482 149 482 149 482 256 c 0,20,21
 482 309 482 309 477 379 c 1,22,-1
 563 379 l 1,23,0
 568 314 568 314 568 256 c 0,1,2
EndSplineSet
Colour: ff0000
EndChar
StartChar: uni050F
Encoding: 1295 1295 543
Width: 600
Flags: W
LayerCount: 2
Fore
SplineSet
547 245 m 0,1,2
 547 159 547 159 517.5 100.5 c 128,-1,3
 488 42 488 42 441 14 c 128,-1,4
 394 -14 394 -14 341 -14 c 0,5,6
 267 -14 267 -14 219 33 c 128,-1,7
 171 80 171 80 171 162 c 2,8,-1
 171 456 l 1,9,-1
 3 456 l 1,10,-1
 3 527 l 1,11,-1
 427 527 l 1,12,-1
 417 456 l 1,13,-1
 255 456 l 1,14,-1
 255 167 l 2,15,16
 255 112 255 112 278.5 84 c 128,-1,17
 302 56 302 56 342 56 c 0,18,19
 393 56 393 56 427 100.5 c 128,-1,20
 461 145 461 145 461 247 c 0,21,22
 461 293 461 293 457 371 c 1,23,-1
 543 371 l 1,24,0
 547 299 547 299 547 245 c 0,1,2
EndSplineSet
Colour: ff0000
EndChar
StartChar: uni0510
Encoding: 1296 1296 407
Width: 600
Flags: W
LayerCount: 2
Fore
SplineSet
443.5 678.5 m 128,-1,1
 500 657 500 657 551 614 c 1,2,-1
 503 563 l 1,3,4
 461 596 461 596 418 612.5 c 128,-1,5
 375 629 375 629 321 629 c 0,6,7
 255 629 255 629 213.5 600.5 c 128,-1,8
 172 572 172 572 172 518 c 0,9,10
 172 462 172 462 214 434 c 128,-1,11
 256 406 256 406 320 406 c 2,12,-1
 437 406 l 1,13,-1
 427 333 l 1,14,-1
 314 333 l 2,15,16
 241 333 241 333 197 300.5 c 128,-1,17
 153 268 153 268 153 201 c 0,18,19
 153 136 153 136 197.5 99 c 128,-1,20
 242 62 242 62 322 62 c 0,21,22
 428 62 428 62 513 135 c 1,23,-1
 565 86 l 1,24,25
 521 39 521 39 457 14 c 128,-1,26
 393 -11 393 -11 319 -11 c 0,27,28
 240 -11 240 -11 181 16 c 128,-1,29
 122 43 122 43 90.5 91 c 128,-1,30
 59 139 59 139 59 200 c 0,31,32
 59 276 59 276 107 321.5 c 128,-1,33
 155 367 155 367 225 375 c 1,34,35
 164 384 164 384 123.5 421.5 c 128,-1,36
 83 459 83 459 83 517 c 0,37,38
 83 571 83 571 113 612.5 c 128,-1,39
 143 654 143 654 197 677 c 128,-1,40
 251 700 251 700 320 700 c 0,41,0
 387 700 387 700 443.5 678.5 c 128,-1,1
EndSplineSet
Colour: ff0000
EndChar
StartChar: uni0512
Encoding: 1298 1298 408
Width: 600
Flags: W
LayerCount: 2
Fore
SplineSet
478.5 -172.5 m 128,-1,1
 440 -211 440 -211 372 -211 c 0,2,3
 308 -211 308 -211 259 -174 c 1,4,-1
 293 -117 l 1,5,6
 312 -130 312 -130 328 -135.5 c 128,-1,7
 344 -141 344 -141 368 -141 c 0,8,9
 430 -141 430 -141 430 -66 c 2,10,-1
 430 614 l 1,11,-1
 245 614 l 1,12,-1
 220 410 l 2,13,14
 201 254 201 254 180 175 c 128,-1,15
 159 96 159 96 132 60 c 128,-1,16
 105 24 105 24 53 -11 c 1,17,-1
 15 53 l 1,18,19
 44 77 44 77 61 103 c 128,-1,20
 78 129 78 129 96 195 c 128,-1,21
 114 261 114 261 130 386 c 2,22,-1
 169 689 l 1,23,-1
 517 689 l 1,24,-1
 517 -61 l 2,25,0
 517 -134 517 -134 478.5 -172.5 c 128,-1,1
EndSplineSet
Colour: ff0000
EndChar
StartChar: uni0515
Encoding: 1301 1301 546
Width: 600
Flags: W
LayerCount: 2
Fore
SplineSet
598 0 m 1,0,-1
 509 0 l 1,1,-1
 406 226 l 1,2,-1
 302 0 l 1,3,-1
 219 0 l 1,4,-1
 361 278 l 1,5,-1
 271 459 l 1,6,-1
 186 459 l 1,7,-1
 175 325 l 2,8,9
 165 206 165 206 151.5 144 c 128,-1,10
 138 82 138 82 116 50 c 128,-1,11
 94 18 94 18 53 -11 c 1,12,-1
 17 45 l 1,13,14
 38 64 38 64 50.5 86 c 128,-1,15
 63 108 63 108 73.5 162 c 128,-1,16
 84 216 84 216 92 320 c 2,17,-1
 108 527 l 1,18,-1
 325 527 l 1,19,-1
 411 331 l 1,20,-1
 499 527 l 1,21,-1
 580 527 l 1,22,-1
 456 282 l 1,23,-1
 598 0 l 1,0,-1
EndSplineSet
Colour: ff0000
EndChar
StartChar: uni0519
Encoding: 1305 1305 548
Width: 600
Flags: W
LayerCount: 2
Fore
SplineSet
595 51 m 1,0,1
 518 -11 518 -11 429 -11 c 0,2,3
 350 -11 350 -11 299.5 47.5 c 128,-1,4
 249 106 249 106 237 204 c 1,5,-1
 188 204 l 1,6,-1
 88 0 l 1,7,-1
 6 0 l 1,8,-1
 112 220 l 1,9,10
 20 262 20 262 20 361 c 0,11,12
 20 436 20 436 75 481.5 c 128,-1,13
 130 527 130 527 219 527 c 2,14,-1
 362 527 l 1,15,16
 390 538 390 538 422 538 c 0,17,18
 506 538 506 538 549.5 469.5 c 128,-1,19
 593 401 593 401 593 279 c 0,20,21
 593 256 593 256 591 234 c 1,22,-1
 319 234 l 1,23,24
 322 144 322 144 352.5 100 c 128,-1,25
 383 56 383 56 434 56 c 0,26,27
 471 56 471 56 496 65.5 c 128,-1,28
 521 75 521 75 556 100 c 1,29,-1
 595 51 l 1,0,1
423 470 m 0,31,32
 378 470 378 470 351 427.5 c 128,-1,33
 324 385 324 385 319 299 c 1,34,-1
 515 299 l 1,35,30
 512 470 512 470 423 470 c 0,31,32
130.5 292.5 m 128,-1,37
 158 269 158 269 212 269 c 2,38,-1
 234 269 l 1,39,40
 234 329 234 329 247.5 379 c 128,-1,41
 261 429 261 429 287 465 c 1,42,-1
 217 465 l 2,43,44
 103 465 103 465 103 361 c 0,45,36
 103 316 103 316 130.5 292.5 c 128,-1,37
EndSplineSet
Colour: ff0000
EndChar
StartChar: uni051E
Encoding: 1310 1310 414
Width: 600
Flags: W
LayerCount: 2
Fore
SplineSet
581 0 m 1,0,-1
 476 0 l 1,1,-1
 256 326 l 1,2,-1
 176 326 l 1,3,-1
 176 0 l 1,4,-1
 89 0 l 1,5,-1
 89 689 l 1,6,-1
 176 689 l 1,7,-1
 176 399 l 1,8,-1
 257 399 l 1,9,-1
 347 523 l 1,10,-1
 227 601 l 1,11,-1
 265 656 l 1,12,-1
 387 577 l 1,13,-1
 468 689 l 1,14,-1
 562 689 l 1,15,-1
 452 535 l 1,16,-1
 560 465 l 1,17,-1
 522 409 l 1,18,-1
 413 480 l 1,19,-1
 330 364 l 1,20,-1
 581 0 l 1,0,-1
EndSplineSet
Colour: ff0000
EndChar
StartChar: uni0523
Encoding: 1315 1315 553
Width: 600
Flags: W
LayerCount: 2
Fore
SplineSet
559.5 311 m 128,-1,1
 596 273 596 273 596 211 c 2,2,-1
 596 -60 l 2,3,4
 596 -133 596 -133 556 -172 c 128,-1,5
 516 -211 516 -211 448 -211 c 0,6,7
 384 -211 384 -211 335 -174 c 1,8,-1
 369 -119 l 1,9,10
 389 -130 389 -130 405 -135.5 c 128,-1,11
 421 -141 421 -141 444 -141 c 0,12,13
 511 -141 511 -141 511 -66 c 2,14,-1
 511 205 l 2,15,16
 511 242 511 242 494.5 262 c 128,-1,17
 478 282 478 282 446 282 c 0,18,19
 419 282 419 282 398 272.5 c 128,-1,20
 377 263 377 263 356 243 c 1,21,-1
 356 0 l 1,22,-1
 271 0 l 1,23,-1
 271 234 l 1,24,-1
 114 234 l 1,25,-1
 114 0 l 1,26,-1
 28 0 l 1,27,-1
 28 527 l 1,28,-1
 114 527 l 1,29,-1
 114 303 l 1,30,-1
 271 303 l 1,31,-1
 271 527 l 1,32,-1
 356 527 l 1,33,-1
 356 307 l 1,34,35
 400 349 400 349 466 349 c 0,36,0
 523 349 523 349 559.5 311 c 128,-1,1
EndSplineSet
Colour: ff0000
EndChar
StartChar: uni0524
Encoding: 1316 1316 355
Width: 600
Flags: W
LayerCount: 2
Fore
SplineSet
578 73 m 1,0,-1
 578 -147 l 1,1,-1
 509 -147 l 1,2,-1
 495 0 l 1,3,-1
 430 0 l 1,4,-1
 430 613 l 1,5,-1
 170 613 l 1,6,-1
 170 0 l 1,7,-1
 83 0 l 1,8,-1
 83 689 l 1,9,-1
 517 689 l 1,10,-1
 517 73 l 1,11,-1
 578 73 l 1,0,-1
EndSplineSet
Colour: ff0000
EndChar
StartChar: uni0525
Encoding: 1317 1317 491
Width: 600
Flags: W
LayerCount: 2
Fore
SplineSet
574 69 m 1,0,-1
 574 -147 l 1,1,-1
 505 -147 l 1,2,-1
 490 0 l 1,3,-1
 409 0 l 1,4,-1
 409 458 l 1,5,-1
 178 458 l 1,6,-1
 178 0 l 1,7,-1
 94 0 l 1,8,-1
 94 527 l 1,9,-1
 493 527 l 1,10,-1
 493 69 l 1,11,-1
 574 69 l 1,0,-1
EndSplineSet
Colour: ff0000
EndChar
StartChar: uni0526
Encoding: 1318 1318 365
Width: 600
Flags: W
LayerCount: 2
Fore
SplineSet
601 73 m 1,0,-1
 601 -147 l 1,1,-1
 532 -147 l 1,2,-1
 517 0 l 1,3,-1
 455 0 l 1,4,-1
 455 234 l 2,5,6
 455 374 455 374 322 374 c 0,7,8
 274 374 274 374 237.5 354 c 128,-1,9
 201 334 201 334 170 295 c 1,10,-1
 170 0 l 1,11,-1
 83 0 l 1,12,-1
 83 689 l 1,13,-1
 170 689 l 1,14,-1
 170 379 l 1,15,16
 235 450 235 450 341 450 c 0,17,18
 435 450 435 450 488 393 c 128,-1,19
 541 336 541 336 541 235 c 2,20,-1
 541 73 l 1,21,-1
 601 73 l 1,0,-1
EndSplineSet
Colour: ff0000
EndChar
StartChar: uni0527
Encoding: 1319 1319 502
Width: 600
Flags: W
LayerCount: 2
Fore
SplineSet
576 69 m 1,0,-1
 576 -147 l 1,1,-1
 507 -147 l 1,2,-1
 492 0 l 1,3,-1
 411 0 l 1,4,-1
 411 303 l 2,5,6
 411 360 411 360 388 385 c 128,-1,7
 365 410 365 410 322 410 c 0,8,9
 276 410 276 410 242.5 386 c 128,-1,10
 209 362 209 362 180 317 c 1,11,-1
 180 0 l 1,12,-1
 96 0 l 1,13,-1
 96 738 l 1,14,-1
 180 747 l 1,15,-1
 180 394 l 1,16,17
 208 433 208 433 248 455 c 128,-1,18
 288 477 288 477 339 477 c 0,19,20
 411 477 411 477 453 434 c 128,-1,21
 495 391 495 391 495 317 c 2,22,-1
 495 69 l 1,23,-1
 576 69 l 1,0,-1
EndSplineSet
Colour: ff0000
EndChar
StartChar: uni052A
Encoding: 1322 1322 279
Width: 600
Flags: W
LayerCount: 2
Fore
SplineSet
612 0 m 1,0,-1
 529 0 l 1,1,-1
 452 323 l 1,2,-1
 426 323 l 1,3,-1
 426 0 l 1,4,-1
 367 0 l 1,5,-1
 367 -147 l 1,6,-1
 303 -147 l 1,7,-1
 287 0 l 1,8,-1
 66 0 l 1,9,-1
 51 -147 l 1,10,-1
 -13 -147 l 1,11,-1
 -13 64 l 1,12,-1
 21 64 l 1,13,14
 38 111 38 111 48 147.5 c 128,-1,15
 58 184 58 184 68.5 254 c 128,-1,16
 79 324 79 324 86 435 c 2,17,-1
 102 689 l 1,18,-1
 302 689 l 1,19,-1
 302 395 l 1,20,-1
 353 395 l 1,21,-1
 353 689 l 1,22,-1
 426 689 l 1,23,-1
 426 395 l 1,24,-1
 453 395 l 1,25,-1
 519 689 l 1,26,-1
 591 689 l 1,27,-1
 515 362 l 1,28,-1
 612 0 l 1,0,-1
229 622 m 1,29,-1
 174 622 l 1,30,-1
 163 431 l 1,31,32
 155 274 155 274 138 195 c 128,-1,33
 121 116 121 116 90 64 c 1,34,-1
 229 64 l 1,35,-1
 229 622 l 1,29,-1
302 323 m 1,36,-1
 302 64 l 1,37,-1
 353 64 l 1,38,-1
 353 323 l 1,39,-1
 302 323 l 1,36,-1
EndSplineSet
Colour: ff0000
EndChar
StartChar: uni052D
Encoding: 1325 1325 556
Width: 600
Flags: W
LayerCount: 2
Fore
SplineSet
562 70 m 1,0,-1
 562 -147 l 1,1,-1
 491 -147 l 1,2,-1
 477 0 l 1,3,-1
 137 0 l 1,4,-1
 122 -147 l 1,5,-1
 51 -147 l 1,6,-1
 51 70 l 1,7,-1
 89 70 l 1,8,9
 123 90 123 90 149 131.5 c 128,-1,10
 175 173 175 173 188 261 c 1,11,12
 118 273 118 273 86 316 c 128,-1,13
 54 359 54 359 54 437 c 2,14,-1
 54 527 l 1,15,-1
 138 527 l 1,16,-1
 138 440 l 2,17,18
 138 395 138 395 152 369.5 c 128,-1,19
 166 344 166 344 195 334 c 1,20,-1
 209 527 l 1,21,-1
 496 527 l 1,22,-1
 496 70 l 1,23,-1
 562 70 l 1,0,-1
279 340 m 2,24,25
 279 331 279 331 278 327 c 1,26,-1
 408 327 l 1,27,-1
 408 456 l 1,28,-1
 288 456 l 1,29,-1
 279 340 l 2,24,25
408 70 m 1,30,-1
 408 256 l 1,31,-1
 269 256 l 1,32,33
 255 177 255 177 231 131.5 c 128,-1,34
 207 86 207 86 179 70 c 1,35,-1
 408 70 l 1,30,-1
EndSplineSet
Colour: ff0000
EndChar
StartChar: uni052E
Encoding: 1326 1326 280
Width: 600
Flags: W
LayerCount: 2
Fore
SplineSet
547 73 m 1,0,-1
 547 -147 l 1,1,-1
 479 -147 l 1,2,-1
 464 0 l 1,3,-1
 399 0 l 1,4,-1
 399 614 l 1,5,-1
 233 614 l 1,6,-1
 208 410 l 2,7,8
 189 254 189 254 168 175 c 128,-1,9
 147 96 147 96 120 60 c 128,-1,10
 93 24 93 24 41 -11 c 1,11,-1
 3 53 l 1,12,13
 32 77 32 77 49 103 c 128,-1,14
 66 129 66 129 84 195 c 128,-1,15
 102 261 102 261 118 386 c 2,16,-1
 157 689 l 1,17,-1
 486 689 l 1,18,-1
 486 73 l 1,19,-1
 547 73 l 1,0,-1
EndSplineSet
Colour: ff0000
EndChar
StartChar: uni052F
Encoding: 1327 1327 558
Width: 600
Flags: W
LayerCount: 2
Fore
SplineSet
566 69 m 1,0,-1
 566 -147 l 1,1,-1
 496 -147 l 1,2,-1
 482 0 l 1,3,-1
 401 0 l 1,4,-1
 401 456 l 1,5,-1
 223 456 l 1,6,-1
 212 317 l 2,7,8
 202 199 202 199 187.5 139 c 128,-1,9
 173 79 173 79 147.5 48 c 128,-1,10
 122 17 122 17 72 -11 c 1,11,-1
 36 43 l 1,12,13
 65 61 65 61 81.5 83.5 c 128,-1,14
 98 106 98 106 110.5 159 c 128,-1,15
 123 212 123 212 131 314 c 2,16,-1
 147 527 l 1,17,-1
 485 527 l 1,18,-1
 485 69 l 1,19,-1
 566 69 l 1,0,-1
EndSplineSet
Colour: ff0000
EndChar
StartChar: uni1FC1
Encoding: 8129 8129 1472
Width: 600
Flags: W
LayerCount: 2
Fore
SplineSet
326.5 783 m 128,-1,1
 311 790 311 790 292 803 c 0,2,3
 277 814 277 814 266.5 819 c 128,-1,4
 256 824 256 824 245 824 c 0,5,6
 229 824 229 824 217 813 c 128,-1,7
 205 802 205 802 192 778 c 1,8,-1
 139 804 l 1,9,10
 158 843 158 843 184.5 866 c 128,-1,11
 211 889 211 889 245 889 c 0,12,13
 266 889 266 889 281 881.5 c 128,-1,14
 296 874 296 874 315 861 c 0,15,16
 332 849 332 849 341 844.5 c 128,-1,17
 350 840 350 840 361 840 c 0,18,19
 376 840 376 840 388 850.5 c 128,-1,20
 400 861 400 861 414 885 c 1,21,-1
 468 858 l 1,22,23
 449 817 449 817 421.5 796.5 c 128,-1,24
 394 776 394 776 361 776 c 0,25,0
 342 776 342 776 326.5 783 c 128,-1,1
161 634.5 m 128,-1,27
 145 650 145 650 145 672 c 0,28,29
 145 696 145 696 161 711.5 c 128,-1,30
 177 727 177 727 200 727 c 256,31,32
 223 727 223 727 238.5 711.5 c 128,-1,33
 254 696 254 696 254 672 c 0,34,35
 254 649 254 649 238.5 634 c 128,-1,36
 223 619 223 619 200 619 c 256,37,26
 177 619 177 619 161 634.5 c 128,-1,27
368.5 634 m 128,-1,39
 353 649 353 649 353 672 c 0,40,41
 353 696 353 696 368.5 711.5 c 128,-1,42
 384 727 384 727 407 727 c 256,43,44
 430 727 430 727 446 711.5 c 128,-1,45
 462 696 462 696 462 672 c 0,46,47
 462 650 462 650 446 634.5 c 128,-1,48
 430 619 430 619 407 619 c 256,49,38
 384 619 384 619 368.5 634 c 128,-1,39
EndSplineSet
Colour: ff0000
EndChar
StartChar: uni1FCF
Encoding: 8143 8143 1468
Width: 600
Flags: W
LayerCount: 2
Fore
SplineSet
325.5 753 m 128,-1,1
 310 760 310 760 291 773 c 0,2,3
 276 784 276 784 265.5 789 c 128,-1,4
 255 794 255 794 244 794 c 0,5,6
 228 794 228 794 216 783 c 128,-1,7
 204 772 204 772 191 748 c 1,8,-1
 137 775 l 1,9,10
 178 859 178 859 244 859 c 0,11,12
 264 859 264 859 280 851.5 c 128,-1,13
 296 844 296 844 314 831 c 1,14,15
 330 821 330 821 339.5 816 c 128,-1,16
 349 811 349 811 360 811 c 0,17,18
 375 811 375 811 387 821.5 c 128,-1,19
 399 832 399 832 413 855 c 1,20,-1
 466 828 l 1,21,22
 428 746 428 746 360 746 c 0,23,0
 341 746 341 746 325.5 753 c 128,-1,1
278 639 m 1,24,25
 247 657 247 657 247 688 c 0,26,27
 247 711 247 711 263 726 c 128,-1,28
 279 741 279 741 303 741 c 0,29,30
 326 741 326 741 341.5 726 c 128,-1,31
 357 711 357 711 357 688 c 0,32,33
 357 675 357 675 351 658.5 c 128,-1,34
 345 642 345 642 328 612 c 2,35,-1
 309 577 l 1,36,-1
 258 577 l 1,37,-1
 278 639 l 1,24,25
EndSplineSet
Colour: ff0000
EndChar
StartChar: uni1FD2
Encoding: 8146 8146 844
Width: 600
Flags: W
LayerCount: 2
Fore
SplineSet
320 744 m 1,0,-1
 285 711 l 1,1,-1
 151 836 l 1,2,-1
 204 886 l 1,3,-1
 320 744 l 1,0,-1
220.5 719.5 m 128,-1,5
 236 704 236 704 236 681 c 0,6,7
 236 659 236 659 220.5 643 c 128,-1,8
 205 627 205 627 182 627 c 0,9,10
 158 627 158 627 142.5 642.5 c 128,-1,11
 127 658 127 658 127 681 c 256,12,13
 127 704 127 704 142.5 719.5 c 128,-1,14
 158 735 158 735 182 735 c 0,15,4
 205 735 205 735 220.5 719.5 c 128,-1,5
426 719.5 m 128,-1,17
 442 704 442 704 442 681 c 256,18,19
 442 658 442 658 426 642.5 c 128,-1,20
 410 627 410 627 387 627 c 256,21,22
 364 627 364 627 348.5 642.5 c 128,-1,23
 333 658 333 658 333 681 c 256,24,25
 333 704 333 704 348.5 719.5 c 128,-1,26
 364 735 364 735 387 735 c 256,27,16
 410 735 410 735 426 719.5 c 128,-1,17
63 455 m 1,28,-1
 72 527 l 1,29,-1
 324 527 l 1,30,-1
 324 130 l 2,31,32
 324 59 324 59 411 59 c 0,33,34
 453 59 453 59 500 77 c 1,35,-1
 522 16 l 1,36,37
 503 5 503 5 467.5 -3 c 128,-1,38
 432 -11 432 -11 397 -11 c 0,39,40
 325 -11 325 -11 282.5 29 c 128,-1,41
 240 69 240 69 240 140 c 2,42,-1
 240 455 l 1,43,-1
 63 455 l 1,28,-1
EndSplineSet
Colour: ff0000
EndChar
StartChar: uni1FDD
Encoding: 8157 8157 1465
Width: 600
Flags: W
LayerCount: 2
Fore
SplineSet
254.5 782.5 m 128,-1,1
 270 767 270 767 270 744 c 0,2,3
 270 731 270 731 264 719 c 128,-1,4
 258 707 258 707 248 699 c 1,5,-1
 278 582 l 1,6,-1
 227 582 l 1,7,-1
 177 689 l 2,8,9
 162 722 162 722 162 744 c 0,10,11
 162 767 162 767 177.5 782.5 c 128,-1,12
 193 798 193 798 216 798 c 256,13,0
 239 798 239 798 254.5 782.5 c 128,-1,1
432 590 m 1,14,-1
 375 574 l 1,15,-1
 307 773 l 1,16,-1
 384 792 l 1,17,-1
 432 590 l 1,14,-1
EndSplineSet
Colour: ff0000
EndChar
StartChar: uni1FEE
Encoding: 8174 8174 1471
Width: 600
Flags: W
LayerCount: 2
Fore
SplineSet
437 836 m 1,0,-1
 303 711 l 1,1,-1
 268 744 l 1,2,-1
 384 886 l 1,3,-1
 437 836 l 1,0,-1
236.5 719.5 m 128,-1,5
 252 704 252 704 252 681 c 256,6,7
 252 658 252 658 236.5 642.5 c 128,-1,8
 221 627 221 627 198 627 c 256,9,10
 175 627 175 627 159 642.5 c 128,-1,11
 143 658 143 658 143 681 c 256,12,13
 143 704 143 704 159 719.5 c 128,-1,14
 175 735 175 735 198 735 c 256,15,4
 221 735 221 735 236.5 719.5 c 128,-1,5
442 719.5 m 128,-1,17
 458 704 458 704 458 681 c 256,18,19
 458 658 458 658 442 642.5 c 128,-1,20
 426 627 426 627 403 627 c 0,21,22
 381 627 381 627 365 643 c 128,-1,23
 349 659 349 659 349 681 c 0,24,25
 349 704 349 704 364.5 719.5 c 128,-1,26
 380 735 380 735 403 735 c 256,27,16
 426 735 426 735 442 719.5 c 128,-1,17
EndSplineSet
Colour: ff0000
EndChar
StartChar: uni1FFE
Encoding: 8190 8190 1463
Width: 600
Flags: W
LayerCount: 2
Fore
SplineSet
335.5 790 m 128,-1,1
 351 775 351 775 351 752 c 0,2,3
 351 724 351 724 329 707 c 1,4,-1
 358 590 l 1,5,-1
 308 590 l 1,6,-1
 257 697 l 1,7,8
 242 732 242 732 242 752 c 0,9,10
 242 774 242 774 258 789.5 c 128,-1,11
 274 805 274 805 297 805 c 256,12,0
 320 805 320 805 335.5 790 c 128,-1,1
EndSplineSet
Colour: ff0000
EndChar
StartChar: figuredash
Encoding: 8210 8210 1023
Width: 600
Flags: W
LayerCount: 2
Fore
SplineSet
35 349 m 1,0,-1
 565 349 l 1,1,-1
 565 276 l 1,2,-1
 35 276 l 1,3,-1
 35 349 l 1,0,-1
EndSplineSet
Colour: ff0000
EndChar
StartChar: quoteright
Encoding: 8217 8217 1039
Width: 600
Flags: W
LayerCount: 2
Fore
SplineSet
253 767.5 m 128,-1,1
 276 789 276 789 306 789 c 0,2,3
 338 789 338 789 360.5 768 c 128,-1,4
 383 747 383 747 383 716 c 0,5,6
 383 702 383 702 379 688 c 128,-1,7
 375 674 375 674 364 650 c 2,8,-1
 282 477 l 1,9,-1
 216 477 l 1,10,-1
 257 661 l 1,11,12
 245 670 245 670 237.5 684.5 c 128,-1,13
 230 699 230 699 230 716 c 0,14,0
 230 746 230 746 253 767.5 c 128,-1,1
EndSplineSet
EndChar
StartChar: quotedblbase
Encoding: 8222 8222 1035
Width: 600
Flags: W
LayerCount: 2
Fore
SplineSet
146 108 m 128,-1,1
 169 130 169 130 199 130 c 0,2,3
 231 130 231 130 253.5 108.5 c 128,-1,4
 276 87 276 87 276 56 c 0,5,6
 276 42 276 42 272 28.5 c 128,-1,7
 268 15 268 15 257 -9 c 2,8,-1
 175 -182 l 1,9,-1
 109 -182 l 1,10,-1
 150 2 l 1,11,12
 138 10 138 10 130.5 25 c 128,-1,13
 123 40 123 40 123 56 c 0,14,0
 123 86 123 86 146 108 c 128,-1,1
361.5 108.5 m 128,-1,16
 384 130 384 130 415 130 c 256,17,18
 446 130 446 130 468 108.5 c 128,-1,19
 490 87 490 87 490 56 c 0,20,21
 490 30 490 30 472 -9 c 2,22,-1
 390 -182 l 1,23,-1
 324 -182 l 1,24,-1
 365 2 l 1,25,26
 353 10 353 10 346 24.5 c 128,-1,27
 339 39 339 39 339 56 c 0,28,15
 339 87 339 87 361.5 108.5 c 128,-1,16
EndSplineSet
Colour: ff0000
EndChar
StartChar: daggerdbl
Encoding: 8225 8225 1390
Width: 600
Flags: W
LayerCount: 2
Fore
SplineSet
340 513 m 1,0,-1
 510 513 l 1,1,-1
 510 442 l 1,2,-1
 340 442 l 1,3,-1
 340 232 l 1,4,-1
 510 232 l 1,5,-1
 510 161 l 1,6,-1
 340 161 l 1,7,-1
 340 0 l 1,8,-1
 260 0 l 1,9,-1
 260 161 l 1,10,-1
 90 161 l 1,11,-1
 90 232 l 1,12,-1
 260 232 l 1,13,-1
 260 442 l 1,14,-1
 90 442 l 1,15,-1
 90 513 l 1,16,-1
 260 513 l 1,17,-1
 260 677 l 1,18,-1
 340 677 l 1,19,-1
 340 513 l 1,0,-1
EndSplineSet
Colour: ff0000
EndChar
StartChar: perthousand
Encoding: 8240 8240 1103
Width: 600
Flags: W
LayerCount: 2
Fore
SplineSet
268.5 663 m 128,-1,1
 305 626 305 626 305 565 c 0,2,3
 305 503 305 503 268.5 466 c 128,-1,4
 232 429 232 429 176 429 c 0,5,6
 119 429 119 429 82 466 c 128,-1,7
 45 503 45 503 45 565 c 0,8,9
 45 626 45 626 82 663 c 128,-1,10
 119 700 119 700 176 700 c 0,11,0
 232 700 232 700 268.5 663 c 128,-1,1
126.5 626 m 128,-1,13
 113 603 113 603 113 565 c 0,14,15
 113 477 113 477 176 477 c 0,16,17
 212 477 212 477 225.5 501 c 128,-1,18
 239 525 239 525 239 565 c 0,19,20
 239 603 239 603 225.5 626 c 128,-1,21
 212 649 212 649 176 649 c 256,22,12
 140 649 140 649 126.5 626 c 128,-1,13
575 472 m 1,23,-1
 44 263 l 1,24,-1
 18 320 l 1,25,-1
 551 529 l 1,26,-1
 575 472 l 1,23,-1
268.5 221 m 128,-1,28
 305 184 305 184 305 123 c 0,29,30
 305 61 305 61 268.5 24.5 c 128,-1,31
 232 -12 232 -12 175 -12 c 256,32,33
 118 -12 118 -12 81.5 24.5 c 128,-1,34
 45 61 45 61 45 123 c 0,35,36
 45 184 45 184 81.5 221 c 128,-1,37
 118 258 118 258 175 258 c 256,38,27
 232 258 232 258 268.5 221 c 128,-1,28
544.5 221 m 128,-1,40
 581 184 581 184 581 123 c 0,41,42
 581 61 581 61 544.5 24.5 c 128,-1,43
 508 -12 508 -12 452 -12 c 0,44,45
 394 -12 394 -12 357.5 24.5 c 128,-1,46
 321 61 321 61 321 123 c 0,47,48
 321 184 321 184 358 221 c 128,-1,49
 395 258 395 258 452 258 c 0,50,39
 508 258 508 258 544.5 221 c 128,-1,40
125.5 184 m 128,-1,52
 112 161 112 161 112 123 c 0,53,54
 112 36 112 36 175 36 c 0,55,56
 212 36 212 36 224.5 59 c 128,-1,57
 237 82 237 82 237 123 c 0,58,59
 237 161 237 161 224.5 184 c 128,-1,60
 212 207 212 207 175 207 c 0,61,51
 139 207 139 207 125.5 184 c 128,-1,52
402 184 m 128,-1,63
 388 161 388 161 388 123 c 0,64,65
 388 36 388 36 452 36 c 0,66,67
 488 36 488 36 501.5 60 c 128,-1,68
 515 84 515 84 515 123 c 0,69,70
 515 207 515 207 452 207 c 0,71,62
 416 207 416 207 402 184 c 128,-1,63
EndSplineSet
Colour: ff0000
EndChar
StartChar: guilsinglleft
Encoding: 8249 8249 1033
Width: 600
Flags: W
LayerCount: 2
Fore
SplineSet
362 55 m 1,0,-1
 188 263 l 1,1,-1
 188 324 l 1,2,-1
 362 532 l 1,3,-1
 412 501 l 1,4,-1
 278 294 l 1,5,-1
 412 87 l 1,6,-1
 362 55 l 1,0,-1
EndSplineSet
Colour: ff0000
EndChar
StartChar: guilsinglright
Encoding: 8250 8250 1034
Width: 600
Flags: W
LayerCount: 2
Fore
SplineSet
188 501 m 1,0,-1
 238 532 l 1,1,-1
 412 324 l 1,2,-1
 412 263 l 1,3,-1
 238 55 l 1,4,-1
 188 87 l 1,5,-1
 322 294 l 1,6,-1
 188 501 l 1,0,-1
EndSplineSet
Colour: ff0000
EndChar
StartChar: fraction
Encoding: 8260 8260 920
Width: 600
Flags: W
LayerCount: 2
Fore
SplineSet
-282 238 m 1,0,-1
 253 494 l 1,1,-1
 282 440 l 1,2,-1
 -252 184 l 1,3,-1
 -282 238 l 1,0,-1
EndSplineSet
EndChar
StartChar: uni204A
Encoding: 8266 8266 994
Width: 600
Flags: W
LayerCount: 2
Fore
SplineSet
166 -183 m 1,0,-1
 409 455 l 1,1,-1
 94 455 l 1,2,-1
 94 527 l 1,3,-1
 496 527 l 1,4,-1
 496 460 l 1,5,-1
 242 -209 l 1,6,-1
 166 -183 l 1,0,-1
EndSplineSet
Colour: ff0000
EndChar
StartChar: uni20AF
Encoding: 8367 8367 1058
Width: 600
Flags: W
LayerCount: 2
Fore
SplineSet
473 300 m 1,0,-1
 126 300 l 1,1,-1
 265 689 l 1,2,-1
 334 689 l 1,3,-1
 473 300 l 1,0,-1
206 350 m 1,4,-1
 389 350 l 1,5,-1
 298 635 l 1,6,-1
 206 350 l 1,4,-1
404 221.5 m 128,-1,8
 438 178 438 178 438 95 c 0,9,10
 438 22 438 22 405 -26.5 c 128,-1,11
 372 -75 372 -75 310 -75 c 0,12,13
 263 -75 263 -75 234 -49 c 1,14,-1
 234 -193 l 1,15,-1
 171 -200 l 1,16,-1
 171 99 l 2,17,18
 171 180 171 180 205.5 222.5 c 128,-1,19
 240 265 240 265 303 265 c 0,20,7
 370 265 370 265 404 221.5 c 128,-1,8
353 4.5 m 128,-1,22
 369 33 369 33 369 95 c 0,23,24
 369 159 369 159 352 188 c 128,-1,25
 335 217 335 217 301 217 c 0,26,27
 262 217 262 217 248 187.5 c 128,-1,28
 234 158 234 158 234 91 c 2,29,-1
 234 2 l 1,30,31
 258 -24 258 -24 298 -24 c 0,32,21
 337 -24 337 -24 353 4.5 c 128,-1,22
EndSplineSet
Colour: ff0000
EndChar
StartChar: uni20BA
Encoding: 8378 8378 1061
Width: 600
Flags: W
LayerCount: 2
Fore
SplineSet
559 180 m 1,0,1
 528 91 528 91 464.5 45.5 c 128,-1,2
 401 0 401 0 292 0 c 2,3,-1
 145 0 l 1,4,-1
 145 208 l 1,5,-1
 87 182 l 1,6,-1
 63 235 l 1,7,-1
 145 273 l 1,8,-1
 145 348 l 1,9,-1
 89 322 l 1,10,-1
 63 377 l 1,11,-1
 145 415 l 1,12,-1
 145 689 l 1,13,-1
 231 689 l 1,14,-1
 231 455 l 1,15,-1
 395 531 l 1,16,-1
 420 477 l 1,17,-1
 231 389 l 1,18,-1
 231 313 l 1,19,-1
 394 390 l 1,20,-1
 419 336 l 1,21,-1
 231 249 l 1,22,-1
 231 76 l 1,23,-1
 295 76 l 2,24,25
 370 76 370 76 416 105 c 128,-1,26
 462 134 462 134 494 206 c 1,27,-1
 559 180 l 1,0,1
EndSplineSet
Colour: ff0000
EndChar
StartChar: uni2113
Encoding: 8467 8467 1386
Width: 600
Flags: W
LayerCount: 2
Fore
SplineSet
449 77 m 1,1,-1
 471 16 l 1,2,3
 421 -11 421 -11 346 -11 c 0,4,5
 276 -11 276 -11 234 27.5 c 128,-1,6
 192 66 192 66 192 134 c 2,7,-1
 192 237 l 1,8,-1
 186 234 l 1,9,-1
 120 182 l 1,10,-1
 87 225 l 1,11,-1
 192 308 l 1,12,-1
 192 535 l 2,13,14
 192 639 192 639 234 694 c 128,-1,15
 276 749 276 749 352 749 c 0,16,17
 413 749 413 749 448.5 713 c 128,-1,18
 484 677 484 677 484 620 c 0,19,20
 484 533 484 533 433.5 455 c 128,-1,21
 383 377 383 377 273 294 c 1,22,-1
 273 130 l 2,23,24
 273 59 273 59 360 59 c 0,25,0
 402 59 402 59 449 77 c 1,1,-1
290 651 m 128,-1,27
 273 614 273 614 273 534 c 2,28,-1
 273 378 l 1,29,30
 342 443 342 443 371 498.5 c 128,-1,31
 400 554 400 554 400 622 c 0,32,33
 400 656 400 656 387.5 672 c 128,-1,34
 375 688 375 688 348 688 c 0,35,26
 307 688 307 688 290 651 c 128,-1,27
EndSplineSet
Colour: ff0000
EndChar
StartChar: arrowleft
Encoding: 8592 8592 1147
Width: 600
Flags: W
LayerCount: 2
Fore
SplineSet
357 580 m 1,0,-1
 214 424 l 2,1,2
 189 397 189 397 179.5 387.5 c 128,-1,3
 170 378 170 378 150 366 c 1,4,-1
 577 366 l 1,5,-1
 577 292 l 1,6,-1
 150 292 l 1,7,8
 179 273 179 273 214 234 c 2,9,-1
 357 78 l 1,10,-1
 294 24 l 1,11,-1
 23 329 l 1,12,-1
 294 634 l 1,13,-1
 357 580 l 1,0,-1
EndSplineSet
Colour: ff0000
EndChar
StartChar: arrowup
Encoding: 8593 8593 1141
Width: 600
Flags: W
LayerCount: 2
Fore
SplineSet
613 389 m 1,0,-1
 562 332 l 1,1,-1
 401 479 l 2,2,3
 381 496 381 496 367 512.5 c 128,-1,4
 353 529 353 529 342 550 c 1,5,-1
 342 0 l 1,6,-1
 258 0 l 1,7,-1
 258 550 l 1,8,9
 247 528 247 528 233.5 512.5 c 128,-1,10
 220 497 220 497 199 479 c 2,11,-1
 38 332 l 1,12,-1
 -13 389 l 1,13,-1
 300 668 l 1,14,-1
 613 389 l 1,0,-1
EndSplineSet
Colour: ff0000
EndChar
StartChar: arrowright
Encoding: 8594 8594 1143
Width: 600
Flags: W
LayerCount: 2
Fore
SplineSet
577 329 m 1,0,-1
 306 24 l 1,1,-1
 243 78 l 1,2,-1
 386 234 l 2,3,4
 421 273 421 273 450 292 c 1,5,-1
 23 292 l 1,6,-1
 23 366 l 1,7,-1
 450 366 l 1,8,9
 430 378 430 378 420.5 387.5 c 128,-1,10
 411 397 411 397 386 424 c 2,11,-1
 243 580 l 1,12,-1
 306 634 l 1,13,-1
 577 329 l 1,0,-1
EndSplineSet
Colour: ff0000
EndChar
StartChar: arrowboth
Encoding: 8596 8596 1149
Width: 600
Flags: W
LayerCount: 2
Fore
SplineSet
430 52 m 1,0,-1
 367 105 l 1,1,-1
 483 234 l 1,2,3
 514 270 514 270 547 292 c 1,4,-1
 53 292 l 1,5,6
 82 273 82 273 117 234 c 2,7,-1
 236 105 l 1,8,-1
 173 52 l 1,9,-1
 -74 329 l 1,10,-1
 174 606 l 1,11,-1
 236 553 l 1,12,-1
 117 424 l 2,13,14
 95 399 95 399 84 389 c 128,-1,15
 73 379 73 379 53 366 c 1,16,-1
 547 366 l 1,17,18
 527 379 527 379 516 389 c 128,-1,19
 505 399 505 399 483 424 c 2,20,-1
 366 553 l 1,21,-1
 428 606 l 1,22,-1
 674 329 l 1,23,-1
 430 52 l 1,0,-1
EndSplineSet
Colour: ff0000
EndChar
StartChar: arrowupdn
Encoding: 8597 8597 1150
Width: 600
Flags: W
LayerCount: 2
Fore
SplineSet
613 586 m 1,0,-1
 562 530 l 1,1,-1
 401 677 l 2,2,3
 380 695 380 695 366.5 710.5 c 128,-1,4
 353 726 353 726 342 747 c 1,5,-1
 342 -68 l 1,6,7
 353 -47 353 -47 367 -30.5 c 128,-1,8
 381 -14 381 -14 401 3 c 2,9,-1
 562 150 l 1,10,-1
 613 94 l 1,11,-1
 300 -185 l 1,12,-1
 -13 94 l 1,13,-1
 38 150 l 1,14,-1
 199 3 l 2,15,16
 220 -15 220 -15 233.5 -30.5 c 128,-1,17
 247 -46 247 -46 258 -68 c 1,18,-1
 258 747 l 1,19,20
 247 726 247 726 233.5 710.5 c 128,-1,21
 220 695 220 695 199 677 c 2,22,-1
 38 530 l 1,23,-1
 -13 586 l 1,24,-1
 300 865 l 1,25,-1
 613 586 l 1,0,-1
EndSplineSet
Colour: ff0000
EndChar
StartChar: uni2196
Encoding: 8598 8598 1148
Width: 600
Flags: W
LayerCount: 2
Fore
SplineSet
124 463 m 1,0,1
 133 426 133 426 133 386 c 0,2,3
 133 369 133 369 132 361 c 2,4,-1
 119 157 l 1,5,-1
 39 161 l 1,6,-1
 61 578 l 1,7,-1
 469 600 l 1,8,-1
 474 523 l 1,9,-1
 284 512 l 2,10,11
 272 511 272 511 253 511 c 0,12,13
 221 511 221 511 180 519 c 1,14,-1
 561 134 l 1,15,-1
 505 78 l 1,16,-1
 124 463 l 1,0,1
EndSplineSet
Colour: ff0000
EndChar
StartChar: uni2198
Encoding: 8600 8600 1144
Width: 600
Flags: W
LayerCount: 2
Fore
SplineSet
476 180 m 1,0,1
 467 217 467 217 467 257 c 0,2,3
 467 274 467 274 468 282 c 2,4,-1
 481 487 l 1,5,-1
 561 482 l 1,6,-1
 539 65 l 1,7,-1
 131 43 l 1,8,-1
 126 120 l 1,9,-1
 316 131 l 2,10,11
 328 132 328 132 347 132 c 0,12,13
 379 132 379 132 420 124 c 1,14,-1
 39 509 l 1,15,-1
 95 565 l 1,16,-1
 476 180 l 1,0,1
EndSplineSet
Colour: ff0000
EndChar
StartChar: uni21E9
Encoding: 8681 8681 1153
Width: 600
Flags: W
LayerCount: 2
Fore
SplineSet
417.5 736.5 m 128,-1,1
 431 723 431 723 431 700 c 2,2,-1
 431 204 l 1,3,-1
 600 204 l 1,4,-1
 300 -94 l 1,5,-1
 0 204 l 1,6,-1
 169 204 l 1,7,-1
 169 700 l 2,8,9
 169 723 169 723 183 736.5 c 128,-1,10
 197 750 197 750 219 750 c 2,11,-1
 381 750 l 2,12,0
 404 750 404 750 417.5 736.5 c 128,-1,1
216 706 m 1,13,-1
 216 159 l 1,14,-1
 109 159 l 1,15,-1
 300 -30 l 1,16,-1
 491 159 l 1,17,-1
 384 159 l 1,18,-1
 384 706 l 1,19,-1
 216 706 l 1,13,-1
EndSplineSet
Colour: ff0000
EndChar
StartChar: product
Encoding: 8719 8719 1108
Width: 600
Flags: W
LayerCount: 2
Fore
SplineSet
573 618 m 1,0,-1
 486 618 l 1,1,-1
 486 -202 l 1,2,-1
 403 -212 l 1,3,-1
 403 618 l 1,4,-1
 199 618 l 1,5,-1
 199 -202 l 1,6,-1
 115 -212 l 1,7,-1
 115 618 l 1,8,-1
 27 618 l 1,9,-1
 27 689 l 1,10,-1
 573 689 l 1,11,-1
 573 618 l 1,0,-1
EndSplineSet
Colour: ff0000
EndChar
StartChar: infinity
Encoding: 8734 8734 1087
Width: 600
Flags: W
LayerCount: 2
Fore
SplineSet
568 458 m 128,-1,1
 605 404 605 404 605 315 c 256,2,3
 605 226 605 226 568.5 172.5 c 128,-1,4
 532 119 532 119 456 119 c 0,5,6
 403 119 403 119 366 150.5 c 128,-1,7
 329 182 329 182 300 249 c 1,8,9
 272 187 272 187 236.5 153 c 128,-1,10
 201 119 201 119 147 119 c 0,11,12
 68 119 68 119 30.5 173 c 128,-1,13
 -7 227 -7 227 -7 316 c 256,14,15
 -7 405 -7 405 30 458.5 c 128,-1,16
 67 512 67 512 143 512 c 0,17,18
 196 512 196 512 232 480.5 c 128,-1,19
 268 449 268 449 298 382 c 1,20,21
 328 444 328 444 363.5 478 c 128,-1,22
 399 512 399 512 452 512 c 0,23,0
 531 512 531 512 568 458 c 128,-1,1
77 316 m 256,25,26
 77 188 77 188 149 188 c 0,27,28
 187 188 187 188 210.5 222.5 c 128,-1,29
 234 257 234 257 261 325 c 1,30,31
 243 365 243 365 231 386.5 c 128,-1,32
 219 408 219 408 198 426 c 128,-1,33
 177 444 177 444 149 444 c 0,34,24
 77 444 77 444 77 316 c 256,25,26
388.5 408 m 128,-1,36
 365 373 365 373 338 305 c 1,37,38
 340 300 340 300 356.5 264.5 c 128,-1,39
 373 229 373 229 397.5 208 c 128,-1,40
 422 187 422 187 450 187 c 0,41,42
 522 187 522 187 522 315 c 256,43,44
 522 443 522 443 450 443 c 0,45,35
 412 443 412 443 388.5 408 c 128,-1,36
EndSplineSet
Colour: ff0000
EndChar
StartChar: intersection
Encoding: 8745 8745 1091
Width: 600
Flags: W
LayerCount: 2
Fore
SplineSet
413.5 544 m 128,-1,1
 465 514 465 514 495.5 462 c 128,-1,2
 526 410 526 410 526 348 c 2,3,-1
 526 42 l 1,4,-1
 454 42 l 1,5,-1
 454 348 l 2,6,7
 454 389 454 389 433 424.5 c 128,-1,8
 412 460 412 460 376.5 481 c 128,-1,9
 341 502 341 502 300 502 c 256,10,11
 259 502 259 502 223.5 481 c 128,-1,12
 188 460 188 460 167 424.5 c 128,-1,13
 146 389 146 389 146 348 c 2,14,-1
 146 42 l 1,15,-1
 74 42 l 1,16,-1
 74 348 l 2,17,18
 74 410 74 410 104.5 462 c 128,-1,19
 135 514 135 514 186.5 544 c 128,-1,20
 238 574 238 574 300 574 c 256,21,0
 362 574 362 574 413.5 544 c 128,-1,1
EndSplineSet
Colour: ff0000
EndChar
StartChar: notequal
Encoding: 8800 8800 1100
Width: 600
Flags: W
LayerCount: 2
Fore
SplineSet
365 370 m 1,0,-1
 295 252 l 1,1,-1
 494 252 l 1,2,-1
 494 180 l 1,3,-1
 252 180 l 1,4,-1
 163 28 l 1,5,-1
 115 55 l 1,6,-1
 190 180 l 1,7,-1
 106 180 l 1,8,-1
 106 252 l 1,9,-1
 233 252 l 1,10,-1
 303 370 l 1,11,-1
 106 370 l 1,12,-1
 106 442 l 1,13,-1
 346 442 l 1,14,-1
 436 594 l 1,15,-1
 482 569 l 1,16,-1
 407 442 l 1,17,-1
 494 442 l 1,18,-1
 494 370 l 1,19,-1
 365 370 l 1,0,-1
EndSplineSet
Colour: ff0000
EndChar
StartChar: lessequal
Encoding: 8804 8804 1093
Width: 600
Flags: W
LayerCount: 2
Fore
SplineSet
493 479 m 1,0,-1
 172 340 l 1,1,-1
 493 214 l 1,2,-1
 458 142 l 1,3,-1
 106 296 l 1,4,-1
 106 386 l 1,5,-1
 458 547 l 1,6,-1
 493 479 l 1,0,-1
475 0 m 1,7,-1
 106 0 l 1,8,-1
 106 74 l 1,9,-1
 475 74 l 1,10,-1
 475 0 l 1,7,-1
EndSplineSet
Colour: ff0000
EndChar
StartChar: revlogicalnot
Encoding: 8976 8976 1110
Width: 600
Flags: W
LayerCount: 2
Fore
SplineSet
484 276 m 1,0,-1
 193 276 l 1,1,-1
 193 134 l 1,2,-1
 116 134 l 1,3,-1
 116 348 l 1,4,-1
 484 348 l 1,5,-1
 484 276 l 1,0,-1
EndSplineSet
Colour: ff0000
EndChar
StartChar: integralbt
Encoding: 8993 8993 1089
Width: 600
Flags: W
LayerCount: 2
Fore
SplineSet
333 -74 m 2,0,1
 333 -142 333 -142 296.5 -177 c 128,-1,2
 260 -212 260 -212 193 -212 c 0,3,4
 157 -212 157 -212 133 -206 c 128,-1,5
 109 -200 109 -200 77 -186 c 1,6,-1
 105 -123 l 1,7,8
 129 -134 129 -134 147.5 -138 c 128,-1,9
 166 -142 166 -142 187 -142 c 0,10,11
 218 -142 218 -142 235 -124 c 128,-1,12
 252 -106 252 -106 252 -73 c 2,13,-1
 252 1000 l 1,14,-1
 333 1000 l 1,15,-1
 333 -74 l 2,0,1
EndSplineSet
Colour: ff0000
EndChar
StartChar: uni2327
Encoding: 8999 8999 1394
Width: 600
Flags: W
LayerCount: 2
Fore
SplineSet
666.5 659.5 m 128,-1,1
 680 646 680 646 680 623 c 2,2,-1
 680 78 l 2,3,4
 680 56 680 56 666.5 42 c 128,-1,5
 653 28 653 28 630 28 c 2,6,-1
 -30 28 l 2,7,8
 -53 28 -53 28 -66.5 42 c 128,-1,9
 -80 56 -80 56 -80 78 c 2,10,-1
 -80 623 l 2,11,12
 -80 646 -80 646 -66.5 659.5 c 128,-1,13
 -53 673 -53 673 -30 673 c 2,14,-1
 630 673 l 2,15,0
 653 673 653 673 666.5 659.5 c 128,-1,1
300 422 m 1,16,-1
 166 557 l 1,17,-1
 99 488 l 1,18,-1
 233 355 l 1,19,-1
 99 221 l 1,20,-1
 166 154 l 1,21,-1
 300 288 l 1,22,-1
 434 154 l 1,23,-1
 501 221 l 1,24,-1
 367 355 l 1,25,-1
 501 488 l 1,26,-1
 434 557 l 1,27,-1
 300 422 l 1,16,-1
EndSplineSet
Colour: ff0000
EndChar
StartChar: uni250D
Encoding: 9485 9485 1295
Width: 600
Flags: W
LayerCount: 2
Fore
SplineSet
605 230 m 1,0,-1
 340 230 l 1,1,-1
 340 -500 l 1,2,-1
 260 -500 l 1,3,-1
 260 470 l 1,4,-1
 605 470 l 1,5,-1
 605 230 l 1,0,-1
EndSplineSet
Colour: ff0000
EndChar
StartChar: uni2513
Encoding: 9491 9491 1302
Width: 600
Flags: W
LayerCount: 2
Fore
SplineSet
420 -500 m 1,0,-1
 180 -500 l 1,1,-1
 180 230 l 1,2,-1
 -5 230 l 1,3,-1
 -5 470 l 1,4,-1
 420 470 l 1,5,-1
 420 -500 l 1,0,-1
EndSplineSet
Colour: ff0000
EndChar
StartChar: uni2514
Encoding: 9492 9492 1224
Width: 600
Flags: W
LayerCount: 2
Fore
SplineSet
340 390 m 1,0,-1
 605 390 l 1,1,-1
 605 310 l 1,2,-1
 260 310 l 1,3,-1
 260 1000 l 1,4,-1
 340 1000 l 1,5,-1
 340 390 l 1,0,-1
EndSplineSet
Colour: ff0000
EndChar
StartChar: uni2518
Encoding: 9496 9496 1226
Width: 600
Flags: W
LayerCount: 2
Fore
SplineSet
340 310 m 1,0,-1
 -5 310 l 1,1,-1
 -5 390 l 1,2,-1
 260 390 l 1,3,-1
 260 1000 l 1,4,-1
 340 1000 l 1,5,-1
 340 310 l 1,0,-1
EndSplineSet
Colour: ff0000
EndChar
StartChar: uni251B
Encoding: 9499 9499 1310
Width: 600
Flags: W
LayerCount: 2
Fore
SplineSet
420 230 m 1,0,-1
 -5 230 l 1,1,-1
 -5 470 l 1,2,-1
 180 470 l 1,3,-1
 180 1000 l 1,4,-1
 420 1000 l 1,5,-1
 420 230 l 1,0,-1
EndSplineSet
Colour: ff0000
EndChar
StartChar: uni2521
Encoding: 9505 9505 1296
Width: 600
Flags: W
LayerCount: 2
Fore
SplineSet
420 470 m 1,0,-1
 605 470 l 1,1,-1
 605 230 l 1,2,-1
 340 230 l 1,3,-1
 340 -500 l 1,4,-1
 260 -500 l 1,5,-1
 260 230 l 1,6,-1
 180 230 l 1,7,-1
 180 1000 l 1,8,-1
 420 1000 l 1,9,-1
 420 470 l 1,0,-1
EndSplineSet
Colour: ff0000
EndChar
StartChar: uni2525
Encoding: 9509 9509 1360
Width: 600
Flags: W
LayerCount: 2
Fore
SplineSet
340 -500 m 1,0,-1
 260 -500 l 1,1,-1
 260 230 l 1,2,-1
 -5 230 l 1,3,-1
 -5 470 l 1,4,-1
 260 470 l 1,5,-1
 260 1000 l 1,6,-1
 340 1000 l 1,7,-1
 340 -500 l 1,0,-1
EndSplineSet
Colour: ff0000
EndChar
StartChar: uni2529
Encoding: 9513 9513 1294
Width: 600
Flags: W
LayerCount: 2
Fore
SplineSet
420 230 m 1,0,-1
 340 230 l 1,1,-1
 340 -500 l 1,2,-1
 260 -500 l 1,3,-1
 260 230 l 1,4,-1
 -5 230 l 1,5,-1
 -5 470 l 1,6,-1
 180 470 l 1,7,-1
 180 1000 l 1,8,-1
 420 1000 l 1,9,-1
 420 230 l 1,0,-1
EndSplineSet
Colour: ff0000
EndChar
StartChar: uni2537
Encoding: 9527 9527 1351
Width: 600
Flags: W
LayerCount: 2
Fore
SplineSet
340 470 m 1,0,-1
 605 470 l 1,1,-1
 605 230 l 1,2,-1
 -5 230 l 1,3,-1
 -5 470 l 1,4,-1
 260 470 l 1,5,-1
 260 1000 l 1,6,-1
 340 1000 l 1,7,-1
 340 470 l 1,0,-1
EndSplineSet
Colour: ff0000
EndChar
StartChar: uni253E
Encoding: 9534 9534 1339
Width: 600
Flags: W
LayerCount: 2
Fore
SplineSet
340 470 m 1,0,-1
 605 470 l 1,1,-1
 605 230 l 1,2,-1
 340 230 l 1,3,-1
 340 -500 l 1,4,-1
 260 -500 l 1,5,-1
 260 310 l 1,6,-1
 -5 310 l 1,7,-1
 -5 390 l 1,8,-1
 260 390 l 1,9,-1
 260 1000 l 1,10,-1
 340 1000 l 1,11,-1
 340 470 l 1,0,-1
EndSplineSet
Colour: ff0000
EndChar
StartChar: uni2547
Encoding: 9543 9543 1297
Width: 600
Flags: W
LayerCount: 2
Fore
SplineSet
420 470 m 1,0,-1
 605 470 l 1,1,-1
 605 230 l 1,2,-1
 340 230 l 1,3,-1
 340 -500 l 1,4,-1
 260 -500 l 1,5,-1
 260 230 l 1,6,-1
 -5 230 l 1,7,-1
 -5 470 l 1,8,-1
 180 470 l 1,9,-1
 180 1000 l 1,10,-1
 420 1000 l 1,11,-1
 420 470 l 1,0,-1
EndSplineSet
Colour: ff0000
EndChar
StartChar: uni254D
Encoding: 9549 9549 1298
Width: 600
Flags: W
LayerCount: 2
Fore
SplineSet
180 230 m 1,0,-1
 -5 230 l 1,1,-1
 -5 470 l 1,2,-1
 180 470 l 1,3,-1
 180 230 l 1,0,-1
605 230 m 1,4,-1
 420 230 l 1,5,-1
 420 470 l 1,6,-1
 605 470 l 1,7,-1
 605 230 l 1,4,-1
EndSplineSet
Colour: ff0000
EndChar
StartChar: uni2552
Encoding: 9554 9554 1259
Width: 600
Flags: W
LayerCount: 2
Fore
SplineSet
605 390 m 1,0,-1
 340 390 l 1,1,-1
 340 310 l 1,2,-1
 605 310 l 1,3,-1
 605 230 l 1,4,-1
 340 230 l 1,5,-1
 340 -500 l 1,6,-1
 260 -500 l 1,7,-1
 260 470 l 1,8,-1
 605 470 l 1,9,-1
 605 390 l 1,0,-1
EndSplineSet
Colour: ff0000
EndChar
StartChar: uni2562
Encoding: 9570 9570 1235
Width: 600
Flags: W
LayerCount: 2
Fore
SplineSet
260 -500 m 1,0,-1
 180 -500 l 1,1,-1
 180 310 l 1,2,-1
 -5 310 l 1,3,-1
 -5 390 l 1,4,-1
 180 390 l 1,5,-1
 180 1000 l 1,6,-1
 260 1000 l 1,7,-1
 260 -500 l 1,0,-1
420 -500 m 1,8,-1
 340 -500 l 1,9,-1
 340 1000 l 1,10,-1
 420 1000 l 1,11,-1
 420 -500 l 1,8,-1
EndSplineSet
Colour: ff0000
EndChar
StartChar: uni2563
Encoding: 9571 9571 1238
Width: 600
Flags: W
LayerCount: 2
Fore
SplineSet
260 390 m 1,0,-1
 -5 390 l 1,1,-1
 -5 470 l 1,2,-1
 180 470 l 1,3,-1
 180 1000 l 1,4,-1
 260 1000 l 1,5,-1
 260 390 l 1,0,-1
420 -500 m 1,6,-1
 340 -500 l 1,7,-1
 340 1000 l 1,8,-1
 420 1000 l 1,9,-1
 420 -500 l 1,6,-1
260 -500 m 1,10,-1
 180 -500 l 1,11,-1
 180 230 l 1,12,-1
 -5 230 l 1,13,-1
 -5 310 l 1,14,-1
 260 310 l 1,15,-1
 260 -500 l 1,10,-1
EndSplineSet
Colour: ff0000
EndChar
StartChar: uni2566
Encoding: 9574 9574 1249
Width: 600
Flags: W
LayerCount: 2
Fore
SplineSet
605 390 m 1,0,-1
 -5 390 l 1,1,-1
 -5 470 l 1,2,-1
 605 470 l 1,3,-1
 605 390 l 1,0,-1
260 -500 m 1,4,-1
 180 -500 l 1,5,-1
 180 230 l 1,6,-1
 -5 230 l 1,7,-1
 -5 310 l 1,8,-1
 260 310 l 1,9,-1
 260 -500 l 1,4,-1
605 230 m 1,10,-1
 420 230 l 1,11,-1
 420 -500 l 1,12,-1
 340 -500 l 1,13,-1
 340 310 l 1,14,-1
 605 310 l 1,15,-1
 605 230 l 1,10,-1
EndSplineSet
Colour: ff0000
EndChar
StartChar: uni2567
Encoding: 9575 9575 1253
Width: 600
Flags: W
LayerCount: 2
Fore
SplineSet
340 470 m 1,0,-1
 605 470 l 1,1,-1
 605 390 l 1,2,-1
 -5 390 l 1,3,-1
 -5 470 l 1,4,-1
 260 470 l 1,5,-1
 260 1000 l 1,6,-1
 340 1000 l 1,7,-1
 340 470 l 1,0,-1
605 230 m 1,8,-1
 -5 230 l 1,9,-1
 -5 310 l 1,10,-1
 605 310 l 1,11,-1
 605 230 l 1,8,-1
EndSplineSet
Colour: ff0000
EndChar
StartChar: uni256A
Encoding: 9578 9578 1262
Width: 600
Flags: W
LayerCount: 2
Fore
SplineSet
340 470 m 1,0,-1
 605 470 l 1,1,-1
 605 390 l 1,2,-1
 340 390 l 1,3,-1
 340 310 l 1,4,-1
 605 310 l 1,5,-1
 605 230 l 1,6,-1
 340 230 l 1,7,-1
 340 -500 l 1,8,-1
 260 -500 l 1,9,-1
 260 230 l 1,10,-1
 -5 230 l 1,11,-1
 -5 310 l 1,12,-1
 260 310 l 1,13,-1
 260 390 l 1,14,-1
 -5 390 l 1,15,-1
 -5 470 l 1,16,-1
 260 470 l 1,17,-1
 260 1000 l 1,18,-1
 340 1000 l 1,19,-1
 340 470 l 1,0,-1
EndSplineSet
Colour: ff0000
EndChar
StartChar: uni256C
Encoding: 9580 9580 1252
Width: 600
Flags: W
LayerCount: 2
Fore
SplineSet
260 390 m 1,0,-1
 -5 390 l 1,1,-1
 -5 470 l 1,2,-1
 180 470 l 1,3,-1
 180 1000 l 1,4,-1
 260 1000 l 1,5,-1
 260 390 l 1,0,-1
420 470 m 1,6,-1
 605 470 l 1,7,-1
 605 390 l 1,8,-1
 340 390 l 1,9,-1
 340 1000 l 1,10,-1
 420 1000 l 1,11,-1
 420 470 l 1,6,-1
260 -500 m 1,12,-1
 180 -500 l 1,13,-1
 180 230 l 1,14,-1
 -5 230 l 1,15,-1
 -5 310 l 1,16,-1
 260 310 l 1,17,-1
 260 -500 l 1,12,-1
605 230 m 1,18,-1
 420 230 l 1,19,-1
 420 -500 l 1,20,-1
 340 -500 l 1,21,-1
 340 310 l 1,22,-1
 605 310 l 1,23,-1
 605 230 l 1,18,-1
EndSplineSet
Colour: ff0000
EndChar
StartChar: uni2579
Encoding: 9593 9593 1308
Width: 600
Flags: W
LayerCount: 2
Fore
SplineSet
420 310 m 1,0,-1
 180 310 l 1,1,-1
 180 1000 l 1,2,-1
 420 1000 l 1,3,-1
 420 310 l 1,0,-1
EndSplineSet
Colour: ff0000
EndChar
StartChar: uni257A
Encoding: 9594 9594 1307
Width: 600
Flags: W
LayerCount: 2
Fore
SplineSet
605 230 m 1,0,-1
 260 230 l 1,1,-1
 260 470 l 1,2,-1
 605 470 l 1,3,-1
 605 230 l 1,0,-1
EndSplineSet
Colour: ff0000
EndChar
StartChar: uni257C
Encoding: 9596 9596 1332
Width: 600
Flags: W
LayerCount: 2
Fore
SplineSet
605 230 m 1,0,-1
 260 230 l 1,1,-1
 260 310 l 1,2,-1
 -5 310 l 1,3,-1
 -5 390 l 1,4,-1
 260 390 l 1,5,-1
 260 470 l 1,6,-1
 605 470 l 1,7,-1
 605 230 l 1,0,-1
EndSplineSet
Colour: ff0000
EndChar
StartChar: upblock
Encoding: 9600 9600 1167
Width: 600
Flags: W
LayerCount: 2
Fore
SplineSet
600 250 m 1,0,-1
 0 250 l 1,1,-1
 0 1000 l 1,2,-1
 600 1000 l 1,3,-1
 600 250 l 1,0,-1
EndSplineSet
Colour: ff0000
EndChar
StartChar: lfblock
Encoding: 9612 9612 1172
Width: 600
Flags: W
LayerCount: 2
Fore
SplineSet
300 -500 m 1,0,-1
 0 -500 l 1,1,-1
 0 1000 l 1,2,-1
 300 1000 l 1,3,-1
 300 -500 l 1,0,-1
EndSplineSet
Colour: ff0000
EndChar
StartChar: uni259B
Encoding: 9627 9627 1183
Width: 600
Flags: W
LayerCount: 2
Fore
SplineSet
600 250 m 1,0,-1
 300 250 l 1,1,-1
 300 -500 l 1,2,-1
 0 -500 l 1,3,-1
 0 1000 l 1,4,-1
 600 1000 l 1,5,-1
 600 250 l 1,0,-1
EndSplineSet
Colour: ff0000
EndChar
StartChar: uni259C
Encoding: 9628 9628 1184
Width: 600
Flags: W
LayerCount: 2
Fore
SplineSet
600 -500 m 1,0,-1
 300 -500 l 1,1,-1
 300 250 l 1,2,-1
 0 250 l 1,3,-1
 0 1000 l 1,4,-1
 600 1000 l 1,5,-1
 600 -500 l 1,0,-1
EndSplineSet
Colour: ff0000
EndChar
StartChar: uni25AB
Encoding: 9643 9643 1268
Width: 600
Flags: W
LayerCount: 2
Fore
SplineSet
427 0 m 1,0,-1
 142 0 l 1,1,-1
 142 270 l 1,2,-1
 427 270 l 1,3,-1
 427 0 l 1,0,-1
222 190 m 1,4,-1
 222 80 l 1,5,-1
 347 80 l 1,6,-1
 347 190 l 1,7,-1
 222 190 l 1,4,-1
EndSplineSet
Colour: ff0000
EndChar
StartChar: uni25C9
Encoding: 9673 9673 1205
Width: 600
Flags: W
LayerCount: 2
Fore
SplineSet
435 503.5 m 128,-1,1
 497 467 497 467 533.5 405 c 128,-1,2
 570 343 570 343 570 270 c 0,3,4
 570 196 570 196 533.5 134 c 128,-1,5
 497 72 497 72 435 36 c 128,-1,6
 373 0 373 0 300 0 c 0,7,8
 226 0 226 0 164 36 c 128,-1,9
 102 72 102 72 66 134 c 128,-1,10
 30 196 30 196 30 270 c 0,11,12
 30 343 30 343 66 405 c 128,-1,13
 102 467 102 467 164 503.5 c 128,-1,14
 226 540 226 540 300 540 c 0,15,0
 373 540 373 540 435 503.5 c 128,-1,1
204.5 434.5 m 128,-1,17
 161 409 161 409 135.5 365 c 128,-1,18
 110 321 110 321 110 270 c 0,19,20
 110 218 110 218 135.5 174.5 c 128,-1,21
 161 131 161 131 204.5 105.5 c 128,-1,22
 248 80 248 80 300 80 c 0,23,24
 351 80 351 80 395 105.5 c 128,-1,25
 439 131 439 131 464.5 174.5 c 128,-1,26
 490 218 490 218 490 270 c 0,27,28
 490 321 490 321 464 364.5 c 128,-1,29
 438 408 438 408 394.5 434 c 128,-1,30
 351 460 351 460 300 460 c 0,31,16
 248 460 248 460 204.5 434.5 c 128,-1,17
377.5 347.5 m 128,-1,33
 410 315 410 315 410 270 c 0,34,35
 410 224 410 224 377.5 192 c 128,-1,36
 345 160 345 160 300 160 c 0,37,38
 254 160 254 160 222 192 c 128,-1,39
 190 224 190 224 190 270 c 0,40,41
 190 315 190 315 222 347.5 c 128,-1,42
 254 380 254 380 300 380 c 0,43,32
 345 380 345 380 377.5 347.5 c 128,-1,33
EndSplineSet
Colour: ff0000
EndChar
StartChar: lozenge
Encoding: 9674 9674 1218
Width: 600
Flags: W
LayerCount: 2
Fore
SplineSet
533 345 m 1,0,-1
 349 0 l 1,1,-1
 250 0 l 1,2,-1
 67 344 l 1,3,-1
 250 689 l 1,4,-1
 349 689 l 1,5,-1
 533 345 l 1,0,-1
298 624 m 1,6,-1
 156 344 l 1,7,-1
 298 65 l 1,8,-1
 302 65 l 1,9,-1
 444 344 l 1,10,-1
 302 624 l 1,11,-1
 298 624 l 1,6,-1
EndSplineSet
Colour: ff0000
EndChar
StartChar: uni25D1
Encoding: 9681 9681 1195
Width: 600
Flags: W
LayerCount: 2
Fore
SplineSet
435 503.5 m 128,-1,1
 497 467 497 467 533.5 405 c 128,-1,2
 570 343 570 343 570 270 c 0,3,4
 570 198 570 198 535.5 137 c 128,-1,5
 501 76 501 76 441.5 39.5 c 128,-1,6
 382 3 382 3 311 0 c 1,7,-1
 300 0 l 2,8,9
 226 0 226 0 164 36 c 128,-1,10
 102 72 102 72 66 134 c 128,-1,11
 30 196 30 196 30 270 c 0,12,13
 30 343 30 343 66 405 c 128,-1,14
 102 467 102 467 164 503.5 c 128,-1,15
 226 540 226 540 300 540 c 0,16,0
 373 540 373 540 435 503.5 c 128,-1,1
204.5 434.5 m 128,-1,18
 161 409 161 409 135.5 365 c 128,-1,19
 110 321 110 321 110 270 c 0,20,21
 110 218 110 218 135.5 174.5 c 128,-1,22
 161 131 161 131 204.5 105.5 c 128,-1,23
 248 80 248 80 300 80 c 1,24,-1
 300 460 l 1,25,17
 248 460 248 460 204.5 434.5 c 128,-1,18
EndSplineSet
Colour: ff0000
EndChar
StartChar: uni25D3
Encoding: 9683 9683 1197
Width: 600
Flags: W
LayerCount: 2
Fore
SplineSet
435 503.5 m 128,-1,1
 497 467 497 467 533.5 405 c 128,-1,2
 570 343 570 343 570 270 c 0,3,4
 570 196 570 196 533.5 134 c 128,-1,5
 497 72 497 72 435 36 c 128,-1,6
 373 0 373 0 300 0 c 0,7,8
 226 0 226 0 164 36 c 128,-1,9
 102 72 102 72 66 134 c 128,-1,10
 30 196 30 196 30 270 c 0,11,12
 30 343 30 343 66 405 c 128,-1,13
 102 467 102 467 164 503.5 c 128,-1,14
 226 540 226 540 300 540 c 0,15,0
 373 540 373 540 435 503.5 c 128,-1,1
110 270 m 1,16,17
 110 218 110 218 135.5 174.5 c 128,-1,18
 161 131 161 131 204.5 105.5 c 128,-1,19
 248 80 248 80 300 80 c 0,20,21
 351 80 351 80 395 105.5 c 128,-1,22
 439 131 439 131 464.5 174.5 c 128,-1,23
 490 218 490 218 490 270 c 1,24,-1
 110 270 l 1,16,17
EndSplineSet
Colour: ff0000
EndChar
StartChar: uni25D5
Encoding: 9685 9685 1200
Width: 600
Flags: W
LayerCount: 2
Fore
SplineSet
435 503.5 m 128,-1,1
 497 467 497 467 533.5 405 c 128,-1,2
 570 343 570 343 570 270 c 0,3,4
 570 196 570 196 533.5 134 c 128,-1,5
 497 72 497 72 435 36 c 128,-1,6
 373 0 373 0 300 0 c 0,7,8
 226 0 226 0 164 36 c 128,-1,9
 102 72 102 72 66 134 c 128,-1,10
 30 196 30 196 30 270 c 0,11,12
 30 343 30 343 66 405 c 128,-1,13
 102 467 102 467 164 503.5 c 128,-1,14
 226 540 226 540 300 540 c 0,15,0
 373 540 373 540 435 503.5 c 128,-1,1
204.5 434.5 m 128,-1,17
 161 409 161 409 135.5 365 c 128,-1,18
 110 321 110 321 110 270 c 1,19,-1
 300 270 l 1,20,-1
 300 460 l 1,21,16
 248 460 248 460 204.5 434.5 c 128,-1,17
EndSplineSet
Colour: ff0000
EndChar
StartChar: invcircle
Encoding: 9689 9689 1207
Width: 600
Flags: W
LayerCount: 2
Fore
SplineSet
570 0 m 1,0,-1
 30 0 l 1,1,-1
 30 540 l 1,2,-1
 570 540 l 1,3,-1
 570 0 l 1,0,-1
185 469 m 128,-1,5
 132 438 132 438 101 385 c 128,-1,6
 70 332 70 332 70 270 c 256,7,8
 70 208 70 208 101 155 c 128,-1,9
 132 102 132 102 185 71 c 128,-1,10
 238 40 238 40 300 40 c 256,11,12
 362 40 362 40 415 71 c 128,-1,13
 468 102 468 102 499 155 c 128,-1,14
 530 208 530 208 530 270 c 256,15,16
 530 332 530 332 499 385 c 128,-1,17
 468 438 468 438 415 469 c 128,-1,18
 362 500 362 500 300 500 c 256,19,4
 238 500 238 500 185 469 c 128,-1,5
374.5 399.5 m 128,-1,21
 409 379 409 379 429.5 344.5 c 128,-1,22
 450 310 450 310 450 270 c 0,23,24
 450 229 450 229 429.5 194.5 c 128,-1,25
 409 160 409 160 374.5 140 c 128,-1,26
 340 120 340 120 300 120 c 0,27,28
 259 120 259 120 224.5 140 c 128,-1,29
 190 160 190 160 170 194.5 c 128,-1,30
 150 229 150 229 150 270 c 0,31,32
 150 310 150 310 170 344.5 c 128,-1,33
 190 379 190 379 224.5 399.5 c 128,-1,34
 259 420 259 420 300 420 c 0,35,20
 340 420 340 420 374.5 399.5 c 128,-1,21
EndSplineSet
Colour: ff0000
EndChar
StartChar: uni25DD
Encoding: 9693 9693 1213
Width: 600
Flags: W
LayerCount: 2
Fore
SplineSet
435 503.5 m 128,-1,1
 497 467 497 467 533.5 405 c 128,-1,2
 570 343 570 343 570 270 c 1,3,-1
 490 270 l 1,4,5
 490 321 490 321 464 364.5 c 128,-1,6
 438 408 438 408 394.5 434 c 128,-1,7
 351 460 351 460 300 460 c 1,8,-1
 300 540 l 1,9,0
 373 540 373 540 435 503.5 c 128,-1,1
EndSplineSet
Colour: ff0000
EndChar
StartChar: uni25E0
Encoding: 9696 9696 1210
Width: 600
Flags: W
LayerCount: 2
Fore
SplineSet
435 503.5 m 128,-1,1
 497 467 497 467 533.5 405 c 128,-1,2
 570 343 570 343 570 270 c 1,3,-1
 490 270 l 1,4,5
 490 321 490 321 464 364.5 c 128,-1,6
 438 408 438 408 394.5 434 c 128,-1,7
 351 460 351 460 300 460 c 0,8,9
 248 460 248 460 204.5 434.5 c 128,-1,10
 161 409 161 409 135.5 365 c 128,-1,11
 110 321 110 321 110 270 c 1,12,-1
 30 270 l 1,13,14
 30 343 30 343 66 405 c 128,-1,15
 102 467 102 467 164 503.5 c 128,-1,16
 226 540 226 540 300 540 c 0,17,0
 373 540 373 540 435 503.5 c 128,-1,1
EndSplineSet
Colour: ff0000
EndChar
StartChar: uni25E1
Encoding: 9697 9697 1211
Width: 600
Flags: W
LayerCount: 2
Fore
SplineSet
533.5 134 m 128,-1,1
 497 72 497 72 435 36 c 128,-1,2
 373 0 373 0 300 0 c 0,3,4
 226 0 226 0 164 36 c 128,-1,5
 102 72 102 72 66 134 c 128,-1,6
 30 196 30 196 30 270 c 1,7,-1
 110 270 l 1,8,9
 110 218 110 218 135.5 174.5 c 128,-1,10
 161 131 161 131 204.5 105.5 c 128,-1,11
 248 80 248 80 300 80 c 0,12,13
 351 80 351 80 395 105.5 c 128,-1,14
 439 131 439 131 464.5 174.5 c 128,-1,15
 490 218 490 218 490 270 c 1,16,-1
 570 270 l 1,17,0
 570 196 570 196 533.5 134 c 128,-1,1
EndSplineSet
Colour: ff0000
EndChar
StartChar: uni25EA
Encoding: 9706 9706 1272
Width: 600
Flags: W
LayerCount: 2
Fore
SplineSet
570 0 m 1,0,-1
 30 0 l 1,1,-1
 30 540 l 1,2,-1
 570 540 l 1,3,-1
 570 0 l 1,0,-1
110 460 m 1,4,-1
 110 80 l 1,5,-1
 490 460 l 1,6,-1
 110 460 l 1,4,-1
EndSplineSet
Colour: ff0000
EndChar
StartChar: uni25F0
Encoding: 9712 9712 1274
Width: 600
Flags: W
LayerCount: 2
Fore
SplineSet
570 0 m 1,0,-1
 30 0 l 1,1,-1
 30 540 l 1,2,-1
 570 540 l 1,3,-1
 570 0 l 1,0,-1
340 460 m 1,4,-1
 340 230 l 1,5,-1
 110 230 l 1,6,-1
 110 80 l 1,7,-1
 490 80 l 1,8,-1
 490 460 l 1,9,-1
 340 460 l 1,4,-1
110 460 m 1,10,-1
 110 310 l 1,11,-1
 260 310 l 1,12,-1
 260 460 l 1,13,-1
 110 460 l 1,10,-1
EndSplineSet
Colour: ff0000
EndChar
StartChar: female
Encoding: 9792 9792 1367
Width: 600
Flags: W
LayerCount: 2
Fore
SplineSet
380 518 m 128,-1,1
 417 497 417 497 438.5 461 c 128,-1,2
 460 425 460 425 460 381 c 0,3,4
 460 321 460 321 421.5 278.5 c 128,-1,5
 383 236 383 236 324 228 c 1,6,-1
 324 145 l 1,7,-1
 420 145 l 1,8,-1
 420 105 l 1,9,-1
 324 105 l 1,10,-1
 324 0 l 1,11,-1
 276 0 l 1,12,-1
 276 105 l 1,13,-1
 180 105 l 1,14,-1
 180 145 l 1,15,-1
 276 145 l 1,16,-1
 276 227 l 1,17,18
 217 235 217 235 178 278 c 128,-1,19
 139 321 139 321 139 381 c 0,20,21
 139 425 139 425 160.5 461 c 128,-1,22
 182 497 182 497 218.5 518 c 128,-1,23
 255 539 255 539 299 539 c 256,24,0
 343 539 343 539 380 518 c 128,-1,1
220.5 461 m 128,-1,26
 190 429 190 429 190 381 c 256,27,28
 190 333 190 333 220.5 301.5 c 128,-1,29
 251 270 251 270 299 270 c 256,30,31
 347 270 347 270 378 301.5 c 128,-1,32
 409 333 409 333 409 381 c 256,33,34
 409 429 409 429 378 461 c 128,-1,35
 347 493 347 493 299 493 c 256,36,25
 251 493 251 493 220.5 461 c 128,-1,26
EndSplineSet
Colour: ff0000
EndChar
StartChar: male
Encoding: 9794 9794 1368
Width: 600
Flags: W
LayerCount: 2
Fore
SplineSet
529 476 m 1,0,-1
 540 262 l 1,1,-1
 496 260 l 1,2,-1
 491 359 l 2,3,4
 490 383 490 383 494 407 c 1,5,-1
 492 408 l 1,6,-1
 344 257 l 1,7,8
 381 212 381 212 381 155 c 0,9,10
 381 111 381 111 359.5 75.5 c 128,-1,11
 338 40 338 40 301 20 c 128,-1,12
 264 0 264 0 220 0 c 256,13,14
 176 0 176 0 139.5 20 c 128,-1,15
 103 40 103 40 81.5 75.5 c 128,-1,16
 60 111 60 111 60 155 c 256,17,18
 60 199 60 199 81.5 235 c 128,-1,19
 103 271 103 271 139.5 292 c 128,-1,20
 176 313 176 313 220 313 c 0,21,22
 265 313 265 313 307 288 c 1,23,-1
 459 439 l 1,24,-1
 458 441 l 1,25,-1
 435 440 l 1,26,-1
 411 441 l 1,27,-1
 311 445 l 1,28,-1
 315 487 l 1,29,-1
 529 476 l 1,0,-1
141.5 235 m 128,-1,31
 111 203 111 203 111 155 c 256,32,33
 111 107 111 107 141.5 75.5 c 128,-1,34
 172 44 172 44 220 44 c 256,35,36
 268 44 268 44 299 75.5 c 128,-1,37
 330 107 330 107 330 155 c 256,38,39
 330 203 330 203 299 235 c 128,-1,40
 268 267 268 267 220 267 c 256,41,30
 172 267 172 267 141.5 235 c 128,-1,31
EndSplineSet
Colour: ff0000
EndChar
StartChar: uni27A1
Encoding: 10145 10145 1158
Width: 600
Flags: W
LayerCount: 2
Fore
SplineSet
640 313 m 1,0,-1
 342 13 l 1,1,-1
 342 189 l 1,2,-1
 10 189 l 2,3,4
 -13 189 -13 189 -26.5 203 c 128,-1,5
 -40 217 -40 217 -40 239 c 2,6,-1
 -40 387 l 2,7,8
 -40 410 -40 410 -26.5 423.5 c 128,-1,9
 -13 437 -13 437 10 437 c 2,10,-1
 342 437 l 1,11,-1
 342 613 l 1,12,-1
 640 313 l 1,0,-1
EndSplineSet
Colour: ff0000
EndChar
StartChar: uni2B05
Encoding: 11013 11013 1157
Width: 600
Flags: W
LayerCount: 2
Fore
SplineSet
258 437 m 1,0,-1
 590 437 l 2,1,2
 613 437 613 437 626.5 423.5 c 128,-1,3
 640 410 640 410 640 387 c 2,4,-1
 640 239 l 2,5,6
 640 217 640 217 626.5 203 c 128,-1,7
 613 189 613 189 590 189 c 2,8,-1
 258 189 l 1,9,-1
 258 13 l 1,10,-1
 -40 313 l 1,11,-1
 258 613 l 1,12,-1
 258 437 l 1,0,-1
EndSplineSet
Colour: ff0000
EndChar
